M48
; DRILL file {KiCad 9.0.6} date 2026-02-06T21:19:24+0530
; FORMAT={-:-/ absolute / metric / decimal}
; #@! TF.CreationDate,2026-02-06T21:19:24+05:30
; #@! TF.GenerationSoftware,Kicad,Pcbnew,9.0.6
; #@! TF.FileFunction,Plated,1,2,PTH
FMAT,2
METRIC
; #@! TA.AperFunction,Plated,PTH,ViaDrill
T1C0.300
; #@! TA.AperFunction,Plated,PTH,ComponentDrill
T2C0.400
; #@! TA.AperFunction,Plated,PTH,ComponentDrill
T3C1.020
; #@! TA.AperFunction,Plated,PTH,ComponentDrill
T4C1.300
; #@! TA.AperFunction,Plated,PTH,ComponentDrill
T5C2.200
%
G90
G05
T1
X34.26Y-30.72
X34.26Y-58.16
X43.645Y-19.655
X46.33Y-19.65
X53.61Y-39.84
X55.96Y-30.28
X61.79Y-31.69
X64.66Y-30.28
X66.4Y-18.37
X67.61Y-40.97
X69.88Y-18.37
X75.551Y-31.689
X80.44Y-30.2
X81.91Y-40.97
X87.92Y-73.97
X90.05Y-31.64
X94.0Y-32.81
X94.83Y-34.975
X94.83Y-36.475
X96.4Y-32.83
X111.98Y-27.76
X112.04Y-48.08
T2
X35.04Y-19.67
X35.04Y-71.46
X35.523Y-18.503
X35.523Y-20.837
X35.523Y-70.293
X35.523Y-72.627
X36.69Y-18.02
X36.69Y-21.32
X36.69Y-69.81
X36.69Y-73.11
X37.857Y-18.503
X37.857Y-20.837
X37.857Y-70.293
X37.857Y-72.627
X38.34Y-19.67
X38.34Y-71.46
X108.81Y-19.67
X108.81Y-71.46
X109.293Y-18.503
X109.293Y-20.837
X109.293Y-70.293
X109.293Y-72.627
X110.46Y-18.02
X110.46Y-21.32
X110.46Y-69.81
X110.46Y-73.11
X111.627Y-18.503
X111.627Y-20.837
X111.627Y-70.293
X111.627Y-72.627
X112.11Y-19.67
X112.11Y-71.46
T3
X54.915Y-45.883
X54.915Y-71.282
X57.455Y-45.883
X57.455Y-71.282
X59.995Y-45.883
X59.995Y-71.282
X62.535Y-45.883
X62.535Y-71.282
X65.075Y-45.883
X65.075Y-71.282
X67.615Y-45.883
X67.615Y-71.282
X70.155Y-45.883
X70.155Y-71.282
X72.695Y-45.883
X72.695Y-71.282
X75.235Y-45.883
X75.235Y-71.282
X77.775Y-45.883
X77.775Y-71.282
X80.315Y-45.883
X80.315Y-71.282
X82.855Y-45.883
X82.855Y-71.282
X85.395Y-45.883
X85.395Y-71.282
X87.935Y-45.883
X87.935Y-71.282
X90.475Y-45.883
X90.475Y-71.282
T4
X40.52Y-37.86
X40.52Y-42.94
X40.52Y-48.02
X40.52Y-53.1
X40.52Y-58.18
X40.52Y-63.26
X63.175Y-23.357
X68.255Y-23.357
X73.335Y-23.357
X78.415Y-23.357
X107.39Y-27.76
X107.39Y-32.84
X107.39Y-37.92
X107.39Y-43.0
X107.39Y-48.08
X107.39Y-53.16
T5
X36.69Y-19.67
X36.69Y-71.46
X110.46Y-19.67
X110.46Y-71.46
M30
