%TF.GenerationSoftware,KiCad,Pcbnew,9.0.6*%
%TF.CreationDate,2026-02-06T21:19:27+05:30*%
%TF.ProjectId,PC_and_Light_Controller,50435f61-6e64-45f4-9c69-6768745f436f,rev?*%
%TF.SameCoordinates,Original*%
%TF.FileFunction,Copper,L2,Bot*%
%TF.FilePolarity,Positive*%
%FSLAX46Y46*%
G04 Gerber Fmt 4.6, Leading zero omitted, Abs format (unit mm)*
G04 Created by KiCad (PCBNEW 9.0.6) date 2026-02-06 21:19:27*
%MOMM*%
%LPD*%
G01*
G04 APERTURE LIST*
G04 Aperture macros list*
%AMRoundRect*
0 Rectangle with rounded corners*
0 $1 Rounding radius*
0 $2 $3 $4 $5 $6 $7 $8 $9 X,Y pos of 4 corners*
0 Add a 4 corners polygon primitive as box body*
4,1,4,$2,$3,$4,$5,$6,$7,$8,$9,$2,$3,0*
0 Add four circle primitives for the rounded corners*
1,1,$1+$1,$2,$3*
1,1,$1+$1,$4,$5*
1,1,$1+$1,$6,$7*
1,1,$1+$1,$8,$9*
0 Add four rect primitives between the rounded corners*
20,1,$1+$1,$2,$3,$4,$5,0*
20,1,$1+$1,$4,$5,$6,$7,0*
20,1,$1+$1,$6,$7,$8,$9,0*
20,1,$1+$1,$8,$9,$2,$3,0*%
G04 Aperture macros list end*
%TA.AperFunction,ComponentPad*%
%ADD10RoundRect,0.250000X1.050000X1.050000X-1.050000X1.050000X-1.050000X-1.050000X1.050000X-1.050000X0*%
%TD*%
%TA.AperFunction,ComponentPad*%
%ADD11C,2.600000*%
%TD*%
%TA.AperFunction,ComponentPad*%
%ADD12C,0.700000*%
%TD*%
%TA.AperFunction,ComponentPad*%
%ADD13C,4.400000*%
%TD*%
%TA.AperFunction,ComponentPad*%
%ADD14RoundRect,0.250000X1.050000X-1.050000X1.050000X1.050000X-1.050000X1.050000X-1.050000X-1.050000X0*%
%TD*%
%TA.AperFunction,ComponentPad*%
%ADD15R,2.000000X2.000000*%
%TD*%
%TA.AperFunction,ComponentPad*%
%ADD16C,2.000000*%
%TD*%
%TA.AperFunction,ComponentPad*%
%ADD17RoundRect,0.250000X-1.050000X1.050000X-1.050000X-1.050000X1.050000X-1.050000X1.050000X1.050000X0*%
%TD*%
%TA.AperFunction,ViaPad*%
%ADD18C,0.600000*%
%TD*%
%TA.AperFunction,Conductor*%
%ADD19C,0.200000*%
%TD*%
%TA.AperFunction,Conductor*%
%ADD20C,0.500000*%
%TD*%
G04 APERTURE END LIST*
D10*
%TO.P,J1,1,Pin_1*%
%TO.N,GND*%
X78415000Y-23357500D03*
D11*
%TO.P,J1,2,Pin_2*%
X73335000Y-23357500D03*
%TO.P,J1,3,Pin_3*%
%TO.N,+5V*%
X68255000Y-23357500D03*
%TO.P,J1,4,Pin_4*%
X63175000Y-23357500D03*
%TD*%
D12*
%TO.P,H2,1,1*%
%TO.N,GND*%
X108810000Y-19670000D03*
X109293274Y-18503274D03*
X109293274Y-20836726D03*
X110460000Y-18020000D03*
D13*
X110460000Y-19670000D03*
D12*
X110460000Y-21320000D03*
X111626726Y-18503274D03*
X111626726Y-20836726D03*
X112110000Y-19670000D03*
%TD*%
%TO.P,H4,1,1*%
%TO.N,GND*%
X108810000Y-71460000D03*
X109293274Y-70293274D03*
X109293274Y-72626726D03*
X110460000Y-69810000D03*
D13*
X110460000Y-71460000D03*
D12*
X110460000Y-73110000D03*
X111626726Y-70293274D03*
X111626726Y-72626726D03*
X112110000Y-71460000D03*
%TD*%
%TO.P,H1,1,1*%
%TO.N,GND*%
X35040000Y-19670000D03*
X35523274Y-18503274D03*
X35523274Y-20836726D03*
X36690000Y-18020000D03*
D13*
X36690000Y-19670000D03*
D12*
X36690000Y-21320000D03*
X37856726Y-18503274D03*
X37856726Y-20836726D03*
X38340000Y-19670000D03*
%TD*%
D14*
%TO.P,J4,1,Pin_1*%
%TO.N,/LED_1_VOUT*%
X107390000Y-53160000D03*
D11*
%TO.P,J4,2,Pin_2*%
%TO.N,GND*%
X107390000Y-48080000D03*
%TO.P,J4,3,Pin_3*%
%TO.N,/LED_2_VOUT*%
X107390000Y-43000000D03*
%TO.P,J4,4,Pin_4*%
%TO.N,GND*%
X107390000Y-37920000D03*
%TO.P,J4,5,Pin_5*%
%TO.N,/LED_3_VOUT*%
X107390000Y-32840000D03*
%TO.P,J4,6,Pin_6*%
%TO.N,GND*%
X107390000Y-27760000D03*
%TD*%
D15*
%TO.P,U1,1,3V3*%
%TO.N,unconnected-(U1-3V3-Pad1)*%
X90475000Y-45882500D03*
D16*
%TO.P,U1,2,GND*%
%TO.N,GND*%
X87935000Y-45882500D03*
%TO.P,U1,3,D15*%
%TO.N,unconnected-(U1-D15-Pad3)*%
X85395000Y-45882500D03*
%TO.P,U1,4,D2*%
%TO.N,/LED_3_CTRL*%
X82855000Y-45882500D03*
%TO.P,U1,5,D4*%
%TO.N,unconnected-(U1-D4-Pad5)*%
X80315000Y-45882500D03*
%TO.P,U1,6,RX2*%
%TO.N,unconnected-(U1-RX2-Pad6)*%
X77775000Y-45882500D03*
%TO.P,U1,7,TX2*%
%TO.N,unconnected-(U1-TX2-Pad7)*%
X75235000Y-45882500D03*
%TO.P,U1,8,D5*%
%TO.N,unconnected-(U1-D5-Pad8)*%
X72695000Y-45882500D03*
%TO.P,U1,9,D18*%
%TO.N,unconnected-(U1-D18-Pad9)*%
X70155000Y-45882500D03*
%TO.P,U1,10,D19*%
%TO.N,/LED_2_CTRL*%
X67615000Y-45882500D03*
%TO.P,U1,11,D21*%
%TO.N,unconnected-(U1-D21-Pad11)*%
X65075000Y-45882500D03*
%TO.P,U1,12,RX0*%
%TO.N,unconnected-(U1-RX0-Pad12)*%
X62535000Y-45882500D03*
%TO.P,U1,13,TX0*%
%TO.N,Net-(U1-TX0)*%
X59995000Y-45882500D03*
%TO.P,U1,14,D22*%
%TO.N,unconnected-(U1-D22-Pad14)*%
X57455000Y-45882500D03*
%TO.P,U1,15,D23*%
%TO.N,/LED_1_CTRL*%
X54915000Y-45882500D03*
%TO.P,U1,16,EN*%
%TO.N,unconnected-(U1-EN-Pad16)*%
X54915000Y-71282500D03*
%TO.P,U1,17,VP*%
%TO.N,unconnected-(U1-VP-Pad17)*%
X57455000Y-71282500D03*
%TO.P,U1,18,VN*%
%TO.N,unconnected-(U1-VN-Pad18)*%
X59995000Y-71282500D03*
%TO.P,U1,19,D34*%
%TO.N,unconnected-(U1-D34-Pad19)*%
X62535000Y-71282500D03*
%TO.P,U1,20,D35*%
%TO.N,unconnected-(U1-D35-Pad20)*%
X65075000Y-71282500D03*
%TO.P,U1,21,D32*%
%TO.N,unconnected-(U1-D32-Pad21)*%
X67615000Y-71282500D03*
%TO.P,U1,22,D33*%
%TO.N,unconnected-(U1-D33-Pad22)*%
X70155000Y-71282500D03*
%TO.P,U1,23,D25*%
%TO.N,unconnected-(U1-D25-Pad23)*%
X72695000Y-71282500D03*
%TO.P,U1,24,D26*%
%TO.N,unconnected-(U1-D26-Pad24)*%
X75235000Y-71282500D03*
%TO.P,U1,25,D27*%
%TO.N,unconnected-(U1-D27-Pad25)*%
X77775000Y-71282500D03*
%TO.P,U1,26,D14*%
%TO.N,unconnected-(U1-D14-Pad26)*%
X80315000Y-71282500D03*
%TO.P,U1,27,D12*%
%TO.N,unconnected-(U1-D12-Pad27)*%
X82855000Y-71282500D03*
%TO.P,U1,28,D13*%
%TO.N,unconnected-(U1-D13-Pad28)*%
X85395000Y-71282500D03*
%TO.P,U1,29,GND*%
%TO.N,GND*%
X87935000Y-71282500D03*
%TO.P,U1,30,VIN*%
%TO.N,+5V*%
X90475000Y-71282500D03*
%TD*%
D17*
%TO.P,J3,1,Pin_1*%
%TO.N,+5V*%
X40520000Y-37860000D03*
D11*
%TO.P,J3,2,Pin_2*%
X40520000Y-42940000D03*
%TO.P,J3,3,Pin_3*%
%TO.N,/Motor_PWM*%
X40520000Y-48020000D03*
%TO.P,J3,4,Pin_4*%
%TO.N,unconnected-(J3-Pin_4-Pad4)*%
X40520000Y-53100000D03*
%TO.P,J3,5,Pin_5*%
%TO.N,GND*%
X40520000Y-58180000D03*
%TO.P,J3,6,Pin_6*%
X40520000Y-63260000D03*
%TD*%
D12*
%TO.P,H3,1,1*%
%TO.N,GND*%
X35040000Y-71460000D03*
X35523274Y-70293274D03*
X35523274Y-72626726D03*
X36690000Y-69810000D03*
D13*
X36690000Y-71460000D03*
D12*
X36690000Y-73110000D03*
X37856726Y-70293274D03*
X37856726Y-72626726D03*
X38340000Y-71460000D03*
%TD*%
D18*
%TO.N,/LED_1_CTRL*%
X53610000Y-39840000D03*
%TO.N,/LED_2_CTRL*%
X67610000Y-40970000D03*
%TO.N,/LED_3_CTRL*%
X81910000Y-40970000D03*
%TO.N,+5V*%
X64660000Y-30280000D03*
%TO.N,/LED_2_VOUT*%
X75551000Y-31689000D03*
%TO.N,/LED_1_VOUT*%
X61790000Y-31690000D03*
%TO.N,/LED_3_VOUT*%
X94000000Y-32810000D03*
X96400000Y-32830000D03*
X90050000Y-31640000D03*
%TO.N,GND*%
X66400000Y-18370000D03*
X69880000Y-18370000D03*
X46330000Y-19650000D03*
X43644669Y-19654669D03*
X34260000Y-58160000D03*
X34260000Y-30720000D03*
X87920000Y-73970000D03*
X111980000Y-27760000D03*
X112040000Y-48080000D03*
%TO.N,+5V*%
X80440000Y-30200000D03*
X94830000Y-36475000D03*
X94830000Y-34975000D03*
X55960000Y-30280000D03*
%TD*%
D19*
%TO.N,/LED_1_CTRL*%
X53610000Y-40710000D02*
X53610000Y-39840000D01*
X53950000Y-41050000D02*
X53610000Y-40710000D01*
X54915000Y-45882500D02*
X54915000Y-42015000D01*
X54915000Y-42015000D02*
X53950000Y-41050000D01*
%TO.N,/LED_2_CTRL*%
X67615000Y-45882500D02*
X67615000Y-40975000D01*
X67615000Y-40975000D02*
X67610000Y-40970000D01*
%TO.N,/LED_3_CTRL*%
X81910000Y-41380000D02*
X81910000Y-40970000D01*
X82070000Y-41540000D02*
X81910000Y-41380000D01*
X82855000Y-45882500D02*
X82855000Y-42325000D01*
X82855000Y-42325000D02*
X82070000Y-41540000D01*
D20*
%TO.N,/LED_1_VOUT*%
X107390000Y-53160000D02*
X105270000Y-53160000D01*
X105270000Y-53160000D02*
X101850000Y-49740000D01*
X101850000Y-49740000D02*
X101850000Y-40900000D01*
X63600000Y-32390000D02*
X62900000Y-31690000D01*
X101850000Y-40900000D02*
X101170000Y-40220000D01*
X65540000Y-40220000D02*
X63600000Y-38280000D01*
X63600000Y-38280000D02*
X63600000Y-32390000D01*
X101170000Y-40220000D02*
X65540000Y-40220000D01*
X62900000Y-31690000D02*
X61790000Y-31690000D01*
%TO.N,/LED_2_VOUT*%
X107390000Y-43000000D02*
X101950000Y-37560000D01*
X79270000Y-37560000D02*
X78000000Y-36290000D01*
X101950000Y-37560000D02*
X79270000Y-37560000D01*
X78000000Y-36290000D02*
X78000000Y-32310000D01*
X78000000Y-32310000D02*
X77379000Y-31689000D01*
X77379000Y-31689000D02*
X75551000Y-31689000D01*
%TO.N,/LED_3_VOUT*%
X94020000Y-32830000D02*
X94000000Y-32810000D01*
X96400000Y-32830000D02*
X94020000Y-32830000D01*
%TO.N,GND*%
X66400000Y-18370000D02*
X69880000Y-18370000D01*
X46325331Y-19654669D02*
X46330000Y-19650000D01*
X43644669Y-19654669D02*
X46325331Y-19654669D01*
%TO.N,+5V*%
X94830000Y-36475000D02*
X94830000Y-34975000D01*
%TD*%
M02*
