%TF.GenerationSoftware,KiCad,Pcbnew,9.0.6*%
%TF.CreationDate,2026-02-06T21:19:27+05:30*%
%TF.ProjectId,PC_and_Light_Controller,50435f61-6e64-45f4-9c69-6768745f436f,rev?*%
%TF.SameCoordinates,Original*%
%TF.FileFunction,Soldermask,Bot*%
%TF.FilePolarity,Negative*%
%FSLAX46Y46*%
G04 Gerber Fmt 4.6, Leading zero omitted, Abs format (unit mm)*
G04 Created by KiCad (PCBNEW 9.0.6) date 2026-02-06 21:19:27*
%MOMM*%
%LPD*%
G01*
G04 APERTURE LIST*
G04 Aperture macros list*
%AMRoundRect*
0 Rectangle with rounded corners*
0 $1 Rounding radius*
0 $2 $3 $4 $5 $6 $7 $8 $9 X,Y pos of 4 corners*
0 Add a 4 corners polygon primitive as box body*
4,1,4,$2,$3,$4,$5,$6,$7,$8,$9,$2,$3,0*
0 Add four circle primitives for the rounded corners*
1,1,$1+$1,$2,$3*
1,1,$1+$1,$4,$5*
1,1,$1+$1,$6,$7*
1,1,$1+$1,$8,$9*
0 Add four rect primitives between the rounded corners*
20,1,$1+$1,$2,$3,$4,$5,0*
20,1,$1+$1,$4,$5,$6,$7,0*
20,1,$1+$1,$6,$7,$8,$9,0*
20,1,$1+$1,$8,$9,$2,$3,0*%
G04 Aperture macros list end*
%ADD10RoundRect,0.250000X1.050000X1.050000X-1.050000X1.050000X-1.050000X-1.050000X1.050000X-1.050000X0*%
%ADD11C,2.600000*%
%ADD12C,0.700000*%
%ADD13C,4.400000*%
%ADD14RoundRect,0.250000X1.050000X-1.050000X1.050000X1.050000X-1.050000X1.050000X-1.050000X-1.050000X0*%
%ADD15C,3.000000*%
%ADD16RoundRect,0.102000X-1.000000X1.000000X-1.000000X-1.000000X1.000000X-1.000000X1.000000X1.000000X0*%
%ADD17C,2.204000*%
%ADD18RoundRect,0.250000X-1.050000X1.050000X-1.050000X-1.050000X1.050000X-1.050000X1.050000X1.050000X0*%
G04 APERTURE END LIST*
D10*
%TO.C,J1*%
X78415000Y-23357500D03*
D11*
X73335000Y-23357500D03*
X68255000Y-23357500D03*
X63175000Y-23357500D03*
%TD*%
D12*
%TO.C,H2*%
X108810000Y-19670000D03*
X109293274Y-18503274D03*
X109293274Y-20836726D03*
X110460000Y-18020000D03*
D13*
X110460000Y-19670000D03*
D12*
X110460000Y-21320000D03*
X111626726Y-18503274D03*
X111626726Y-20836726D03*
X112110000Y-19670000D03*
%TD*%
%TO.C,H4*%
X108810000Y-71460000D03*
X109293274Y-70293274D03*
X109293274Y-72626726D03*
X110460000Y-69810000D03*
D13*
X110460000Y-71460000D03*
D12*
X110460000Y-73110000D03*
X111626726Y-70293274D03*
X111626726Y-72626726D03*
X112110000Y-71460000D03*
%TD*%
%TO.C,H1*%
X35040000Y-19670000D03*
X35523274Y-18503274D03*
X35523274Y-20836726D03*
X36690000Y-18020000D03*
D13*
X36690000Y-19670000D03*
D12*
X36690000Y-21320000D03*
X37856726Y-18503274D03*
X37856726Y-20836726D03*
X38340000Y-19670000D03*
%TD*%
D14*
%TO.C,J4*%
X107390000Y-53160000D03*
D11*
X107390000Y-48080000D03*
X107390000Y-43000000D03*
X107390000Y-37920000D03*
X107390000Y-32840000D03*
X107390000Y-27760000D03*
%TD*%
D15*
%TO.C,U1*%
X98435000Y-46302500D03*
X51485000Y-46302500D03*
X98435000Y-70812500D03*
X51485000Y-70812500D03*
D16*
X90475000Y-45882500D03*
D17*
X87935000Y-45882500D03*
X85395000Y-45882500D03*
X82855000Y-45882500D03*
X80315000Y-45882500D03*
X77775000Y-45882500D03*
X75235000Y-45882500D03*
X72695000Y-45882500D03*
X70155000Y-45882500D03*
X67615000Y-45882500D03*
X65075000Y-45882500D03*
X62535000Y-45882500D03*
X59995000Y-45882500D03*
X57455000Y-45882500D03*
X54915000Y-45882500D03*
X54915000Y-71282500D03*
X57455000Y-71282500D03*
X59995000Y-71282500D03*
X62535000Y-71282500D03*
X65075000Y-71282500D03*
X67615000Y-71282500D03*
X70155000Y-71282500D03*
X72695000Y-71282500D03*
X75235000Y-71282500D03*
X77775000Y-71282500D03*
X80315000Y-71282500D03*
X82855000Y-71282500D03*
X85395000Y-71282500D03*
X87935000Y-71282500D03*
X90475000Y-71282500D03*
%TD*%
D18*
%TO.C,J3*%
X40520000Y-37860000D03*
D11*
X40520000Y-42940000D03*
X40520000Y-48020000D03*
X40520000Y-53100000D03*
X40520000Y-58180000D03*
X40520000Y-63260000D03*
%TD*%
D12*
%TO.C,H3*%
X35040000Y-71460000D03*
X35523274Y-70293274D03*
X35523274Y-72626726D03*
X36690000Y-69810000D03*
D13*
X36690000Y-71460000D03*
D12*
X36690000Y-73110000D03*
X37856726Y-70293274D03*
X37856726Y-72626726D03*
X38340000Y-71460000D03*
%TD*%
M02*
