%TF.GenerationSoftware,KiCad,Pcbnew,9.0.6*%
%TF.CreationDate,2026-02-01T16:52:32+05:30*%
%TF.ProjectId,PC_and_Light_Controller,50435f61-6e64-45f4-9c69-6768745f436f,rev?*%
%TF.SameCoordinates,Original*%
%TF.FileFunction,Copper,L1,Top*%
%TF.FilePolarity,Positive*%
%FSLAX46Y46*%
G04 Gerber Fmt 4.6, Leading zero omitted, Abs format (unit mm)*
G04 Created by KiCad (PCBNEW 9.0.6) date 2026-02-01 16:52:32*
%MOMM*%
%LPD*%
G01*
G04 APERTURE LIST*
G04 Aperture macros list*
%AMRoundRect*
0 Rectangle with rounded corners*
0 $1 Rounding radius*
0 $2 $3 $4 $5 $6 $7 $8 $9 X,Y pos of 4 corners*
0 Add a 4 corners polygon primitive as box body*
4,1,4,$2,$3,$4,$5,$6,$7,$8,$9,$2,$3,0*
0 Add four circle primitives for the rounded corners*
1,1,$1+$1,$2,$3*
1,1,$1+$1,$4,$5*
1,1,$1+$1,$6,$7*
1,1,$1+$1,$8,$9*
0 Add four rect primitives between the rounded corners*
20,1,$1+$1,$2,$3,$4,$5,0*
20,1,$1+$1,$4,$5,$6,$7,0*
20,1,$1+$1,$6,$7,$8,$9,0*
20,1,$1+$1,$8,$9,$2,$3,0*%
G04 Aperture macros list end*
%TA.AperFunction,SMDPad,CuDef*%
%ADD10RoundRect,0.200000X-0.275000X0.200000X-0.275000X-0.200000X0.275000X-0.200000X0.275000X0.200000X0*%
%TD*%
%TA.AperFunction,SMDPad,CuDef*%
%ADD11RoundRect,0.225000X-0.250000X0.225000X-0.250000X-0.225000X0.250000X-0.225000X0.250000X0.225000X0*%
%TD*%
%TA.AperFunction,SMDPad,CuDef*%
%ADD12RoundRect,0.200000X0.275000X-0.200000X0.275000X0.200000X-0.275000X0.200000X-0.275000X-0.200000X0*%
%TD*%
%TA.AperFunction,SMDPad,CuDef*%
%ADD13R,0.787400X0.228600*%
%TD*%
%TA.AperFunction,SMDPad,CuDef*%
%ADD14R,0.228600X0.787400*%
%TD*%
%TA.AperFunction,SMDPad,CuDef*%
%ADD15R,2.794000X1.549400*%
%TD*%
%TA.AperFunction,SMDPad,CuDef*%
%ADD16R,2.794000X0.939800*%
%TD*%
%TA.AperFunction,ComponentPad*%
%ADD17RoundRect,0.250000X1.050000X1.050000X-1.050000X1.050000X-1.050000X-1.050000X1.050000X-1.050000X0*%
%TD*%
%TA.AperFunction,ComponentPad*%
%ADD18C,2.600000*%
%TD*%
%TA.AperFunction,SMDPad,CuDef*%
%ADD19R,1.600000X3.500000*%
%TD*%
%TA.AperFunction,SMDPad,CuDef*%
%ADD20RoundRect,0.218750X-0.256250X0.218750X-0.256250X-0.218750X0.256250X-0.218750X0.256250X0.218750X0*%
%TD*%
%TA.AperFunction,ComponentPad*%
%ADD21RoundRect,0.250000X1.050000X-1.050000X1.050000X1.050000X-1.050000X1.050000X-1.050000X-1.050000X0*%
%TD*%
%TA.AperFunction,ComponentPad*%
%ADD22R,2.000000X2.000000*%
%TD*%
%TA.AperFunction,ComponentPad*%
%ADD23C,2.000000*%
%TD*%
%TA.AperFunction,ComponentPad*%
%ADD24RoundRect,0.250000X-1.050000X1.050000X-1.050000X-1.050000X1.050000X-1.050000X1.050000X1.050000X0*%
%TD*%
%TA.AperFunction,ViaPad*%
%ADD25C,0.600000*%
%TD*%
%TA.AperFunction,Conductor*%
%ADD26C,0.200000*%
%TD*%
%TA.AperFunction,Conductor*%
%ADD27C,0.300000*%
%TD*%
G04 APERTURE END LIST*
D10*
%TO.P,R2,1*%
%TO.N,/LED1_ILIM*%
X55900000Y-37872500D03*
%TO.P,R2,2*%
%TO.N,GND*%
X55900000Y-39522500D03*
%TD*%
D11*
%TO.P,C3,1*%
%TO.N,+5V*%
X67400000Y-33672500D03*
%TO.P,C3,2*%
%TO.N,GND*%
X67400000Y-35222500D03*
%TD*%
D10*
%TO.P,R13,1*%
%TO.N,Net-(U1-TX0)*%
X47960000Y-50585000D03*
%TO.P,R13,2*%
%TO.N,/Motor_PWM*%
X47960000Y-52235000D03*
%TD*%
D12*
%TO.P,R9,1*%
%TO.N,Net-(D3-A)*%
X89400000Y-37337500D03*
%TO.P,R9,2*%
%TO.N,/LED3_PG*%
X89400000Y-35687500D03*
%TD*%
%TO.P,R6,1*%
%TO.N,/LED_2_CTRL*%
X67400000Y-38522500D03*
%TO.P,R6,2*%
%TO.N,/LED_2_EN*%
X67400000Y-36872500D03*
%TD*%
D13*
%TO.P,U3,1,IN*%
%TO.N,+5V*%
X69194200Y-32947500D03*
%TO.P,U3,2,IN*%
X69194200Y-33447499D03*
%TO.P,U3,3,IN*%
X69194200Y-33947500D03*
%TO.P,U3,4,GND*%
%TO.N,GND*%
X69194200Y-34447500D03*
%TO.P,U3,5,GND*%
X69194200Y-34947501D03*
%TO.P,U3,6,EN/UVLO*%
%TO.N,/LED_2_EN*%
X69194200Y-35447500D03*
D14*
%TO.P,U3,7,ITIMER*%
%TO.N,unconnected-(U3-ITIMER-Pad7)*%
X69900000Y-36153300D03*
%TO.P,U3,8,ILIM*%
%TO.N,/LED2_ILIM*%
X70399999Y-36153300D03*
%TO.P,U3,9,IMON*%
%TO.N,/LED2_IMON*%
X70900000Y-36153300D03*
%TO.P,U3,10,RETRY_DLY*%
%TO.N,GND*%
X71400000Y-36153300D03*
%TO.P,U3,11,NRETRY*%
X71900001Y-36153300D03*
%TO.P,U3,12,LDSTRT*%
X72400000Y-36153300D03*
D13*
%TO.P,U3,13,PG*%
%TO.N,/LED2_PG*%
X73105800Y-35447500D03*
%TO.P,U3,14,GND*%
%TO.N,GND*%
X73105800Y-34947501D03*
%TO.P,U3,15,DVDT*%
%TO.N,unconnected-(U3-DVDT-Pad15)*%
X73105800Y-34447500D03*
%TO.P,U3,16,IN*%
%TO.N,+5V*%
X73105800Y-33947500D03*
%TO.P,U3,17,OUT*%
%TO.N,/LED_2_VOUT*%
X73105800Y-33447499D03*
%TO.P,U3,18,OUT*%
X73105800Y-32947500D03*
D14*
%TO.P,U3,19,OUT*%
X72400000Y-32241700D03*
%TO.P,U3,20,OUT*%
X71900001Y-32241700D03*
%TO.P,U3,21,OUT*%
X71400000Y-32241700D03*
%TO.P,U3,22,OUT*%
X70900000Y-32241700D03*
%TO.P,U3,23,OUT*%
X70399999Y-32241700D03*
%TO.P,U3,24,OUT*%
X69900000Y-32241700D03*
D15*
%TO.P,U3,25,EPAD*%
%TO.N,+5V*%
X71150000Y-33572500D03*
D16*
%TO.P,U3,26,EPAD*%
%TO.N,GND*%
X71150000Y-35147500D03*
%TD*%
D10*
%TO.P,R3,1*%
%TO.N,/LED1_IMON*%
X58150000Y-37872500D03*
%TO.P,R3,2*%
%TO.N,GND*%
X58150000Y-39522500D03*
%TD*%
D17*
%TO.P,J1,1,Pin_1*%
%TO.N,GND*%
X78415000Y-23357500D03*
D18*
%TO.P,J1,2,Pin_2*%
X73335000Y-23357500D03*
%TO.P,J1,3,Pin_3*%
%TO.N,+5V*%
X68255000Y-23357500D03*
%TO.P,J1,4,Pin_4*%
X63175000Y-23357500D03*
%TD*%
D10*
%TO.P,R7,1*%
%TO.N,/LED2_ILIM*%
X69650000Y-37872500D03*
%TO.P,R7,2*%
%TO.N,GND*%
X69650000Y-39522500D03*
%TD*%
D11*
%TO.P,C4,1*%
%TO.N,+5V*%
X81900000Y-33710000D03*
%TO.P,C4,2*%
%TO.N,GND*%
X81900000Y-35260000D03*
%TD*%
D12*
%TO.P,R10,1*%
%TO.N,/LED_3_CTRL*%
X81900000Y-38560000D03*
%TO.P,R10,2*%
%TO.N,/LED_3_EN*%
X81900000Y-36910000D03*
%TD*%
D10*
%TO.P,R11,1*%
%TO.N,/LED3_ILIM*%
X84150000Y-37910000D03*
%TO.P,R11,2*%
%TO.N,GND*%
X84150000Y-39560000D03*
%TD*%
D19*
%TO.P,C2,1*%
%TO.N,+5V*%
X47385000Y-32157500D03*
%TO.P,C2,2*%
%TO.N,GND*%
X47385000Y-37757500D03*
%TD*%
D12*
%TO.P,R1,1*%
%TO.N,/LED_1_CTRL*%
X53650000Y-38522500D03*
%TO.P,R1,2*%
%TO.N,/LED_1_EN*%
X53650000Y-36872500D03*
%TD*%
D20*
%TO.P,D3,1,K*%
%TO.N,GND*%
X91150000Y-35725000D03*
%TO.P,D3,2,A*%
%TO.N,Net-(D3-A)*%
X91150000Y-37300000D03*
%TD*%
D12*
%TO.P,R5,1*%
%TO.N,Net-(D2-A)*%
X74725000Y-37272500D03*
%TO.P,R5,2*%
%TO.N,/LED2_PG*%
X74725000Y-35622500D03*
%TD*%
D19*
%TO.P,C5,1*%
%TO.N,+5V*%
X39815000Y-32157500D03*
%TO.P,C5,2*%
%TO.N,GND*%
X39815000Y-37757500D03*
%TD*%
D21*
%TO.P,J4,1,Pin_1*%
%TO.N,/LED_1_VOUT*%
X107160000Y-67010000D03*
D18*
%TO.P,J4,2,Pin_2*%
%TO.N,GND*%
X107160000Y-61930000D03*
%TO.P,J4,3,Pin_3*%
%TO.N,/LED_2_VOUT*%
X107160000Y-56850000D03*
%TO.P,J4,4,Pin_4*%
%TO.N,GND*%
X107160000Y-51770000D03*
%TO.P,J4,5,Pin_5*%
%TO.N,/LED_3_VOUT*%
X107160000Y-46690000D03*
%TO.P,J4,6,Pin_6*%
%TO.N,GND*%
X107160000Y-41610000D03*
%TD*%
D20*
%TO.P,D2,1,K*%
%TO.N,GND*%
X76400000Y-35660000D03*
%TO.P,D2,2,A*%
%TO.N,Net-(D2-A)*%
X76400000Y-37235000D03*
%TD*%
D13*
%TO.P,U2,1,IN*%
%TO.N,+5V*%
X55444200Y-32947500D03*
%TO.P,U2,2,IN*%
X55444200Y-33447499D03*
%TO.P,U2,3,IN*%
X55444200Y-33947500D03*
%TO.P,U2,4,GND*%
%TO.N,GND*%
X55444200Y-34447500D03*
%TO.P,U2,5,GND*%
X55444200Y-34947501D03*
%TO.P,U2,6,EN/UVLO*%
%TO.N,/LED_1_EN*%
X55444200Y-35447500D03*
D14*
%TO.P,U2,7,ITIMER*%
%TO.N,unconnected-(U2-ITIMER-Pad7)*%
X56150000Y-36153300D03*
%TO.P,U2,8,ILIM*%
%TO.N,/LED1_ILIM*%
X56649999Y-36153300D03*
%TO.P,U2,9,IMON*%
%TO.N,/LED1_IMON*%
X57150000Y-36153300D03*
%TO.P,U2,10,RETRY_DLY*%
%TO.N,GND*%
X57650000Y-36153300D03*
%TO.P,U2,11,NRETRY*%
X58150001Y-36153300D03*
%TO.P,U2,12,LDSTRT*%
X58650000Y-36153300D03*
D13*
%TO.P,U2,13,PG*%
%TO.N,/LED1_PG*%
X59355800Y-35447500D03*
%TO.P,U2,14,GND*%
%TO.N,GND*%
X59355800Y-34947501D03*
%TO.P,U2,15,DVDT*%
%TO.N,unconnected-(U2-DVDT-Pad15)*%
X59355800Y-34447500D03*
%TO.P,U2,16,IN*%
%TO.N,+5V*%
X59355800Y-33947500D03*
%TO.P,U2,17,OUT*%
%TO.N,/LED_1_VOUT*%
X59355800Y-33447499D03*
%TO.P,U2,18,OUT*%
X59355800Y-32947500D03*
D14*
%TO.P,U2,19,OUT*%
X58650000Y-32241700D03*
%TO.P,U2,20,OUT*%
X58150001Y-32241700D03*
%TO.P,U2,21,OUT*%
X57650000Y-32241700D03*
%TO.P,U2,22,OUT*%
X57150000Y-32241700D03*
%TO.P,U2,23,OUT*%
X56649999Y-32241700D03*
%TO.P,U2,24,OUT*%
X56150000Y-32241700D03*
D15*
%TO.P,U2,25,EPAD*%
%TO.N,+5V*%
X57400000Y-33572500D03*
D16*
%TO.P,U2,26,EPAD*%
%TO.N,GND*%
X57400000Y-35147500D03*
%TD*%
D10*
%TO.P,R12,1*%
%TO.N,/LED3_IMON*%
X86400000Y-37910000D03*
%TO.P,R12,2*%
%TO.N,GND*%
X86400000Y-39560000D03*
%TD*%
D22*
%TO.P,U1,1,3V3*%
%TO.N,unconnected-(U1-3V3-Pad1)*%
X90475000Y-45882500D03*
D23*
%TO.P,U1,2,GND*%
%TO.N,GND*%
X87935000Y-45882500D03*
%TO.P,U1,3,D15*%
%TO.N,unconnected-(U1-D15-Pad3)*%
X85395000Y-45882500D03*
%TO.P,U1,4,D2*%
%TO.N,unconnected-(U1-D2-Pad4)*%
X82855000Y-45882500D03*
%TO.P,U1,5,D4*%
%TO.N,unconnected-(U1-D4-Pad5)*%
X80315000Y-45882500D03*
%TO.P,U1,6,RX2*%
%TO.N,unconnected-(U1-RX2-Pad6)*%
X77775000Y-45882500D03*
%TO.P,U1,7,TX2*%
%TO.N,unconnected-(U1-TX2-Pad7)*%
X75235000Y-45882500D03*
%TO.P,U1,8,D5*%
%TO.N,unconnected-(U1-D5-Pad8)*%
X72695000Y-45882500D03*
%TO.P,U1,9,D18*%
%TO.N,unconnected-(U1-D18-Pad9)*%
X70155000Y-45882500D03*
%TO.P,U1,10,D19*%
%TO.N,unconnected-(U1-D19-Pad10)*%
X67615000Y-45882500D03*
%TO.P,U1,11,D21*%
%TO.N,unconnected-(U1-D21-Pad11)*%
X65075000Y-45882500D03*
%TO.P,U1,12,RX0*%
%TO.N,unconnected-(U1-RX0-Pad12)*%
X62535000Y-45882500D03*
%TO.P,U1,13,TX0*%
%TO.N,Net-(U1-TX0)*%
X59995000Y-45882500D03*
%TO.P,U1,14,D22*%
%TO.N,unconnected-(U1-D22-Pad14)*%
X57455000Y-45882500D03*
%TO.P,U1,15,D23*%
%TO.N,unconnected-(U1-D23-Pad15)*%
X54915000Y-45882500D03*
%TO.P,U1,16,EN*%
%TO.N,unconnected-(U1-EN-Pad16)*%
X54915000Y-71282500D03*
%TO.P,U1,17,VP*%
%TO.N,unconnected-(U1-VP-Pad17)*%
X57455000Y-71282500D03*
%TO.P,U1,18,VN*%
%TO.N,unconnected-(U1-VN-Pad18)*%
X59995000Y-71282500D03*
%TO.P,U1,19,D34*%
%TO.N,unconnected-(U1-D34-Pad19)*%
X62535000Y-71282500D03*
%TO.P,U1,20,D35*%
%TO.N,unconnected-(U1-D35-Pad20)*%
X65075000Y-71282500D03*
%TO.P,U1,21,D32*%
%TO.N,unconnected-(U1-D32-Pad21)*%
X67615000Y-71282500D03*
%TO.P,U1,22,D33*%
%TO.N,unconnected-(U1-D33-Pad22)*%
X70155000Y-71282500D03*
%TO.P,U1,23,D25*%
%TO.N,/LED_1_CTRL*%
X72695000Y-71282500D03*
%TO.P,U1,24,D26*%
%TO.N,/LED_2_CTRL*%
X75235000Y-71282500D03*
%TO.P,U1,25,D27*%
%TO.N,/LED_3_CTRL*%
X77775000Y-71282500D03*
%TO.P,U1,26,D14*%
%TO.N,unconnected-(U1-D14-Pad26)*%
X80315000Y-71282500D03*
%TO.P,U1,27,D12*%
%TO.N,unconnected-(U1-D12-Pad27)*%
X82855000Y-71282500D03*
%TO.P,U1,28,D13*%
%TO.N,unconnected-(U1-D13-Pad28)*%
X85395000Y-71282500D03*
%TO.P,U1,29,GND*%
%TO.N,GND*%
X87935000Y-71282500D03*
%TO.P,U1,30,VIN*%
%TO.N,+5V*%
X90475000Y-71282500D03*
%TD*%
D11*
%TO.P,C1,1*%
%TO.N,+5V*%
X53650000Y-33672500D03*
%TO.P,C1,2*%
%TO.N,GND*%
X53650000Y-35222500D03*
%TD*%
D24*
%TO.P,J3,1,Pin_1*%
%TO.N,+5V*%
X40940000Y-43560000D03*
D18*
%TO.P,J3,2,Pin_2*%
X40940000Y-48640000D03*
%TO.P,J3,3,Pin_3*%
%TO.N,/Motor_PWM*%
X40940000Y-53720000D03*
%TO.P,J3,4,Pin_4*%
%TO.N,unconnected-(J3-Pin_4-Pad4)*%
X40940000Y-58800000D03*
%TO.P,J3,5,Pin_5*%
%TO.N,GND*%
X40940000Y-63880000D03*
%TO.P,J3,6,Pin_6*%
X40940000Y-68960000D03*
%TD*%
D13*
%TO.P,U4,1,IN*%
%TO.N,+5V*%
X83694200Y-32897500D03*
%TO.P,U4,2,IN*%
X83694200Y-33397499D03*
%TO.P,U4,3,IN*%
X83694200Y-33897500D03*
%TO.P,U4,4,GND*%
%TO.N,GND*%
X83694200Y-34397500D03*
%TO.P,U4,5,GND*%
X83694200Y-34897501D03*
%TO.P,U4,6,EN/UVLO*%
%TO.N,/LED_3_EN*%
X83694200Y-35397500D03*
D14*
%TO.P,U4,7,ITIMER*%
%TO.N,unconnected-(U4-ITIMER-Pad7)*%
X84400000Y-36103300D03*
%TO.P,U4,8,ILIM*%
%TO.N,/LED3_ILIM*%
X84899999Y-36103300D03*
%TO.P,U4,9,IMON*%
%TO.N,/LED3_IMON*%
X85400000Y-36103300D03*
%TO.P,U4,10,RETRY_DLY*%
%TO.N,GND*%
X85900000Y-36103300D03*
%TO.P,U4,11,NRETRY*%
X86400001Y-36103300D03*
%TO.P,U4,12,LDSTRT*%
X86900000Y-36103300D03*
D13*
%TO.P,U4,13,PG*%
%TO.N,/LED3_PG*%
X87605800Y-35397500D03*
%TO.P,U4,14,GND*%
%TO.N,GND*%
X87605800Y-34897501D03*
%TO.P,U4,15,DVDT*%
%TO.N,unconnected-(U4-DVDT-Pad15)*%
X87605800Y-34397500D03*
%TO.P,U4,16,IN*%
%TO.N,+5V*%
X87605800Y-33897500D03*
%TO.P,U4,17,OUT*%
%TO.N,/LED_3_VOUT*%
X87605800Y-33397499D03*
%TO.P,U4,18,OUT*%
X87605800Y-32897500D03*
D14*
%TO.P,U4,19,OUT*%
X86900000Y-32191700D03*
%TO.P,U4,20,OUT*%
X86400001Y-32191700D03*
%TO.P,U4,21,OUT*%
X85900000Y-32191700D03*
%TO.P,U4,22,OUT*%
X85400000Y-32191700D03*
%TO.P,U4,23,OUT*%
X84899999Y-32191700D03*
%TO.P,U4,24,OUT*%
X84400000Y-32191700D03*
D15*
%TO.P,U4,25,EPAD*%
%TO.N,+5V*%
X85650000Y-33522500D03*
D16*
%TO.P,U4,26,EPAD*%
%TO.N,GND*%
X85650000Y-35097500D03*
%TD*%
D12*
%TO.P,R4,1*%
%TO.N,Net-(D1-A)*%
X61150000Y-37522500D03*
%TO.P,R4,2*%
%TO.N,/LED1_PG*%
X61150000Y-35872500D03*
%TD*%
D20*
%TO.P,D1,1,K*%
%TO.N,GND*%
X62890000Y-35925000D03*
%TO.P,D1,2,A*%
%TO.N,Net-(D1-A)*%
X62890000Y-37500000D03*
%TD*%
D10*
%TO.P,R8,1*%
%TO.N,/LED2_IMON*%
X71900000Y-37872500D03*
%TO.P,R8,2*%
%TO.N,GND*%
X71900000Y-39522500D03*
%TD*%
D25*
%TO.N,GND*%
X43190000Y-29430000D03*
%TO.N,+5V*%
X87050000Y-24850000D03*
X90610000Y-33900000D03*
%TO.N,GND*%
X64975000Y-36627500D03*
X71900000Y-41727500D03*
X93805000Y-35727500D03*
X50405000Y-39007500D03*
X78405000Y-36527500D03*
X54225000Y-39657500D03*
%TO.N,/LED_3_VOUT*%
X102840000Y-34460000D03*
%TO.N,/LED_2_VOUT*%
X75890000Y-39100000D03*
X74130000Y-33222500D03*
%TO.N,/LED_1_VOUT*%
X66140000Y-43040000D03*
X62400000Y-39940000D03*
X61030000Y-30500000D03*
%TO.N,/LED_1_CTRL*%
X48285000Y-47310000D03*
X48285000Y-62785000D03*
%TO.N,/LED_2_CTRL*%
X48885000Y-61785000D03*
X48885000Y-45560000D03*
%TO.N,/LED_3_CTRL*%
X82460000Y-40235000D03*
X88910000Y-40785000D03*
X94385000Y-41610000D03*
X94435000Y-54560000D03*
%TD*%
D26*
%TO.N,+5V*%
X83694200Y-32897500D02*
X83694200Y-33397499D01*
X85025000Y-32897500D02*
X85650000Y-33522500D01*
D27*
X35260000Y-69860000D02*
X39160000Y-73760000D01*
D26*
X57260000Y-33432500D02*
X55459199Y-33432500D01*
X53895000Y-32947500D02*
X53650000Y-33192500D01*
D27*
X35755000Y-48640000D02*
X35260000Y-49135000D01*
D26*
X68240000Y-33672500D02*
X68515000Y-33947500D01*
X83694200Y-33397499D02*
X85524999Y-33397499D01*
X53875001Y-33447499D02*
X53650000Y-33672500D01*
D27*
X36185000Y-32157500D02*
X39815000Y-32157500D01*
X40940000Y-48640000D02*
X35722500Y-48640000D01*
X68252500Y-25937500D02*
X68255000Y-25940000D01*
D26*
X57775000Y-33947500D02*
X57400000Y-33572500D01*
D27*
X67400000Y-32947500D02*
X67400000Y-31562500D01*
X34702500Y-47620000D02*
X34702500Y-43560000D01*
X82445000Y-21907500D02*
X86427500Y-21907500D01*
D26*
X69194200Y-33947500D02*
X69194200Y-33447499D01*
X90607500Y-33897500D02*
X87605800Y-33897500D01*
D27*
X81900000Y-33710000D02*
X81900000Y-32897500D01*
X86427500Y-21907500D02*
X87050000Y-22530000D01*
D26*
X68515000Y-33947500D02*
X69194200Y-33947500D01*
D27*
X41015000Y-27337500D02*
X47385000Y-27337500D01*
D26*
X67400000Y-33672500D02*
X68240000Y-33672500D01*
X71525000Y-33947500D02*
X71150000Y-33572500D01*
X55444200Y-32947500D02*
X53895000Y-32947500D01*
D27*
X81900000Y-31852500D02*
X82445000Y-31307500D01*
X47385000Y-27337500D02*
X48785000Y-25937500D01*
D26*
X85275000Y-33897500D02*
X85650000Y-33522500D01*
D27*
X39815000Y-32157500D02*
X47385000Y-32157500D01*
D26*
X71150000Y-33572500D02*
X71150000Y-33182500D01*
D27*
X35722500Y-48640000D02*
X34702500Y-47620000D01*
D26*
X82777500Y-33710000D02*
X82965000Y-33897500D01*
X87605800Y-33897500D02*
X86025000Y-33897500D01*
X71150000Y-33572500D02*
X70250000Y-33572500D01*
X71150000Y-33182500D02*
X70915000Y-32947500D01*
X69194200Y-33447499D02*
X69194200Y-32947500D01*
D27*
X68255000Y-30707500D02*
X68255000Y-25940000D01*
X90475000Y-73295000D02*
X90475000Y-71282500D01*
D26*
X53650000Y-33192500D02*
X53650000Y-33672500D01*
X55444200Y-33947500D02*
X55444200Y-33447499D01*
X73105800Y-33947500D02*
X71525000Y-33947500D01*
X70510000Y-33572500D02*
X70135000Y-33947500D01*
X55444200Y-33447499D02*
X55444200Y-32947500D01*
D27*
X35260000Y-49135000D02*
X35260000Y-69860000D01*
X47385000Y-32157500D02*
X50425000Y-32157500D01*
D26*
X67400000Y-33132500D02*
X67400000Y-33672500D01*
D27*
X81900000Y-32897500D02*
X81900000Y-31852500D01*
X63175000Y-25937500D02*
X68252500Y-25937500D01*
D26*
X70135000Y-33947500D02*
X69194200Y-33947500D01*
D27*
X47385000Y-32157500D02*
X47385000Y-27337500D01*
X63175000Y-23357500D02*
X63175000Y-25937500D01*
D26*
X85524999Y-33397499D02*
X85650000Y-33522500D01*
X83694200Y-33897500D02*
X85275000Y-33897500D01*
D27*
X71425000Y-20187500D02*
X68255000Y-23357500D01*
X40940000Y-43560000D02*
X34702500Y-43560000D01*
D26*
X83694200Y-33397499D02*
X83090001Y-33397499D01*
D27*
X80725000Y-20187500D02*
X71425000Y-20187500D01*
X39815000Y-28537500D02*
X41015000Y-27337500D01*
X39160000Y-73760000D02*
X90010000Y-73760000D01*
D26*
X55444200Y-33947500D02*
X53925000Y-33947500D01*
X69194200Y-33447499D02*
X67625001Y-33447499D01*
X83694200Y-33397499D02*
X83694200Y-33897500D01*
X81900000Y-33710000D02*
X81900000Y-33052500D01*
X70250000Y-33572500D02*
X70124999Y-33447499D01*
X90610000Y-33900000D02*
X90607500Y-33897500D01*
D27*
X68255000Y-25940000D02*
X68255000Y-23357500D01*
D26*
X81900000Y-33710000D02*
X82777500Y-33710000D01*
D27*
X39815000Y-32157500D02*
X39815000Y-28537500D01*
X63175000Y-23357500D02*
X68255000Y-23357500D01*
X34687500Y-44857500D02*
X34687500Y-33655000D01*
D26*
X70915000Y-32947500D02*
X69194200Y-32947500D01*
X71150000Y-33572500D02*
X70510000Y-33572500D01*
D27*
X82445000Y-21907500D02*
X82445000Y-31307500D01*
D26*
X55459199Y-33432500D02*
X55444200Y-33447499D01*
X69194200Y-32947500D02*
X67400000Y-32947500D01*
X67625001Y-33447499D02*
X67400000Y-33672500D01*
X83694200Y-32897500D02*
X81900000Y-32897500D01*
D27*
X67400000Y-32947500D02*
X67400000Y-33672500D01*
X34687500Y-33655000D02*
X36185000Y-32157500D01*
X50425000Y-32157500D02*
X51940000Y-33672500D01*
D26*
X70124999Y-33447499D02*
X69194200Y-33447499D01*
D27*
X40940000Y-48640000D02*
X35755000Y-48640000D01*
D26*
X86025000Y-33897500D02*
X85650000Y-33522500D01*
X57025000Y-33947500D02*
X57400000Y-33572500D01*
X55444200Y-33447499D02*
X53875001Y-33447499D01*
D27*
X51940000Y-33672500D02*
X53650000Y-33672500D01*
D26*
X83694200Y-32897500D02*
X85025000Y-32897500D01*
X57400000Y-33572500D02*
X57260000Y-33432500D01*
X53925000Y-33947500D02*
X53650000Y-33672500D01*
D27*
X48785000Y-25937500D02*
X63175000Y-25937500D01*
X40940000Y-48640000D02*
X40940000Y-43560000D01*
D26*
X55444200Y-32947500D02*
X56775000Y-32947500D01*
X82965000Y-33897500D02*
X83694200Y-33897500D01*
D27*
X82445000Y-21907500D02*
X80725000Y-20187500D01*
D26*
X59355800Y-33947500D02*
X57775000Y-33947500D01*
X83090001Y-33397499D02*
X82777500Y-33710000D01*
X55444200Y-33947500D02*
X57025000Y-33947500D01*
D27*
X90010000Y-73760000D02*
X90475000Y-73295000D01*
X87050000Y-22530000D02*
X87050000Y-24850000D01*
X67400000Y-31562500D02*
X68255000Y-30707500D01*
D26*
X56775000Y-32947500D02*
X57400000Y-33572500D01*
D27*
%TO.N,GND*%
X110460000Y-42610000D02*
X110460000Y-50470000D01*
X66260000Y-35222500D02*
X67400000Y-35222500D01*
D26*
X53924999Y-34947501D02*
X53650000Y-35222500D01*
X69194200Y-34447500D02*
X67625000Y-34447500D01*
D27*
X44550000Y-40300000D02*
X40500000Y-40300000D01*
D26*
X57925000Y-35147500D02*
X58180000Y-35402500D01*
X55444200Y-34947501D02*
X55444200Y-34447500D01*
D27*
X73335000Y-23357500D02*
X76145000Y-26167500D01*
D26*
X57400000Y-35147500D02*
X57925000Y-35147500D01*
D27*
X46862500Y-42612500D02*
X46847500Y-42597500D01*
X107700000Y-54320000D02*
X109770000Y-54320000D01*
D26*
X71900000Y-39522500D02*
X71900000Y-41727500D01*
D27*
X46862500Y-48550000D02*
X46862500Y-42612500D01*
X46847500Y-42597500D02*
X44550000Y-40300000D01*
D26*
X82120000Y-34522500D02*
X81900000Y-34742500D01*
D27*
X109770000Y-54320000D02*
X109800000Y-54290000D01*
X107160000Y-51770000D02*
X107160000Y-53780000D01*
D26*
X83694200Y-34397500D02*
X83894900Y-34598200D01*
D27*
X54225000Y-39657500D02*
X54935000Y-39657500D01*
D26*
X83694200Y-34397500D02*
X83015000Y-34397500D01*
D27*
X103290000Y-37740000D02*
X107160000Y-41610000D01*
D26*
X85900000Y-35347500D02*
X85650000Y-35097500D01*
D27*
X78405000Y-35637500D02*
X78415000Y-35627500D01*
X37982500Y-68960000D02*
X37702500Y-68680000D01*
X79872500Y-35660000D02*
X80272500Y-35260000D01*
D26*
X58650000Y-36153300D02*
X58150001Y-36153300D01*
X71150000Y-35147500D02*
X72125000Y-35147500D01*
D27*
X109800000Y-54290000D02*
X110310000Y-54800000D01*
D26*
X85900000Y-36103300D02*
X86400001Y-36103300D01*
X85150700Y-34598200D02*
X85650000Y-35097500D01*
X58150001Y-35432499D02*
X58150001Y-36153300D01*
X71150000Y-35147500D02*
X71635000Y-35147500D01*
X53650000Y-34672500D02*
X53650000Y-35222500D01*
D27*
X78405000Y-35660000D02*
X78405000Y-35637500D01*
X38612500Y-50760000D02*
X44652500Y-50760000D01*
D26*
X71900000Y-35412500D02*
X71900001Y-36153300D01*
D27*
X37702500Y-68680000D02*
X37702500Y-63880000D01*
X37682500Y-51690000D02*
X38612500Y-50760000D01*
D26*
X58150001Y-36153300D02*
X57650000Y-36153300D01*
D27*
X110460000Y-50470000D02*
X109160000Y-51770000D01*
D26*
X71150000Y-35147500D02*
X70950001Y-34947501D01*
D27*
X100260000Y-37740000D02*
X103290000Y-37740000D01*
D26*
X73105800Y-34947501D02*
X71349999Y-34947501D01*
D27*
X91152500Y-35727500D02*
X91150000Y-35725000D01*
X54935000Y-39657500D02*
X55070000Y-39522500D01*
X49155000Y-37757500D02*
X50405000Y-39007500D01*
D26*
X85900000Y-36103300D02*
X85900000Y-35347500D01*
D27*
X93805000Y-35727500D02*
X91152500Y-35727500D01*
X51770000Y-35222500D02*
X53650000Y-35222500D01*
D26*
X71400000Y-36153300D02*
X71900001Y-36153300D01*
D27*
X109160000Y-51770000D02*
X107160000Y-51770000D01*
D26*
X57200001Y-34947501D02*
X57400000Y-35147500D01*
D27*
X93805000Y-35727500D02*
X98247500Y-35727500D01*
D26*
X57650000Y-36153300D02*
X57650000Y-35397500D01*
X71265000Y-35147500D02*
X71400000Y-35282500D01*
X59355800Y-34947501D02*
X58535001Y-34947501D01*
X58535001Y-34947501D02*
X58510000Y-34922500D01*
X85450001Y-34897501D02*
X85650000Y-35097500D01*
D27*
X109150000Y-61930000D02*
X107160000Y-61930000D01*
D26*
X84150000Y-39560000D02*
X86400000Y-39560000D01*
D27*
X64975000Y-36627500D02*
X64975000Y-35925000D01*
X47385000Y-37757500D02*
X47385000Y-42060000D01*
X78415000Y-23357500D02*
X78415000Y-35627500D01*
D26*
X58180000Y-35402500D02*
X58150001Y-35432499D01*
X86400000Y-39560000D02*
X93130000Y-39560000D01*
X83694200Y-34897501D02*
X83694200Y-34397500D01*
X85849999Y-34897501D02*
X85650000Y-35097500D01*
X69650000Y-39522500D02*
X71900000Y-39522500D01*
X86190000Y-35222500D02*
X86400001Y-35432501D01*
X70950001Y-34947501D02*
X69194200Y-34947501D01*
D27*
X64975000Y-35925000D02*
X62890000Y-35925000D01*
X65557500Y-35925000D02*
X66260000Y-35222500D01*
D26*
X83014999Y-34897501D02*
X82652500Y-35260000D01*
D27*
X47385000Y-37757500D02*
X39815000Y-37757500D01*
X47385000Y-37757500D02*
X49235000Y-37757500D01*
X49235000Y-37757500D02*
X51770000Y-35222500D01*
X110310000Y-54800000D02*
X110310000Y-60770000D01*
X47385000Y-42060000D02*
X46847500Y-42597500D01*
D26*
X58650000Y-35322500D02*
X58650000Y-36153300D01*
D27*
X40940000Y-63880000D02*
X40940000Y-68960000D01*
X76145000Y-32937500D02*
X76400000Y-33192500D01*
X55070000Y-39522500D02*
X55900000Y-39522500D01*
D26*
X85650000Y-35097500D02*
X85775000Y-35222500D01*
X69194200Y-34447500D02*
X69194200Y-34947501D01*
X82652500Y-35260000D02*
X81900000Y-35260000D01*
X67400000Y-34672500D02*
X67400000Y-35222500D01*
D27*
X40940000Y-68960000D02*
X37982500Y-68960000D01*
D26*
X83694200Y-34897501D02*
X85450001Y-34897501D01*
X81900000Y-34742500D02*
X81900000Y-35260000D01*
D27*
X107160000Y-53780000D02*
X107700000Y-54320000D01*
X76400000Y-34147500D02*
X76400000Y-35660000D01*
D26*
X84394200Y-35097500D02*
X85650000Y-35097500D01*
D27*
X76400000Y-33192500D02*
X76400000Y-34147500D01*
D26*
X87605800Y-34897501D02*
X85849999Y-34897501D01*
X58475000Y-35147500D02*
X58650000Y-35322500D01*
X57650000Y-35397500D02*
X57400000Y-35147500D01*
X93130000Y-39560000D02*
X93805000Y-38885000D01*
D27*
X39815000Y-39615000D02*
X39815000Y-37757500D01*
X78405000Y-36527500D02*
X78405000Y-35660000D01*
X98247500Y-35727500D02*
X100260000Y-37740000D01*
D26*
X83894900Y-34598200D02*
X85150700Y-34598200D01*
X73105800Y-34947501D02*
X73854999Y-34947501D01*
X83015000Y-34397500D02*
X82890000Y-34522500D01*
D27*
X47385000Y-37757500D02*
X49155000Y-37757500D01*
D26*
X55444200Y-34947501D02*
X57200001Y-34947501D01*
D27*
X37702500Y-51710000D02*
X37682500Y-51690000D01*
D26*
X71400000Y-35282500D02*
X71400000Y-36153300D01*
X85650000Y-35097500D02*
X86625000Y-35097500D01*
X55444200Y-34447500D02*
X53875000Y-34447500D01*
X55444200Y-34947501D02*
X53924999Y-34947501D01*
X82890000Y-34522500D02*
X82120000Y-34522500D01*
D27*
X44652500Y-50760000D02*
X46862500Y-48550000D01*
D26*
X71635000Y-35147500D02*
X71900000Y-35412500D01*
D27*
X76400000Y-35660000D02*
X78405000Y-35660000D01*
D26*
X53875000Y-34447500D02*
X53650000Y-34672500D01*
X74655000Y-34147500D02*
X76400000Y-34147500D01*
D27*
X78405000Y-35660000D02*
X79872500Y-35660000D01*
X76145000Y-26167500D02*
X76145000Y-32937500D01*
D26*
X71150000Y-35147500D02*
X71265000Y-35147500D01*
X71349999Y-34947501D02*
X71150000Y-35147500D01*
D27*
X109460000Y-41610000D02*
X110460000Y-42610000D01*
D26*
X72125000Y-35147500D02*
X72400000Y-35422500D01*
D27*
X110310000Y-60770000D02*
X109150000Y-61930000D01*
D26*
X85775000Y-35222500D02*
X86190000Y-35222500D01*
X67674999Y-34947501D02*
X67400000Y-35222500D01*
X86400001Y-35432501D02*
X86400001Y-36103300D01*
X86900000Y-35372500D02*
X86900000Y-36103300D01*
D27*
X80272500Y-35260000D02*
X81900000Y-35260000D01*
X107160000Y-41610000D02*
X109460000Y-41610000D01*
X40500000Y-40300000D02*
X39815000Y-39615000D01*
D26*
X57400000Y-35147500D02*
X58475000Y-35147500D01*
X67625000Y-34447500D02*
X67400000Y-34672500D01*
X55900000Y-39522500D02*
X58150000Y-39522500D01*
X86400001Y-36103300D02*
X86900000Y-36103300D01*
X69194200Y-34947501D02*
X67674999Y-34947501D01*
D27*
X37702500Y-63880000D02*
X37702500Y-51710000D01*
D26*
X72400000Y-35422500D02*
X72400000Y-36153300D01*
X93805000Y-38885000D02*
X93805000Y-35727500D01*
X73854999Y-34947501D02*
X74655000Y-34147500D01*
D27*
X64975000Y-35925000D02*
X65557500Y-35925000D01*
D26*
X83694200Y-34897501D02*
X83014999Y-34897501D01*
D27*
X40940000Y-63880000D02*
X37702500Y-63880000D01*
D26*
X71900001Y-36153300D02*
X72400000Y-36153300D01*
D27*
X73335000Y-23357500D02*
X78415000Y-23357500D01*
D26*
X86625000Y-35097500D02*
X86900000Y-35372500D01*
%TO.N,Net-(D1-A)*%
X62867500Y-37522500D02*
X62890000Y-37500000D01*
X61150000Y-37522500D02*
X62867500Y-37522500D01*
%TO.N,Net-(D2-A)*%
X74725000Y-37272500D02*
X76362500Y-37272500D01*
X76362500Y-37272500D02*
X76400000Y-37235000D01*
%TO.N,Net-(D3-A)*%
X89400000Y-37337500D02*
X91112500Y-37337500D01*
X91112500Y-37337500D02*
X91150000Y-37300000D01*
%TO.N,/Motor_PWM*%
X47250000Y-53720000D02*
X40940000Y-53720000D01*
X47960000Y-52235000D02*
X47960000Y-53010000D01*
X47960000Y-53010000D02*
X47250000Y-53720000D01*
D27*
%TO.N,/LED_3_VOUT*%
X85900000Y-32191700D02*
X86400001Y-32191700D01*
X89017500Y-32897500D02*
X87605800Y-32897500D01*
X86900000Y-31010000D02*
X86400000Y-31010000D01*
X86900000Y-32191700D02*
X86900000Y-31010000D01*
X84900000Y-31010000D02*
X84720000Y-31010000D01*
X89340000Y-33220000D02*
X89162501Y-33397499D01*
X84720000Y-31010000D02*
X84400000Y-31330000D01*
X85400000Y-32191700D02*
X85400000Y-31010000D01*
X85400000Y-31010000D02*
X84900000Y-31010000D01*
X84400000Y-31330000D02*
X84400000Y-32191700D01*
X101600000Y-33220000D02*
X89340000Y-33220000D01*
X89340000Y-33220000D02*
X89017500Y-32897500D01*
X89162501Y-33397499D02*
X87605800Y-33397499D01*
X85900000Y-31010000D02*
X85400000Y-31010000D01*
X84899999Y-32191700D02*
X85400000Y-32191700D01*
X89340000Y-31570000D02*
X88780000Y-31010000D01*
X89340000Y-33220000D02*
X89340000Y-31570000D01*
X86400000Y-31010000D02*
X85900000Y-31010000D01*
X85900000Y-32191700D02*
X85900000Y-31010000D01*
X86400001Y-32191700D02*
X86900000Y-32191700D01*
X88780000Y-31010000D02*
X86900000Y-31010000D01*
X84400000Y-32191700D02*
X84899999Y-32191700D01*
X85400000Y-32191700D02*
X85900000Y-32191700D01*
X84899999Y-32191700D02*
X84900000Y-31010000D01*
X102840000Y-34460000D02*
X101600000Y-33220000D01*
X86400001Y-32191700D02*
X86400000Y-31010000D01*
%TO.N,/LED_2_VOUT*%
X79320000Y-42580000D02*
X95310000Y-42580000D01*
D26*
X69900000Y-32241700D02*
X70399999Y-32241700D01*
X70330000Y-30600000D02*
X70900000Y-30600000D01*
X71400000Y-32241700D02*
X71900001Y-32241700D01*
X70900000Y-32241700D02*
X70900000Y-30600000D01*
X73105800Y-33447499D02*
X73712501Y-33447499D01*
X73105800Y-32947500D02*
X73855000Y-32947500D01*
X69900000Y-32241700D02*
X69900000Y-31030000D01*
X74130000Y-30850000D02*
X73880000Y-30600000D01*
X69900000Y-31030000D02*
X70330000Y-30600000D01*
D27*
X107100000Y-56910000D02*
X107160000Y-56850000D01*
X96500000Y-43770000D02*
X96500000Y-55300000D01*
D26*
X72400000Y-32241700D02*
X72829200Y-32241700D01*
X73105800Y-33447499D02*
X73105800Y-32947500D01*
X72400000Y-32241700D02*
X72400000Y-30600000D01*
X72829200Y-32241700D02*
X73105800Y-32518300D01*
X70900000Y-32241700D02*
X71400000Y-32241700D01*
X74130000Y-33222500D02*
X73937500Y-33222500D01*
X74130000Y-33222500D02*
X74130000Y-30850000D01*
D27*
X96500000Y-55300000D02*
X98110000Y-56910000D01*
D26*
X71400000Y-30600000D02*
X71900000Y-30600000D01*
X73880000Y-30600000D02*
X72400000Y-30600000D01*
X70900000Y-30600000D02*
X71400000Y-30600000D01*
X72400000Y-30600000D02*
X72040000Y-30600000D01*
X70399999Y-32241700D02*
X70399999Y-30669999D01*
X73937500Y-33222500D02*
X73712501Y-33447499D01*
X70399999Y-30669999D02*
X70330000Y-30600000D01*
X73105800Y-32518300D02*
X73105800Y-32947500D01*
X71900001Y-32241700D02*
X72400000Y-32241700D01*
X71900000Y-30600000D02*
X72040000Y-30600000D01*
X70399999Y-32241700D02*
X70900000Y-32241700D01*
X73855000Y-32947500D02*
X74130000Y-33222500D01*
D27*
X95310000Y-42580000D02*
X96500000Y-43770000D01*
D26*
X71900001Y-32241700D02*
X71900000Y-30600000D01*
D27*
X98110000Y-56910000D02*
X107100000Y-56910000D01*
X75890000Y-39150000D02*
X79320000Y-42580000D01*
D26*
X71400000Y-32241700D02*
X71400000Y-30600000D01*
D27*
X75890000Y-39100000D02*
X75890000Y-39150000D01*
D26*
%TO.N,/LED_1_VOUT*%
X58150001Y-32241700D02*
X58150000Y-30500000D01*
X62400000Y-42220000D02*
X63220000Y-43040000D01*
X57150000Y-32241700D02*
X57650000Y-32241700D01*
X58650000Y-32241700D02*
X59039200Y-32241700D01*
X58650000Y-32241700D02*
X58650000Y-30500000D01*
X57650000Y-32241700D02*
X57650000Y-30500000D01*
X56660000Y-30500000D02*
X57150000Y-30500000D01*
X107100000Y-67070000D02*
X107160000Y-67010000D01*
X56150000Y-32241700D02*
X56649999Y-32241700D01*
X58150000Y-30500000D02*
X58650000Y-30500000D01*
X61030000Y-32652500D02*
X60735000Y-32947500D01*
X56649999Y-30510001D02*
X56660000Y-30500000D01*
X58650000Y-30500000D02*
X61030000Y-30500000D01*
X61030000Y-30500000D02*
X61030000Y-32652500D01*
X59039200Y-32241700D02*
X59355800Y-32558300D01*
X56649999Y-32241700D02*
X57150000Y-32241700D01*
X58150001Y-32241700D02*
X58650000Y-32241700D01*
X57650000Y-32241700D02*
X58150001Y-32241700D01*
X57150000Y-32241700D02*
X57150000Y-30500000D01*
X56649999Y-32241700D02*
X56649999Y-30510001D01*
X63220000Y-43040000D02*
X66140000Y-43040000D01*
X59355800Y-32558300D02*
X59355800Y-32947500D01*
X59355800Y-33447499D02*
X59355800Y-32947500D01*
X57150000Y-30500000D02*
X57650000Y-30500000D01*
X59355800Y-33447499D02*
X60235001Y-33447499D01*
X57650000Y-30500000D02*
X58150000Y-30500000D01*
X60735000Y-32947500D02*
X60235001Y-33447499D01*
X62400000Y-39940000D02*
X62400000Y-42220000D01*
X56150000Y-32241700D02*
X56150000Y-31010000D01*
X59355800Y-32947500D02*
X60735000Y-32947500D01*
X56150000Y-31010000D02*
X56649999Y-30510001D01*
%TO.N,/LED_1_CTRL*%
X49085000Y-68735000D02*
X71960000Y-68735000D01*
X53650000Y-38522500D02*
X53535000Y-38637500D01*
X72695000Y-69470000D02*
X72695000Y-71282500D01*
X52835000Y-41360000D02*
X50035000Y-41360000D01*
X48285000Y-67935000D02*
X49085000Y-68735000D01*
X50035000Y-41360000D02*
X48910000Y-42485000D01*
X53535000Y-38637500D02*
X53535000Y-40910000D01*
X71960000Y-68735000D02*
X72695000Y-69470000D01*
X48285000Y-62785000D02*
X48285000Y-67935000D01*
X48910000Y-42485000D02*
X48285000Y-43110000D01*
X48285000Y-43110000D02*
X48285000Y-47310000D01*
X53535000Y-40910000D02*
X53085000Y-41360000D01*
X53624000Y-38548500D02*
X53650000Y-38522500D01*
X53085000Y-41360000D02*
X52835000Y-41360000D01*
%TO.N,/LED_1_EN*%
X53650000Y-36872500D02*
X54920000Y-36872500D01*
X55444200Y-36348300D02*
X55444200Y-35447500D01*
X54920000Y-36872500D02*
X55444200Y-36348300D01*
%TO.N,/LED1_ILIM*%
X56649999Y-36622501D02*
X56649999Y-36153300D01*
X55900000Y-37872500D02*
X55900000Y-37372500D01*
X55900000Y-37372500D02*
X56649999Y-36622501D01*
%TO.N,/LED1_IMON*%
X57410000Y-37872500D02*
X57150000Y-37612500D01*
X58150000Y-37872500D02*
X57410000Y-37872500D01*
X57150000Y-36153300D02*
X57150000Y-37612500D01*
%TO.N,/LED1_PG*%
X60370000Y-35872500D02*
X59945000Y-35447500D01*
X59945000Y-35447500D02*
X59355800Y-35447500D01*
X61150000Y-35872500D02*
X60370000Y-35872500D01*
%TO.N,/LED2_PG*%
X74550000Y-35447500D02*
X74725000Y-35622500D01*
X73105800Y-35447500D02*
X74550000Y-35447500D01*
%TO.N,/LED_2_EN*%
X69194200Y-36238300D02*
X69194200Y-35447500D01*
X68560000Y-36872500D02*
X69194200Y-36238300D01*
X67400000Y-36872500D02*
X68560000Y-36872500D01*
%TO.N,/LED_2_CTRL*%
X48885000Y-43135000D02*
X49985000Y-42035000D01*
X58360000Y-42035000D02*
X49985000Y-42035000D01*
X49560000Y-68135000D02*
X48885000Y-67460000D01*
X48835000Y-45560000D02*
X48885000Y-45560000D01*
X74485000Y-68135000D02*
X49560000Y-68135000D01*
X67400000Y-38522500D02*
X61872500Y-38522500D01*
X48885000Y-45560000D02*
X48885000Y-43135000D01*
X48885000Y-67460000D02*
X48885000Y-61785000D01*
X61872500Y-38522500D02*
X58360000Y-42035000D01*
X75235000Y-68885000D02*
X74485000Y-68135000D01*
X75235000Y-71282500D02*
X75235000Y-68885000D01*
%TO.N,/LED2_ILIM*%
X69830000Y-37132500D02*
X70000000Y-37132500D01*
X70399999Y-36732501D02*
X70399999Y-36153300D01*
X70000000Y-37132500D02*
X70399999Y-36732501D01*
X69650000Y-37312500D02*
X69830000Y-37132500D01*
X69650000Y-37872500D02*
X69650000Y-37312500D01*
%TO.N,/LED2_IMON*%
X70900000Y-36153300D02*
X70900000Y-37522500D01*
X71250000Y-37872500D02*
X71900000Y-37872500D01*
X70900000Y-37522500D02*
X71250000Y-37872500D01*
%TO.N,/LED3_PG*%
X88595000Y-35687500D02*
X88305000Y-35397500D01*
X89400000Y-35687500D02*
X88595000Y-35687500D01*
X88305000Y-35397500D02*
X87605800Y-35397500D01*
%TO.N,/LED_3_EN*%
X81900000Y-36910000D02*
X83032500Y-36910000D01*
X83032500Y-36910000D02*
X83694200Y-36248300D01*
X83694200Y-36248300D02*
X83694200Y-35397500D01*
%TO.N,/LED_3_CTRL*%
X88910000Y-40785000D02*
X93560000Y-40785000D01*
X77775000Y-69520000D02*
X77775000Y-71282500D01*
X78510000Y-68785000D02*
X77775000Y-69520000D01*
X94435000Y-54560000D02*
X94435000Y-65585000D01*
X93560000Y-40785000D02*
X94385000Y-41610000D01*
X94435000Y-65585000D02*
X91235000Y-68785000D01*
X81900000Y-38560000D02*
X81900000Y-39675000D01*
X91235000Y-68785000D02*
X78510000Y-68785000D01*
X81900000Y-39675000D02*
X82460000Y-40235000D01*
%TO.N,/LED3_ILIM*%
X84150000Y-37192500D02*
X84320000Y-37022500D01*
X84320000Y-37022500D02*
X84640000Y-37022500D01*
X84150000Y-37910000D02*
X84150000Y-37192500D01*
X84899999Y-36762501D02*
X84899999Y-36103300D01*
X84640000Y-37022500D02*
X84899999Y-36762501D01*
%TO.N,/LED3_IMON*%
X86400000Y-37192500D02*
X86200000Y-36992500D01*
X86200000Y-36992500D02*
X85590000Y-36992500D01*
X85400000Y-36802500D02*
X85400000Y-36103300D01*
X86400000Y-37910000D02*
X86400000Y-37192500D01*
X85590000Y-36992500D02*
X85400000Y-36802500D01*
%TO.N,Net-(U1-TX0)*%
X59060000Y-48810000D02*
X59995000Y-47875000D01*
X47960000Y-50585000D02*
X47960000Y-49710000D01*
X48860000Y-48810000D02*
X59060000Y-48810000D01*
X59995000Y-47875000D02*
X59995000Y-45882500D01*
X47960000Y-49710000D02*
X48860000Y-48810000D01*
%TD*%
%TA.AperFunction,Conductor*%
%TO.N,GND*%
G36*
X113732539Y-16670185D02*
G01*
X113778294Y-16722989D01*
X113789500Y-16774500D01*
X113789500Y-74385500D01*
X113769815Y-74452539D01*
X113717011Y-74498294D01*
X113665500Y-74509500D01*
X90467936Y-74509500D01*
X90400897Y-74489815D01*
X90355142Y-74437011D01*
X90345198Y-74367853D01*
X90374223Y-74304297D01*
X90399045Y-74282398D01*
X90424669Y-74265277D01*
X90980276Y-73709670D01*
X91051465Y-73603127D01*
X91100501Y-73484744D01*
X91125500Y-73359069D01*
X91125500Y-72711091D01*
X91145185Y-72644052D01*
X91193206Y-72600606D01*
X91261431Y-72565844D01*
X91261430Y-72565844D01*
X91261433Y-72565843D01*
X91452510Y-72427017D01*
X91619517Y-72260010D01*
X91758343Y-72068933D01*
X91865568Y-71858492D01*
X91938553Y-71633868D01*
X91963026Y-71479353D01*
X91975500Y-71400597D01*
X91975500Y-71164402D01*
X91938553Y-70931131D01*
X91887010Y-70772500D01*
X91865568Y-70706508D01*
X91865566Y-70706505D01*
X91865566Y-70706503D01*
X91861110Y-70697758D01*
X96684500Y-70697758D01*
X96684500Y-70927241D01*
X96705356Y-71085647D01*
X96714452Y-71154738D01*
X96766676Y-71349643D01*
X96773842Y-71376387D01*
X96861650Y-71588376D01*
X96861657Y-71588390D01*
X96976392Y-71787117D01*
X97116081Y-71969161D01*
X97116089Y-71969170D01*
X97278330Y-72131411D01*
X97278338Y-72131418D01*
X97278339Y-72131419D01*
X97304646Y-72151605D01*
X97460382Y-72271107D01*
X97460385Y-72271108D01*
X97460388Y-72271111D01*
X97659112Y-72385844D01*
X97659117Y-72385846D01*
X97659123Y-72385849D01*
X97750480Y-72423690D01*
X97871113Y-72473658D01*
X98092762Y-72533048D01*
X98320266Y-72563000D01*
X98320273Y-72563000D01*
X98549727Y-72563000D01*
X98549734Y-72563000D01*
X98777238Y-72533048D01*
X98998887Y-72473658D01*
X99210888Y-72385844D01*
X99409612Y-72271111D01*
X99591661Y-72131419D01*
X99591665Y-72131414D01*
X99591670Y-72131411D01*
X99753911Y-71969170D01*
X99753914Y-71969165D01*
X99753919Y-71969161D01*
X99893611Y-71787112D01*
X100008344Y-71588388D01*
X100096158Y-71376387D01*
X100155548Y-71154738D01*
X100185500Y-70927234D01*
X100185500Y-70697766D01*
X100155548Y-70470262D01*
X100096158Y-70248613D01*
X100046190Y-70127980D01*
X100008349Y-70036623D01*
X100008342Y-70036608D01*
X99945906Y-69928466D01*
X99893611Y-69837888D01*
X99893608Y-69837885D01*
X99893607Y-69837882D01*
X99753918Y-69655838D01*
X99753911Y-69655830D01*
X99591670Y-69493589D01*
X99591661Y-69493581D01*
X99409617Y-69353892D01*
X99393479Y-69344575D01*
X99256552Y-69265520D01*
X99210890Y-69239157D01*
X99210876Y-69239150D01*
X98998887Y-69151342D01*
X98969661Y-69143511D01*
X98777238Y-69091952D01*
X98739215Y-69086946D01*
X98549741Y-69062000D01*
X98549734Y-69062000D01*
X98320266Y-69062000D01*
X98320258Y-69062000D01*
X98103715Y-69090509D01*
X98092762Y-69091952D01*
X98048869Y-69103713D01*
X97871112Y-69151342D01*
X97659123Y-69239150D01*
X97659109Y-69239157D01*
X97460382Y-69353892D01*
X97278338Y-69493581D01*
X97116081Y-69655838D01*
X96976392Y-69837882D01*
X96861658Y-70036608D01*
X96861650Y-70036623D01*
X96773842Y-70248612D01*
X96714453Y-70470259D01*
X96714451Y-70470270D01*
X96684500Y-70697758D01*
X91861110Y-70697758D01*
X91758342Y-70496066D01*
X91739600Y-70470270D01*
X91619517Y-70304990D01*
X91452510Y-70137983D01*
X91261433Y-69999157D01*
X91261429Y-69999155D01*
X91050996Y-69891933D01*
X90826368Y-69818946D01*
X90593097Y-69782000D01*
X90593092Y-69782000D01*
X90356908Y-69782000D01*
X90356903Y-69782000D01*
X90123631Y-69818946D01*
X89899003Y-69891933D01*
X89688566Y-69999157D01*
X89618940Y-70049744D01*
X89497490Y-70137983D01*
X89497488Y-70137985D01*
X89497487Y-70137985D01*
X89330482Y-70304990D01*
X89287451Y-70364217D01*
X89232120Y-70406882D01*
X89177405Y-70414948D01*
X89157658Y-70413393D01*
X88426128Y-71144924D01*
X88410245Y-71085647D01*
X88343102Y-70969353D01*
X88248147Y-70874398D01*
X88131853Y-70807255D01*
X88072574Y-70791371D01*
X88804105Y-70059840D01*
X88804104Y-70059838D01*
X88721174Y-69999587D01*
X88510802Y-69892397D01*
X88286247Y-69819434D01*
X88286248Y-69819434D01*
X88053052Y-69782500D01*
X87816948Y-69782500D01*
X87583752Y-69819434D01*
X87359197Y-69892397D01*
X87148830Y-69999584D01*
X87065894Y-70059840D01*
X87797425Y-70791371D01*
X87738147Y-70807255D01*
X87621853Y-70874398D01*
X87526898Y-70969353D01*
X87459755Y-71085647D01*
X87443871Y-71144924D01*
X86712340Y-70413393D01*
X86692593Y-70414948D01*
X86688860Y-70414163D01*
X86685222Y-70415308D01*
X86654936Y-70407037D01*
X86624215Y-70400584D01*
X86620429Y-70397614D01*
X86617821Y-70396902D01*
X86608431Y-70388201D01*
X86590712Y-70374300D01*
X86586370Y-70369478D01*
X86539517Y-70304990D01*
X86372510Y-70137983D01*
X86181433Y-69999157D01*
X86181429Y-69999155D01*
X85970996Y-69891933D01*
X85746368Y-69818946D01*
X85513097Y-69782000D01*
X85513092Y-69782000D01*
X85276908Y-69782000D01*
X85276903Y-69782000D01*
X85043631Y-69818946D01*
X84819003Y-69891933D01*
X84608566Y-69999157D01*
X84538940Y-70049744D01*
X84417490Y-70137983D01*
X84417488Y-70137985D01*
X84417487Y-70137985D01*
X84250484Y-70304988D01*
X84225318Y-70339627D01*
X84169987Y-70382292D01*
X84100374Y-70388271D01*
X84038579Y-70355665D01*
X84024682Y-70339627D01*
X83999517Y-70304990D01*
X83832510Y-70137983D01*
X83641433Y-69999157D01*
X83641429Y-69999155D01*
X83430996Y-69891933D01*
X83206368Y-69818946D01*
X82973097Y-69782000D01*
X82973092Y-69782000D01*
X82736908Y-69782000D01*
X82736903Y-69782000D01*
X82503631Y-69818946D01*
X82279003Y-69891933D01*
X82068566Y-69999157D01*
X81998940Y-70049744D01*
X81877490Y-70137983D01*
X81877488Y-70137985D01*
X81877487Y-70137985D01*
X81710484Y-70304988D01*
X81685318Y-70339627D01*
X81629987Y-70382292D01*
X81560374Y-70388271D01*
X81498579Y-70355665D01*
X81484682Y-70339627D01*
X81459517Y-70304990D01*
X81292510Y-70137983D01*
X81101433Y-69999157D01*
X81101429Y-69999155D01*
X80890996Y-69891933D01*
X80666368Y-69818946D01*
X80433097Y-69782000D01*
X80433092Y-69782000D01*
X80196908Y-69782000D01*
X80196903Y-69782000D01*
X79963631Y-69818946D01*
X79739003Y-69891933D01*
X79528566Y-69999157D01*
X79458940Y-70049744D01*
X79337490Y-70137983D01*
X79337488Y-70137985D01*
X79337487Y-70137985D01*
X79170484Y-70304988D01*
X79145318Y-70339627D01*
X79089987Y-70382292D01*
X79020374Y-70388271D01*
X78958579Y-70355665D01*
X78944682Y-70339627D01*
X78919517Y-70304990D01*
X78752510Y-70137983D01*
X78631060Y-70049744D01*
X78561431Y-69999155D01*
X78443204Y-69938915D01*
X78432140Y-69928466D01*
X78418297Y-69922144D01*
X78407255Y-69904963D01*
X78392409Y-69890941D01*
X78388167Y-69875261D01*
X78380523Y-69863366D01*
X78375500Y-69828431D01*
X78375500Y-69820097D01*
X78395185Y-69753058D01*
X78411819Y-69732416D01*
X78722416Y-69421819D01*
X78783739Y-69388334D01*
X78810097Y-69385500D01*
X91148331Y-69385500D01*
X91148347Y-69385501D01*
X91155943Y-69385501D01*
X91314054Y-69385501D01*
X91314057Y-69385501D01*
X91466785Y-69344577D01*
X91553387Y-69294577D01*
X91553391Y-69294575D01*
X91603709Y-69265524D01*
X91603708Y-69265524D01*
X91603716Y-69265520D01*
X91715520Y-69153716D01*
X91715520Y-69153714D01*
X91725724Y-69143511D01*
X91725728Y-69143506D01*
X94793506Y-66075728D01*
X94793511Y-66075724D01*
X94803714Y-66065520D01*
X94803716Y-66065520D01*
X94915520Y-65953716D01*
X94940769Y-65909983D01*
X105359500Y-65909983D01*
X105359500Y-68110001D01*
X105359501Y-68110018D01*
X105370000Y-68212796D01*
X105370001Y-68212799D01*
X105425185Y-68379331D01*
X105425187Y-68379336D01*
X105447506Y-68415521D01*
X105517288Y-68528656D01*
X105641344Y-68652712D01*
X105790666Y-68744814D01*
X105957203Y-68799999D01*
X106059991Y-68810500D01*
X108260008Y-68810499D01*
X108362797Y-68799999D01*
X108529334Y-68744814D01*
X108678656Y-68652712D01*
X108802712Y-68528656D01*
X108894814Y-68379334D01*
X108949999Y-68212797D01*
X108960500Y-68110009D01*
X108960499Y-65909992D01*
X108949999Y-65807203D01*
X108894814Y-65640666D01*
X108802712Y-65491344D01*
X108678656Y-65367288D01*
X108529334Y-65275186D01*
X108362797Y-65220001D01*
X108362795Y-65220000D01*
X108260010Y-65209500D01*
X106059998Y-65209500D01*
X106059981Y-65209501D01*
X105957203Y-65220000D01*
X105957200Y-65220001D01*
X105790668Y-65275185D01*
X105790663Y-65275187D01*
X105641342Y-65367289D01*
X105517289Y-65491342D01*
X105425187Y-65640663D01*
X105425185Y-65640668D01*
X105417435Y-65664056D01*
X105370001Y-65807203D01*
X105370001Y-65807204D01*
X105370000Y-65807204D01*
X105359500Y-65909983D01*
X94940769Y-65909983D01*
X94940770Y-65909981D01*
X94978383Y-65844834D01*
X94983965Y-65835164D01*
X94994577Y-65816784D01*
X95035500Y-65664057D01*
X95035500Y-61812014D01*
X105360000Y-61812014D01*
X105360000Y-62047985D01*
X105390799Y-62281914D01*
X105451870Y-62509837D01*
X105542160Y-62727819D01*
X105542165Y-62727828D01*
X105660144Y-62932171D01*
X105660145Y-62932172D01*
X105722721Y-63013723D01*
X106558958Y-62177487D01*
X106583978Y-62237890D01*
X106655112Y-62344351D01*
X106745649Y-62434888D01*
X106852110Y-62506022D01*
X106912511Y-62531041D01*
X106076275Y-63367277D01*
X106157827Y-63429854D01*
X106157828Y-63429855D01*
X106362171Y-63547834D01*
X106362180Y-63547839D01*
X106580163Y-63638129D01*
X106580161Y-63638129D01*
X106808085Y-63699200D01*
X107042014Y-63729999D01*
X107042029Y-63730000D01*
X107277971Y-63730000D01*
X107277985Y-63729999D01*
X107511914Y-63699200D01*
X107739837Y-63638129D01*
X107957819Y-63547839D01*
X107957828Y-63547834D01*
X108162181Y-63429850D01*
X108243723Y-63367279D01*
X108243723Y-63367276D01*
X107407487Y-62531041D01*
X107467890Y-62506022D01*
X107574351Y-62434888D01*
X107664888Y-62344351D01*
X107736022Y-62237890D01*
X107761041Y-62177488D01*
X108597276Y-63013723D01*
X108597279Y-63013723D01*
X108659850Y-62932181D01*
X108777834Y-62727828D01*
X108777839Y-62727819D01*
X108868129Y-62509837D01*
X108929200Y-62281914D01*
X108959999Y-62047985D01*
X108960000Y-62047971D01*
X108960000Y-61812028D01*
X108959999Y-61812014D01*
X108929200Y-61578085D01*
X108868129Y-61350162D01*
X108777839Y-61132180D01*
X108777834Y-61132171D01*
X108659855Y-60927828D01*
X108659854Y-60927827D01*
X108597277Y-60846275D01*
X107761041Y-61682511D01*
X107736022Y-61622110D01*
X107664888Y-61515649D01*
X107574351Y-61425112D01*
X107467890Y-61353978D01*
X107407488Y-61328958D01*
X108243723Y-60492721D01*
X108162172Y-60430145D01*
X108162171Y-60430144D01*
X107957828Y-60312165D01*
X107957819Y-60312160D01*
X107739836Y-60221870D01*
X107739838Y-60221870D01*
X107511914Y-60160799D01*
X107277985Y-60130000D01*
X107042014Y-60130000D01*
X106808085Y-60160799D01*
X106580162Y-60221870D01*
X106362180Y-60312160D01*
X106362171Y-60312165D01*
X106157828Y-60430144D01*
X106157818Y-60430150D01*
X106076275Y-60492720D01*
X106076275Y-60492721D01*
X106912512Y-61328958D01*
X106852110Y-61353978D01*
X106745649Y-61425112D01*
X106655112Y-61515649D01*
X106583978Y-61622110D01*
X106558958Y-61682511D01*
X105722721Y-60846275D01*
X105722720Y-60846275D01*
X105660150Y-60927818D01*
X105660144Y-60927828D01*
X105542165Y-61132171D01*
X105542160Y-61132180D01*
X105451870Y-61350162D01*
X105390799Y-61578085D01*
X105360000Y-61812014D01*
X95035500Y-61812014D01*
X95035500Y-55139765D01*
X95055185Y-55072726D01*
X95056398Y-55070874D01*
X95059072Y-55066873D01*
X95144394Y-54939179D01*
X95204737Y-54793497D01*
X95235500Y-54638842D01*
X95235500Y-54481158D01*
X95235500Y-54481155D01*
X95235499Y-54481153D01*
X95218769Y-54397047D01*
X95204737Y-54326503D01*
X95202251Y-54320501D01*
X95144397Y-54180827D01*
X95144390Y-54180814D01*
X95056789Y-54049711D01*
X95056786Y-54049707D01*
X94945292Y-53938213D01*
X94945288Y-53938210D01*
X94814185Y-53850609D01*
X94814172Y-53850602D01*
X94668501Y-53790264D01*
X94668489Y-53790261D01*
X94513845Y-53759500D01*
X94513842Y-53759500D01*
X94356158Y-53759500D01*
X94356155Y-53759500D01*
X94201510Y-53790261D01*
X94201498Y-53790264D01*
X94055827Y-53850602D01*
X94055814Y-53850609D01*
X93924711Y-53938210D01*
X93924707Y-53938213D01*
X93813213Y-54049707D01*
X93813210Y-54049711D01*
X93725609Y-54180814D01*
X93725602Y-54180827D01*
X93665264Y-54326498D01*
X93665261Y-54326510D01*
X93634500Y-54481153D01*
X93634500Y-54638846D01*
X93665261Y-54793489D01*
X93665264Y-54793501D01*
X93725602Y-54939172D01*
X93725609Y-54939185D01*
X93786661Y-55030554D01*
X93810928Y-55066873D01*
X93813602Y-55070874D01*
X93834480Y-55137551D01*
X93834500Y-55139765D01*
X93834500Y-65284903D01*
X93814815Y-65351942D01*
X93798181Y-65372584D01*
X91022584Y-68148181D01*
X90961261Y-68181666D01*
X90934903Y-68184500D01*
X78596669Y-68184500D01*
X78596653Y-68184499D01*
X78589057Y-68184499D01*
X78430943Y-68184499D01*
X78325343Y-68212795D01*
X78278210Y-68225424D01*
X78278209Y-68225425D01*
X78228096Y-68254359D01*
X78228095Y-68254360D01*
X78184689Y-68279420D01*
X78141285Y-68304479D01*
X78141282Y-68304481D01*
X77294481Y-69151282D01*
X77294475Y-69151290D01*
X77257394Y-69215518D01*
X77257394Y-69215520D01*
X77215423Y-69288214D01*
X77213718Y-69294577D01*
X77174499Y-69440943D01*
X77174499Y-69440945D01*
X77174499Y-69609046D01*
X77174500Y-69609059D01*
X77174500Y-69828431D01*
X77154815Y-69895470D01*
X77106796Y-69938915D01*
X76988568Y-69999155D01*
X76905044Y-70059840D01*
X76797490Y-70137983D01*
X76797488Y-70137985D01*
X76797487Y-70137985D01*
X76630484Y-70304988D01*
X76605318Y-70339627D01*
X76549987Y-70382292D01*
X76480374Y-70388271D01*
X76418579Y-70355665D01*
X76404682Y-70339627D01*
X76379517Y-70304990D01*
X76212510Y-70137983D01*
X76091060Y-70049744D01*
X76021431Y-69999155D01*
X75903204Y-69938915D01*
X75852409Y-69890941D01*
X75835500Y-69828431D01*
X75835500Y-68805945D01*
X75835500Y-68805943D01*
X75794577Y-68653216D01*
X75794577Y-68653215D01*
X75794577Y-68653214D01*
X75765639Y-68603095D01*
X75765637Y-68603092D01*
X75722663Y-68528657D01*
X75715520Y-68516284D01*
X75603716Y-68404480D01*
X75603715Y-68404479D01*
X75599385Y-68400149D01*
X75599374Y-68400139D01*
X74972590Y-67773355D01*
X74972588Y-67773352D01*
X74853717Y-67654481D01*
X74853716Y-67654480D01*
X74766904Y-67604360D01*
X74766904Y-67604359D01*
X74766900Y-67604358D01*
X74716785Y-67575423D01*
X74564057Y-67534499D01*
X74405943Y-67534499D01*
X74398347Y-67534499D01*
X74398331Y-67534500D01*
X56099000Y-67534500D01*
X56031961Y-67514815D01*
X55986206Y-67462011D01*
X55975000Y-67410500D01*
X55975000Y-49672500D01*
X49485000Y-49672500D01*
X49485000Y-60991165D01*
X49465315Y-61058204D01*
X49412511Y-61103959D01*
X49343353Y-61113903D01*
X49292110Y-61094268D01*
X49264183Y-61075608D01*
X49264172Y-61075602D01*
X49118501Y-61015264D01*
X49118489Y-61015261D01*
X48963845Y-60984500D01*
X48963842Y-60984500D01*
X48806158Y-60984500D01*
X48806155Y-60984500D01*
X48651510Y-61015261D01*
X48651498Y-61015264D01*
X48505827Y-61075602D01*
X48505814Y-61075609D01*
X48374711Y-61163210D01*
X48374707Y-61163213D01*
X48263213Y-61274707D01*
X48263210Y-61274711D01*
X48175609Y-61405814D01*
X48175602Y-61405827D01*
X48115264Y-61551498D01*
X48115261Y-61551510D01*
X48084500Y-61706153D01*
X48084500Y-61706158D01*
X48084500Y-61863842D01*
X48089962Y-61891301D01*
X48083733Y-61960892D01*
X48040870Y-62016069D01*
X48015797Y-62030052D01*
X47905824Y-62075604D01*
X47905814Y-62075609D01*
X47774711Y-62163210D01*
X47774707Y-62163213D01*
X47663213Y-62274707D01*
X47663210Y-62274711D01*
X47575609Y-62405814D01*
X47575602Y-62405827D01*
X47515264Y-62551498D01*
X47515261Y-62551510D01*
X47484500Y-62706153D01*
X47484500Y-62863846D01*
X47515261Y-63018489D01*
X47515264Y-63018501D01*
X47575602Y-63164172D01*
X47575609Y-63164185D01*
X47663602Y-63295874D01*
X47684480Y-63362551D01*
X47684500Y-63364765D01*
X47684500Y-67848330D01*
X47684499Y-67848348D01*
X47684499Y-68014054D01*
X47684498Y-68014054D01*
X47724187Y-68162171D01*
X47725423Y-68166785D01*
X47734015Y-68181666D01*
X47735651Y-68184500D01*
X47804477Y-68303712D01*
X47804481Y-68303717D01*
X47923349Y-68422585D01*
X47923355Y-68422590D01*
X48600139Y-69099374D01*
X48600149Y-69099385D01*
X48604479Y-69103715D01*
X48604480Y-69103716D01*
X48716284Y-69215520D01*
X48782442Y-69253716D01*
X48853215Y-69294577D01*
X49005943Y-69335501D01*
X49005946Y-69335501D01*
X49171653Y-69335501D01*
X49171669Y-69335500D01*
X50187057Y-69335500D01*
X50254096Y-69355185D01*
X50299851Y-69407989D01*
X50309795Y-69477147D01*
X50280770Y-69540703D01*
X50274738Y-69547181D01*
X50166081Y-69655838D01*
X50026392Y-69837882D01*
X49911658Y-70036608D01*
X49911650Y-70036623D01*
X49823842Y-70248612D01*
X49764453Y-70470259D01*
X49764451Y-70470270D01*
X49734500Y-70697758D01*
X49734500Y-70927241D01*
X49755356Y-71085647D01*
X49764452Y-71154738D01*
X49816676Y-71349643D01*
X49823842Y-71376387D01*
X49911650Y-71588376D01*
X49911657Y-71588390D01*
X50026392Y-71787117D01*
X50166081Y-71969161D01*
X50166089Y-71969170D01*
X50328330Y-72131411D01*
X50328338Y-72131418D01*
X50328339Y-72131419D01*
X50354646Y-72151605D01*
X50510382Y-72271107D01*
X50510385Y-72271108D01*
X50510388Y-72271111D01*
X50709112Y-72385844D01*
X50709117Y-72385846D01*
X50709123Y-72385849D01*
X50800480Y-72423690D01*
X50921113Y-72473658D01*
X51142762Y-72533048D01*
X51370266Y-72563000D01*
X51370273Y-72563000D01*
X51599727Y-72563000D01*
X51599734Y-72563000D01*
X51827238Y-72533048D01*
X52048887Y-72473658D01*
X52260888Y-72385844D01*
X52459612Y-72271111D01*
X52641661Y-72131419D01*
X52641665Y-72131414D01*
X52641670Y-72131411D01*
X52803911Y-71969170D01*
X52803914Y-71969165D01*
X52803919Y-71969161D01*
X52943611Y-71787112D01*
X53058344Y-71588388D01*
X53146158Y-71376387D01*
X53170726Y-71284695D01*
X53207090Y-71225038D01*
X53269936Y-71194508D01*
X53339312Y-71202802D01*
X53393190Y-71247287D01*
X53414465Y-71313839D01*
X53414500Y-71316791D01*
X53414500Y-71400597D01*
X53451446Y-71633868D01*
X53524433Y-71858496D01*
X53580825Y-71969170D01*
X53631657Y-72068933D01*
X53770483Y-72260010D01*
X53937490Y-72427017D01*
X54128567Y-72565843D01*
X54227991Y-72616502D01*
X54339003Y-72673066D01*
X54339005Y-72673066D01*
X54339008Y-72673068D01*
X54456030Y-72711091D01*
X54563631Y-72746053D01*
X54796903Y-72783000D01*
X54796908Y-72783000D01*
X55033097Y-72783000D01*
X55266368Y-72746053D01*
X55267870Y-72745565D01*
X55490992Y-72673068D01*
X55701433Y-72565843D01*
X55892510Y-72427017D01*
X56059517Y-72260010D01*
X56084682Y-72225372D01*
X56140011Y-72182707D01*
X56209625Y-72176728D01*
X56271420Y-72209333D01*
X56285315Y-72225370D01*
X56310483Y-72260010D01*
X56477490Y-72427017D01*
X56668567Y-72565843D01*
X56767991Y-72616502D01*
X56879003Y-72673066D01*
X56879005Y-72673066D01*
X56879008Y-72673068D01*
X56996030Y-72711091D01*
X57103631Y-72746053D01*
X57336903Y-72783000D01*
X57336908Y-72783000D01*
X57573097Y-72783000D01*
X57806368Y-72746053D01*
X57807870Y-72745565D01*
X58030992Y-72673068D01*
X58241433Y-72565843D01*
X58432510Y-72427017D01*
X58599517Y-72260010D01*
X58624682Y-72225372D01*
X58680011Y-72182707D01*
X58749625Y-72176728D01*
X58811420Y-72209333D01*
X58825315Y-72225370D01*
X58850483Y-72260010D01*
X59017490Y-72427017D01*
X59208567Y-72565843D01*
X59307991Y-72616502D01*
X59419003Y-72673066D01*
X59419005Y-72673066D01*
X59419008Y-72673068D01*
X59536030Y-72711091D01*
X59643631Y-72746053D01*
X59876903Y-72783000D01*
X59876908Y-72783000D01*
X60113097Y-72783000D01*
X60346368Y-72746053D01*
X60347870Y-72745565D01*
X60570992Y-72673068D01*
X60781433Y-72565843D01*
X60972510Y-72427017D01*
X61139517Y-72260010D01*
X61164682Y-72225372D01*
X61220011Y-72182707D01*
X61289625Y-72176728D01*
X61351420Y-72209333D01*
X61365315Y-72225370D01*
X61390483Y-72260010D01*
X61557490Y-72427017D01*
X61748567Y-72565843D01*
X61847991Y-72616502D01*
X61959003Y-72673066D01*
X61959005Y-72673066D01*
X61959008Y-72673068D01*
X62076030Y-72711091D01*
X62183631Y-72746053D01*
X62416903Y-72783000D01*
X62416908Y-72783000D01*
X62653097Y-72783000D01*
X62886368Y-72746053D01*
X62887870Y-72745565D01*
X63110992Y-72673068D01*
X63321433Y-72565843D01*
X63512510Y-72427017D01*
X63679517Y-72260010D01*
X63704682Y-72225372D01*
X63760011Y-72182707D01*
X63829625Y-72176728D01*
X63891420Y-72209333D01*
X63905315Y-72225370D01*
X63930483Y-72260010D01*
X64097490Y-72427017D01*
X64288567Y-72565843D01*
X64387991Y-72616502D01*
X64499003Y-72673066D01*
X64499005Y-72673066D01*
X64499008Y-72673068D01*
X64616030Y-72711091D01*
X64723631Y-72746053D01*
X64956903Y-72783000D01*
X64956908Y-72783000D01*
X65193097Y-72783000D01*
X65426368Y-72746053D01*
X65427870Y-72745565D01*
X65650992Y-72673068D01*
X65861433Y-72565843D01*
X66052510Y-72427017D01*
X66219517Y-72260010D01*
X66244682Y-72225372D01*
X66300011Y-72182707D01*
X66369625Y-72176728D01*
X66431420Y-72209333D01*
X66445315Y-72225370D01*
X66470483Y-72260010D01*
X66637490Y-72427017D01*
X66828567Y-72565843D01*
X66927991Y-72616502D01*
X67039003Y-72673066D01*
X67039005Y-72673066D01*
X67039008Y-72673068D01*
X67156030Y-72711091D01*
X67263631Y-72746053D01*
X67496903Y-72783000D01*
X67496908Y-72783000D01*
X67733097Y-72783000D01*
X67966368Y-72746053D01*
X67967870Y-72745565D01*
X68190992Y-72673068D01*
X68401433Y-72565843D01*
X68592510Y-72427017D01*
X68759517Y-72260010D01*
X68784682Y-72225372D01*
X68840011Y-72182707D01*
X68909625Y-72176728D01*
X68971420Y-72209333D01*
X68985315Y-72225370D01*
X69010483Y-72260010D01*
X69177490Y-72427017D01*
X69368567Y-72565843D01*
X69467991Y-72616502D01*
X69579003Y-72673066D01*
X69579005Y-72673066D01*
X69579008Y-72673068D01*
X69696030Y-72711091D01*
X69803631Y-72746053D01*
X70036903Y-72783000D01*
X70036908Y-72783000D01*
X70273097Y-72783000D01*
X70506368Y-72746053D01*
X70507870Y-72745565D01*
X70730992Y-72673068D01*
X70941433Y-72565843D01*
X71132510Y-72427017D01*
X71299517Y-72260010D01*
X71324682Y-72225372D01*
X71380011Y-72182707D01*
X71449625Y-72176728D01*
X71511420Y-72209333D01*
X71525315Y-72225370D01*
X71550483Y-72260010D01*
X71717490Y-72427017D01*
X71908567Y-72565843D01*
X72007991Y-72616502D01*
X72119003Y-72673066D01*
X72119005Y-72673066D01*
X72119008Y-72673068D01*
X72236030Y-72711091D01*
X72343631Y-72746053D01*
X72576903Y-72783000D01*
X72576908Y-72783000D01*
X72813097Y-72783000D01*
X73046368Y-72746053D01*
X73047870Y-72745565D01*
X73270992Y-72673068D01*
X73481433Y-72565843D01*
X73672510Y-72427017D01*
X73839517Y-72260010D01*
X73864682Y-72225372D01*
X73920011Y-72182707D01*
X73989625Y-72176728D01*
X74051420Y-72209333D01*
X74065315Y-72225370D01*
X74090483Y-72260010D01*
X74257490Y-72427017D01*
X74448567Y-72565843D01*
X74547991Y-72616502D01*
X74659003Y-72673066D01*
X74659005Y-72673066D01*
X74659008Y-72673068D01*
X74776030Y-72711091D01*
X74883631Y-72746053D01*
X75116903Y-72783000D01*
X75116908Y-72783000D01*
X75353097Y-72783000D01*
X75586368Y-72746053D01*
X75587870Y-72745565D01*
X75810992Y-72673068D01*
X76021433Y-72565843D01*
X76212510Y-72427017D01*
X76379517Y-72260010D01*
X76404682Y-72225372D01*
X76460011Y-72182707D01*
X76529625Y-72176728D01*
X76591420Y-72209333D01*
X76605315Y-72225370D01*
X76630483Y-72260010D01*
X76797490Y-72427017D01*
X76988567Y-72565843D01*
X77087991Y-72616502D01*
X77199003Y-72673066D01*
X77199005Y-72673066D01*
X77199008Y-72673068D01*
X77316030Y-72711091D01*
X77423631Y-72746053D01*
X77656903Y-72783000D01*
X77656908Y-72783000D01*
X77893097Y-72783000D01*
X78126368Y-72746053D01*
X78127870Y-72745565D01*
X78350992Y-72673068D01*
X78561433Y-72565843D01*
X78752510Y-72427017D01*
X78919517Y-72260010D01*
X78944682Y-72225372D01*
X79000011Y-72182707D01*
X79069625Y-72176728D01*
X79131420Y-72209333D01*
X79145315Y-72225370D01*
X79170483Y-72260010D01*
X79337490Y-72427017D01*
X79528567Y-72565843D01*
X79627991Y-72616502D01*
X79739003Y-72673066D01*
X79739005Y-72673066D01*
X79739008Y-72673068D01*
X79856030Y-72711091D01*
X79963631Y-72746053D01*
X80196903Y-72783000D01*
X80196908Y-72783000D01*
X80433097Y-72783000D01*
X80666368Y-72746053D01*
X80667870Y-72745565D01*
X80890992Y-72673068D01*
X81101433Y-72565843D01*
X81292510Y-72427017D01*
X81459517Y-72260010D01*
X81484682Y-72225372D01*
X81540011Y-72182707D01*
X81609625Y-72176728D01*
X81671420Y-72209333D01*
X81685315Y-72225370D01*
X81710483Y-72260010D01*
X81877490Y-72427017D01*
X82068567Y-72565843D01*
X82167991Y-72616502D01*
X82279003Y-72673066D01*
X82279005Y-72673066D01*
X82279008Y-72673068D01*
X82396030Y-72711091D01*
X82503631Y-72746053D01*
X82736903Y-72783000D01*
X82736908Y-72783000D01*
X82973097Y-72783000D01*
X83206368Y-72746053D01*
X83207870Y-72745565D01*
X83430992Y-72673068D01*
X83641433Y-72565843D01*
X83832510Y-72427017D01*
X83999517Y-72260010D01*
X84024682Y-72225372D01*
X84080011Y-72182707D01*
X84149625Y-72176728D01*
X84211420Y-72209333D01*
X84225315Y-72225370D01*
X84250483Y-72260010D01*
X84417490Y-72427017D01*
X84608567Y-72565843D01*
X84707991Y-72616502D01*
X84819003Y-72673066D01*
X84819005Y-72673066D01*
X84819008Y-72673068D01*
X84936030Y-72711091D01*
X85043631Y-72746053D01*
X85276903Y-72783000D01*
X85276908Y-72783000D01*
X85513097Y-72783000D01*
X85746368Y-72746053D01*
X85747870Y-72745565D01*
X85970992Y-72673068D01*
X86181433Y-72565843D01*
X86372510Y-72427017D01*
X86539517Y-72260010D01*
X86586370Y-72195522D01*
X86590713Y-72190699D01*
X86615150Y-72175642D01*
X86637877Y-72158118D01*
X86645393Y-72157009D01*
X86650199Y-72154049D01*
X86663730Y-72154306D01*
X86692594Y-72150051D01*
X86712340Y-72151605D01*
X87443871Y-71420074D01*
X87459755Y-71479353D01*
X87526898Y-71595647D01*
X87621853Y-71690602D01*
X87738147Y-71757745D01*
X87797425Y-71773628D01*
X87065893Y-72505158D01*
X87148828Y-72565414D01*
X87359197Y-72672602D01*
X87583752Y-72745565D01*
X87583751Y-72745565D01*
X87816948Y-72782500D01*
X88053052Y-72782500D01*
X88286247Y-72745565D01*
X88510802Y-72672602D01*
X88721163Y-72565418D01*
X88721169Y-72565414D01*
X88804104Y-72505158D01*
X88804105Y-72505158D01*
X88072574Y-71773628D01*
X88131853Y-71757745D01*
X88248147Y-71690602D01*
X88343102Y-71595647D01*
X88410245Y-71479353D01*
X88426128Y-71420075D01*
X89157657Y-72151604D01*
X89177404Y-72150050D01*
X89245781Y-72164414D01*
X89287451Y-72200782D01*
X89330483Y-72260010D01*
X89497490Y-72427017D01*
X89561686Y-72473658D01*
X89688568Y-72565844D01*
X89756794Y-72600606D01*
X89807590Y-72648580D01*
X89824500Y-72711091D01*
X89824500Y-72974192D01*
X89815855Y-73003632D01*
X89809332Y-73033619D01*
X89805577Y-73038634D01*
X89804815Y-73041231D01*
X89788181Y-73061873D01*
X89776873Y-73073181D01*
X89715550Y-73106666D01*
X89689192Y-73109500D01*
X39480808Y-73109500D01*
X39413769Y-73089815D01*
X39393127Y-73073181D01*
X35946819Y-69626873D01*
X35913334Y-69565550D01*
X35910500Y-69539192D01*
X35910500Y-68842014D01*
X39140000Y-68842014D01*
X39140000Y-69077985D01*
X39170799Y-69311914D01*
X39231870Y-69539837D01*
X39322160Y-69757819D01*
X39322165Y-69757828D01*
X39440144Y-69962171D01*
X39440145Y-69962172D01*
X39502721Y-70043723D01*
X40338958Y-69207487D01*
X40363978Y-69267890D01*
X40435112Y-69374351D01*
X40525649Y-69464888D01*
X40632110Y-69536022D01*
X40692511Y-69561041D01*
X39856275Y-70397277D01*
X39937827Y-70459854D01*
X39937828Y-70459855D01*
X40142171Y-70577834D01*
X40142180Y-70577839D01*
X40360163Y-70668129D01*
X40360161Y-70668129D01*
X40588085Y-70729200D01*
X40822014Y-70759999D01*
X40822029Y-70760000D01*
X41057971Y-70760000D01*
X41057985Y-70759999D01*
X41291914Y-70729200D01*
X41519837Y-70668129D01*
X41737819Y-70577839D01*
X41737828Y-70577834D01*
X41942181Y-70459850D01*
X42023723Y-70397279D01*
X42023723Y-70397276D01*
X41187487Y-69561041D01*
X41247890Y-69536022D01*
X41354351Y-69464888D01*
X41444888Y-69374351D01*
X41516022Y-69267890D01*
X41541041Y-69207487D01*
X42377276Y-70043723D01*
X42377279Y-70043723D01*
X42439850Y-69962181D01*
X42557834Y-69757828D01*
X42557839Y-69757819D01*
X42648129Y-69539837D01*
X42709200Y-69311914D01*
X42739999Y-69077985D01*
X42740000Y-69077971D01*
X42740000Y-68842028D01*
X42739999Y-68842014D01*
X42709200Y-68608085D01*
X42648129Y-68380162D01*
X42557839Y-68162180D01*
X42557834Y-68162171D01*
X42439855Y-67957828D01*
X42439854Y-67957827D01*
X42377277Y-67876275D01*
X41541041Y-68712511D01*
X41516022Y-68652110D01*
X41444888Y-68545649D01*
X41354351Y-68455112D01*
X41247890Y-68383978D01*
X41187488Y-68358958D01*
X42023723Y-67522721D01*
X41942172Y-67460145D01*
X41942171Y-67460144D01*
X41737828Y-67342165D01*
X41737819Y-67342160D01*
X41519836Y-67251870D01*
X41519838Y-67251870D01*
X41291914Y-67190799D01*
X41057985Y-67160000D01*
X40822014Y-67160000D01*
X40588085Y-67190799D01*
X40360162Y-67251870D01*
X40142180Y-67342160D01*
X40142171Y-67342165D01*
X39937828Y-67460144D01*
X39937818Y-67460150D01*
X39856275Y-67522720D01*
X39856275Y-67522721D01*
X40692512Y-68358958D01*
X40632110Y-68383978D01*
X40525649Y-68455112D01*
X40435112Y-68545649D01*
X40363978Y-68652110D01*
X40338958Y-68712512D01*
X39502721Y-67876275D01*
X39502720Y-67876275D01*
X39440150Y-67957818D01*
X39440144Y-67957828D01*
X39322165Y-68162171D01*
X39322160Y-68162180D01*
X39231870Y-68380162D01*
X39170799Y-68608085D01*
X39140000Y-68842014D01*
X35910500Y-68842014D01*
X35910500Y-63762014D01*
X39140000Y-63762014D01*
X39140000Y-63997985D01*
X39170799Y-64231914D01*
X39231870Y-64459837D01*
X39322160Y-64677819D01*
X39322165Y-64677828D01*
X39440144Y-64882171D01*
X39440145Y-64882172D01*
X39502721Y-64963723D01*
X40338958Y-64127487D01*
X40363978Y-64187890D01*
X40435112Y-64294351D01*
X40525649Y-64384888D01*
X40632110Y-64456022D01*
X40692511Y-64481041D01*
X39856275Y-65317277D01*
X39937827Y-65379854D01*
X39937828Y-65379855D01*
X40142171Y-65497834D01*
X40142180Y-65497839D01*
X40360163Y-65588129D01*
X40360161Y-65588129D01*
X40588085Y-65649200D01*
X40822014Y-65679999D01*
X40822029Y-65680000D01*
X41057971Y-65680000D01*
X41057985Y-65679999D01*
X41291914Y-65649200D01*
X41519837Y-65588129D01*
X41737819Y-65497839D01*
X41737828Y-65497834D01*
X41942181Y-65379850D01*
X42023723Y-65317279D01*
X42023723Y-65317276D01*
X41187487Y-64481041D01*
X41247890Y-64456022D01*
X41354351Y-64384888D01*
X41444888Y-64294351D01*
X41516022Y-64187890D01*
X41541041Y-64127487D01*
X42377276Y-64963723D01*
X42377279Y-64963723D01*
X42439850Y-64882181D01*
X42557834Y-64677828D01*
X42557839Y-64677819D01*
X42648129Y-64459837D01*
X42709200Y-64231914D01*
X42739999Y-63997985D01*
X42740000Y-63997971D01*
X42740000Y-63762028D01*
X42739999Y-63762014D01*
X42709200Y-63528085D01*
X42648129Y-63300162D01*
X42557839Y-63082180D01*
X42557834Y-63082171D01*
X42439855Y-62877828D01*
X42439849Y-62877819D01*
X42377278Y-62796275D01*
X42377277Y-62796275D01*
X41541041Y-63632511D01*
X41516022Y-63572110D01*
X41444888Y-63465649D01*
X41354351Y-63375112D01*
X41247890Y-63303978D01*
X41187488Y-63278958D01*
X42023723Y-62442721D01*
X41942172Y-62380145D01*
X41942171Y-62380144D01*
X41737828Y-62262165D01*
X41737819Y-62262160D01*
X41519836Y-62171870D01*
X41519838Y-62171870D01*
X41291914Y-62110799D01*
X41057985Y-62080000D01*
X40822014Y-62080000D01*
X40588085Y-62110799D01*
X40360162Y-62171870D01*
X40142180Y-62262160D01*
X40142171Y-62262165D01*
X39937828Y-62380144D01*
X39937818Y-62380150D01*
X39856275Y-62442720D01*
X39856275Y-62442721D01*
X40692512Y-63278958D01*
X40632110Y-63303978D01*
X40525649Y-63375112D01*
X40435112Y-63465649D01*
X40363978Y-63572110D01*
X40338958Y-63632512D01*
X39502721Y-62796275D01*
X39502720Y-62796275D01*
X39440150Y-62877818D01*
X39440144Y-62877828D01*
X39322165Y-63082171D01*
X39322160Y-63082180D01*
X39231870Y-63300162D01*
X39170799Y-63528085D01*
X39140000Y-63762014D01*
X35910500Y-63762014D01*
X35910500Y-58681995D01*
X39139500Y-58681995D01*
X39139500Y-58918004D01*
X39139501Y-58918020D01*
X39170306Y-59152010D01*
X39231394Y-59379993D01*
X39321714Y-59598045D01*
X39321719Y-59598056D01*
X39392677Y-59720957D01*
X39439727Y-59802450D01*
X39439729Y-59802453D01*
X39439730Y-59802454D01*
X39583406Y-59989697D01*
X39583412Y-59989704D01*
X39750295Y-60156587D01*
X39750302Y-60156593D01*
X39835373Y-60221870D01*
X39937550Y-60300273D01*
X40068918Y-60376118D01*
X40141943Y-60418280D01*
X40141948Y-60418282D01*
X40141951Y-60418284D01*
X40360007Y-60508606D01*
X40587986Y-60569693D01*
X40821989Y-60600500D01*
X40821996Y-60600500D01*
X41058004Y-60600500D01*
X41058011Y-60600500D01*
X41292014Y-60569693D01*
X41519993Y-60508606D01*
X41738049Y-60418284D01*
X41942450Y-60300273D01*
X42129699Y-60156592D01*
X42296592Y-59989699D01*
X42440273Y-59802450D01*
X42558284Y-59598049D01*
X42648606Y-59379993D01*
X42709693Y-59152014D01*
X42740500Y-58918011D01*
X42740500Y-58681989D01*
X42709693Y-58447986D01*
X42648606Y-58220007D01*
X42558284Y-58001951D01*
X42558282Y-58001948D01*
X42558280Y-58001943D01*
X42516118Y-57928918D01*
X42440273Y-57797550D01*
X42381001Y-57720306D01*
X42296593Y-57610302D01*
X42296587Y-57610295D01*
X42129704Y-57443412D01*
X42129697Y-57443406D01*
X41942454Y-57299730D01*
X41942453Y-57299729D01*
X41942450Y-57299727D01*
X41860957Y-57252677D01*
X41738056Y-57181719D01*
X41738045Y-57181714D01*
X41519993Y-57091394D01*
X41292010Y-57030306D01*
X41058020Y-56999501D01*
X41058017Y-56999500D01*
X41058011Y-56999500D01*
X40821989Y-56999500D01*
X40821983Y-56999500D01*
X40821979Y-56999501D01*
X40587989Y-57030306D01*
X40360006Y-57091394D01*
X40141954Y-57181714D01*
X40141943Y-57181719D01*
X39937545Y-57299730D01*
X39750302Y-57443406D01*
X39750295Y-57443412D01*
X39583412Y-57610295D01*
X39583406Y-57610302D01*
X39439730Y-57797545D01*
X39321719Y-58001943D01*
X39321714Y-58001954D01*
X39231394Y-58220006D01*
X39170306Y-58447989D01*
X39139501Y-58681979D01*
X39139500Y-58681995D01*
X35910500Y-58681995D01*
X35910500Y-49455808D01*
X35919144Y-49426367D01*
X35925668Y-49396381D01*
X35929422Y-49391365D01*
X35930185Y-49388769D01*
X35946819Y-49368127D01*
X35988127Y-49326819D01*
X36049450Y-49293334D01*
X36075808Y-49290500D01*
X39177745Y-49290500D01*
X39244784Y-49310185D01*
X39290539Y-49362989D01*
X39292306Y-49367048D01*
X39321711Y-49438040D01*
X39321719Y-49438056D01*
X39392677Y-49560957D01*
X39439727Y-49642450D01*
X39439729Y-49642453D01*
X39439730Y-49642454D01*
X39583406Y-49829697D01*
X39583412Y-49829704D01*
X39750295Y-49996587D01*
X39750302Y-49996593D01*
X39835373Y-50061870D01*
X39937550Y-50140273D01*
X40068918Y-50216118D01*
X40141943Y-50258280D01*
X40141948Y-50258282D01*
X40141951Y-50258284D01*
X40360007Y-50348606D01*
X40587986Y-50409693D01*
X40821989Y-50440500D01*
X40821996Y-50440500D01*
X41058004Y-50440500D01*
X41058011Y-50440500D01*
X41292014Y-50409693D01*
X41519993Y-50348606D01*
X41738049Y-50258284D01*
X41942450Y-50140273D01*
X42129699Y-49996592D01*
X42296592Y-49829699D01*
X42440273Y-49642450D01*
X42558284Y-49438049D01*
X42648606Y-49219993D01*
X42709693Y-48992014D01*
X42740500Y-48758011D01*
X42740500Y-48521989D01*
X42709693Y-48287986D01*
X42648606Y-48060007D01*
X42558284Y-47841951D01*
X42558282Y-47841948D01*
X42558280Y-47841943D01*
X42511609Y-47761107D01*
X42440273Y-47637550D01*
X42329801Y-47493580D01*
X42296593Y-47450302D01*
X42296587Y-47450295D01*
X42129704Y-47283412D01*
X42129697Y-47283406D01*
X41942454Y-47139730D01*
X41942453Y-47139729D01*
X41942450Y-47139727D01*
X41860957Y-47092677D01*
X41738056Y-47021719D01*
X41738049Y-47021716D01*
X41667046Y-46992305D01*
X41612643Y-46948463D01*
X41590579Y-46882169D01*
X41590500Y-46877744D01*
X41590500Y-45484499D01*
X41610185Y-45417460D01*
X41662989Y-45371705D01*
X41714500Y-45360499D01*
X42040002Y-45360499D01*
X42040008Y-45360499D01*
X42142797Y-45349999D01*
X42309334Y-45294814D01*
X42458656Y-45202712D01*
X42582712Y-45078656D01*
X42674814Y-44929334D01*
X42729999Y-44762797D01*
X42740500Y-44660009D01*
X42740499Y-42459992D01*
X42735169Y-42407819D01*
X42729999Y-42357203D01*
X42729998Y-42357200D01*
X42674814Y-42190666D01*
X42582712Y-42041344D01*
X42458656Y-41917288D01*
X42309334Y-41825186D01*
X42142797Y-41770001D01*
X42142795Y-41770000D01*
X42040010Y-41759500D01*
X39839998Y-41759500D01*
X39839981Y-41759501D01*
X39737203Y-41770000D01*
X39737200Y-41770001D01*
X39570668Y-41825185D01*
X39570663Y-41825187D01*
X39421342Y-41917289D01*
X39297289Y-42041342D01*
X39205187Y-42190663D01*
X39205186Y-42190666D01*
X39150001Y-42357203D01*
X39150001Y-42357204D01*
X39150000Y-42357204D01*
X39139500Y-42459983D01*
X39139500Y-42785500D01*
X39119815Y-42852539D01*
X39067011Y-42898294D01*
X39015500Y-42909500D01*
X35462000Y-42909500D01*
X35394961Y-42889815D01*
X35349206Y-42837011D01*
X35338000Y-42785500D01*
X35338000Y-39555344D01*
X38515000Y-39555344D01*
X38521401Y-39614872D01*
X38521403Y-39614879D01*
X38571645Y-39749586D01*
X38571649Y-39749593D01*
X38657809Y-39864687D01*
X38657812Y-39864690D01*
X38772906Y-39950850D01*
X38772913Y-39950854D01*
X38907620Y-40001096D01*
X38907627Y-40001098D01*
X38967155Y-40007499D01*
X38967172Y-40007500D01*
X39565000Y-40007500D01*
X40065000Y-40007500D01*
X40662828Y-40007500D01*
X40662844Y-40007499D01*
X40722372Y-40001098D01*
X40722379Y-40001096D01*
X40857086Y-39950854D01*
X40857093Y-39950850D01*
X40972187Y-39864690D01*
X40972190Y-39864687D01*
X41058350Y-39749593D01*
X41058354Y-39749586D01*
X41108596Y-39614879D01*
X41108598Y-39614872D01*
X41114999Y-39555344D01*
X46085000Y-39555344D01*
X46091401Y-39614872D01*
X46091403Y-39614879D01*
X46141645Y-39749586D01*
X46141649Y-39749593D01*
X46227809Y-39864687D01*
X46227812Y-39864690D01*
X46342906Y-39950850D01*
X46342913Y-39950854D01*
X46477620Y-40001096D01*
X46477627Y-40001098D01*
X46537155Y-40007499D01*
X46537172Y-40007500D01*
X47135000Y-40007500D01*
X47635000Y-40007500D01*
X48232828Y-40007500D01*
X48232844Y-40007499D01*
X48292372Y-40001098D01*
X48292379Y-40001096D01*
X48427086Y-39950854D01*
X48427093Y-39950850D01*
X48542187Y-39864690D01*
X48542190Y-39864687D01*
X48628350Y-39749593D01*
X48628354Y-39749586D01*
X48678596Y-39614879D01*
X48678598Y-39614872D01*
X48684999Y-39555344D01*
X48685000Y-39555327D01*
X48685000Y-38007500D01*
X47635000Y-38007500D01*
X47635000Y-40007500D01*
X47135000Y-40007500D01*
X47135000Y-38007500D01*
X46085000Y-38007500D01*
X46085000Y-39555344D01*
X41114999Y-39555344D01*
X41115000Y-39555327D01*
X41115000Y-38007500D01*
X40065000Y-38007500D01*
X40065000Y-40007500D01*
X39565000Y-40007500D01*
X39565000Y-38007500D01*
X38515000Y-38007500D01*
X38515000Y-39555344D01*
X35338000Y-39555344D01*
X35338000Y-35959655D01*
X38515000Y-35959655D01*
X38515000Y-37507500D01*
X39565000Y-37507500D01*
X40065000Y-37507500D01*
X41115000Y-37507500D01*
X41115000Y-35959672D01*
X41114999Y-35959655D01*
X46085000Y-35959655D01*
X46085000Y-37507500D01*
X47135000Y-37507500D01*
X47635000Y-37507500D01*
X48685000Y-37507500D01*
X48685000Y-35959672D01*
X48684999Y-35959655D01*
X48678598Y-35900127D01*
X48678596Y-35900120D01*
X48628354Y-35765413D01*
X48628350Y-35765406D01*
X48542190Y-35650312D01*
X48542187Y-35650309D01*
X48427093Y-35564149D01*
X48427086Y-35564145D01*
X48292379Y-35513903D01*
X48292372Y-35513901D01*
X48232844Y-35507500D01*
X47635000Y-35507500D01*
X47635000Y-37507500D01*
X47135000Y-37507500D01*
X47135000Y-35507500D01*
X46537155Y-35507500D01*
X46477627Y-35513901D01*
X46477620Y-35513903D01*
X46342913Y-35564145D01*
X46342906Y-35564149D01*
X46227812Y-35650309D01*
X46227809Y-35650312D01*
X46141649Y-35765406D01*
X46141645Y-35765413D01*
X46091403Y-35900120D01*
X46091401Y-35900127D01*
X46085000Y-35959655D01*
X41114999Y-35959655D01*
X41108598Y-35900127D01*
X41108596Y-35900120D01*
X41058354Y-35765413D01*
X41058350Y-35765406D01*
X40972190Y-35650312D01*
X40972187Y-35650309D01*
X40857093Y-35564149D01*
X40857086Y-35564145D01*
X40722379Y-35513903D01*
X40722372Y-35513901D01*
X40662844Y-35507500D01*
X40065000Y-35507500D01*
X40065000Y-37507500D01*
X39565000Y-37507500D01*
X39565000Y-35507500D01*
X38967155Y-35507500D01*
X38907627Y-35513901D01*
X38907620Y-35513903D01*
X38772913Y-35564145D01*
X38772906Y-35564149D01*
X38657812Y-35650309D01*
X38657809Y-35650312D01*
X38571649Y-35765406D01*
X38571645Y-35765413D01*
X38521403Y-35900120D01*
X38521401Y-35900127D01*
X38515000Y-35959655D01*
X35338000Y-35959655D01*
X35338000Y-33975808D01*
X35357685Y-33908769D01*
X35374319Y-33888127D01*
X36418127Y-32844319D01*
X36479450Y-32810834D01*
X36505808Y-32808000D01*
X38390501Y-32808000D01*
X38457540Y-32827685D01*
X38503295Y-32880489D01*
X38514501Y-32932000D01*
X38514501Y-33955376D01*
X38520908Y-34014983D01*
X38571202Y-34149828D01*
X38571206Y-34149835D01*
X38657452Y-34265044D01*
X38657455Y-34265047D01*
X38772664Y-34351293D01*
X38772671Y-34351297D01*
X38907517Y-34401591D01*
X38907516Y-34401591D01*
X38914444Y-34402335D01*
X38967127Y-34408000D01*
X40662872Y-34407999D01*
X40722483Y-34401591D01*
X40857331Y-34351296D01*
X40972546Y-34265046D01*
X41058796Y-34149831D01*
X41109091Y-34014983D01*
X41115500Y-33955373D01*
X41115500Y-32932000D01*
X41135185Y-32864961D01*
X41187989Y-32819206D01*
X41239500Y-32808000D01*
X45960501Y-32808000D01*
X46027540Y-32827685D01*
X46073295Y-32880489D01*
X46084501Y-32932000D01*
X46084501Y-33955376D01*
X46090908Y-34014983D01*
X46141202Y-34149828D01*
X46141206Y-34149835D01*
X46227452Y-34265044D01*
X46227455Y-34265047D01*
X46342664Y-34351293D01*
X46342671Y-34351297D01*
X46477517Y-34401591D01*
X46477516Y-34401591D01*
X46484444Y-34402335D01*
X46537127Y-34408000D01*
X48232872Y-34407999D01*
X48292483Y-34401591D01*
X48427331Y-34351296D01*
X48542546Y-34265046D01*
X48628796Y-34149831D01*
X48679091Y-34014983D01*
X48685500Y-33955373D01*
X48685500Y-32932000D01*
X48705185Y-32864961D01*
X48757989Y-32819206D01*
X48809500Y-32808000D01*
X50104192Y-32808000D01*
X50171231Y-32827685D01*
X50191873Y-32844319D01*
X51525325Y-34177772D01*
X51525332Y-34177778D01*
X51631863Y-34248959D01*
X51631867Y-34248961D01*
X51631874Y-34248966D01*
X51683276Y-34270257D01*
X51683277Y-34270257D01*
X51683278Y-34270258D01*
X51719665Y-34285330D01*
X51750256Y-34298001D01*
X51750260Y-34298001D01*
X51750261Y-34298002D01*
X51875928Y-34323000D01*
X51875931Y-34323000D01*
X52748126Y-34323000D01*
X52777566Y-34331644D01*
X52807553Y-34338168D01*
X52812568Y-34341922D01*
X52815165Y-34342685D01*
X52835807Y-34359319D01*
X52836660Y-34360172D01*
X52870145Y-34421495D01*
X52865161Y-34491187D01*
X52836663Y-34535531D01*
X52827428Y-34544765D01*
X52827424Y-34544771D01*
X52738457Y-34689007D01*
X52738452Y-34689018D01*
X52685144Y-34849893D01*
X52675000Y-34949177D01*
X52675000Y-34972500D01*
X53526000Y-34972500D01*
X53593039Y-34992185D01*
X53638794Y-35044989D01*
X53650000Y-35096500D01*
X53650000Y-35348500D01*
X53630315Y-35415539D01*
X53577511Y-35461294D01*
X53526000Y-35472500D01*
X52675001Y-35472500D01*
X52675001Y-35495822D01*
X52685144Y-35595107D01*
X52738452Y-35755981D01*
X52738457Y-35755992D01*
X52827424Y-35900228D01*
X52827427Y-35900232D01*
X52904337Y-35977142D01*
X52937822Y-36038465D01*
X52932838Y-36108157D01*
X52904338Y-36152504D01*
X52819529Y-36237313D01*
X52731522Y-36382893D01*
X52680913Y-36545307D01*
X52674500Y-36615886D01*
X52674500Y-37129113D01*
X52680913Y-37199692D01*
X52680913Y-37199694D01*
X52680914Y-37199696D01*
X52731522Y-37362106D01*
X52815898Y-37501681D01*
X52819530Y-37507688D01*
X52921661Y-37609819D01*
X52955146Y-37671142D01*
X52950162Y-37740834D01*
X52921661Y-37785181D01*
X52819531Y-37887310D01*
X52819530Y-37887311D01*
X52731522Y-38032893D01*
X52680913Y-38195307D01*
X52675782Y-38251775D01*
X52674500Y-38265884D01*
X52674500Y-38779116D01*
X52676423Y-38800278D01*
X52680913Y-38849692D01*
X52680913Y-38849694D01*
X52680914Y-38849696D01*
X52731522Y-39012106D01*
X52819528Y-39157685D01*
X52898182Y-39236339D01*
X52931666Y-39297660D01*
X52934500Y-39324019D01*
X52934500Y-40609903D01*
X52925855Y-40639343D01*
X52919332Y-40669330D01*
X52915577Y-40674345D01*
X52914815Y-40676942D01*
X52898181Y-40697584D01*
X52872584Y-40723181D01*
X52811261Y-40756666D01*
X52784903Y-40759500D01*
X50114057Y-40759500D01*
X49955942Y-40759500D01*
X49803215Y-40800423D01*
X49803214Y-40800423D01*
X49803212Y-40800424D01*
X49803209Y-40800425D01*
X49753096Y-40829359D01*
X49753095Y-40829360D01*
X49734209Y-40840264D01*
X49666285Y-40879479D01*
X49666282Y-40879481D01*
X49554478Y-40991286D01*
X48541284Y-42004481D01*
X47916286Y-42629478D01*
X47804481Y-42741282D01*
X47804477Y-42741287D01*
X47788050Y-42769742D01*
X47788049Y-42769744D01*
X47725423Y-42878215D01*
X47684499Y-43030943D01*
X47684499Y-43030945D01*
X47684499Y-43199046D01*
X47684500Y-43199059D01*
X47684500Y-46730234D01*
X47664815Y-46797273D01*
X47663602Y-46799125D01*
X47575609Y-46930814D01*
X47575602Y-46930827D01*
X47515264Y-47076498D01*
X47515261Y-47076510D01*
X47484500Y-47231153D01*
X47484500Y-47388846D01*
X47515261Y-47543489D01*
X47515264Y-47543501D01*
X47575602Y-47689172D01*
X47575609Y-47689185D01*
X47663210Y-47820288D01*
X47663213Y-47820292D01*
X47774707Y-47931786D01*
X47774711Y-47931789D01*
X47905814Y-48019390D01*
X47905827Y-48019397D01*
X48003870Y-48060007D01*
X48051503Y-48079737D01*
X48187477Y-48106784D01*
X48206153Y-48110499D01*
X48206156Y-48110500D01*
X48206158Y-48110500D01*
X48363842Y-48110500D01*
X48400283Y-48103251D01*
X48469873Y-48109477D01*
X48525051Y-48152339D01*
X48548297Y-48218228D01*
X48532230Y-48286226D01*
X48496180Y-48322504D01*
X48497735Y-48324530D01*
X48491282Y-48329481D01*
X47479481Y-49341282D01*
X47479480Y-49341284D01*
X47439518Y-49410501D01*
X47400423Y-49478215D01*
X47359499Y-49630943D01*
X47359499Y-49630945D01*
X47359499Y-49693285D01*
X47339814Y-49760324D01*
X47299650Y-49799401D01*
X47249814Y-49829528D01*
X47249810Y-49829531D01*
X47129530Y-49949811D01*
X47041522Y-50095393D01*
X46990913Y-50257807D01*
X46984500Y-50328386D01*
X46984500Y-50841613D01*
X46990913Y-50912192D01*
X46990913Y-50912194D01*
X46990914Y-50912196D01*
X47041522Y-51074606D01*
X47111378Y-51190162D01*
X47129530Y-51220188D01*
X47231661Y-51322319D01*
X47265146Y-51383642D01*
X47260162Y-51453334D01*
X47231661Y-51497681D01*
X47129531Y-51599810D01*
X47129530Y-51599811D01*
X47041522Y-51745393D01*
X46990913Y-51907807D01*
X46984500Y-51978386D01*
X46984500Y-52491613D01*
X46990913Y-52562192D01*
X46990913Y-52562194D01*
X46990914Y-52562196D01*
X47041522Y-52724606D01*
X47124877Y-52862492D01*
X47132292Y-52890575D01*
X47142444Y-52917792D01*
X47141104Y-52923950D01*
X47142713Y-52930044D01*
X47133767Y-52957680D01*
X47127593Y-52986065D01*
X47122283Y-52993158D01*
X47121196Y-52996518D01*
X47106443Y-53014320D01*
X47037585Y-53083180D01*
X46976262Y-53116666D01*
X46949902Y-53119500D01*
X42722966Y-53119500D01*
X42655927Y-53099815D01*
X42610172Y-53047011D01*
X42608405Y-53042953D01*
X42586667Y-52990474D01*
X42558284Y-52921951D01*
X42558282Y-52921948D01*
X42558280Y-52921943D01*
X42471814Y-52772181D01*
X42440273Y-52717550D01*
X42381001Y-52640306D01*
X42296593Y-52530302D01*
X42296587Y-52530295D01*
X42129704Y-52363412D01*
X42129697Y-52363406D01*
X41942454Y-52219730D01*
X41942453Y-52219729D01*
X41942450Y-52219727D01*
X41860957Y-52172677D01*
X41738056Y-52101719D01*
X41738045Y-52101714D01*
X41519993Y-52011394D01*
X41292010Y-51950306D01*
X41058020Y-51919501D01*
X41058017Y-51919500D01*
X41058011Y-51919500D01*
X40821989Y-51919500D01*
X40821983Y-51919500D01*
X40821979Y-51919501D01*
X40587989Y-51950306D01*
X40360006Y-52011394D01*
X40141954Y-52101714D01*
X40141943Y-52101719D01*
X39937545Y-52219730D01*
X39750302Y-52363406D01*
X39750295Y-52363412D01*
X39583412Y-52530295D01*
X39583406Y-52530302D01*
X39439730Y-52717545D01*
X39321719Y-52921943D01*
X39321714Y-52921954D01*
X39231394Y-53140006D01*
X39170306Y-53367989D01*
X39139501Y-53601979D01*
X39139500Y-53601995D01*
X39139500Y-53838004D01*
X39139501Y-53838020D01*
X39167370Y-54049711D01*
X39170307Y-54072014D01*
X39174782Y-54088716D01*
X39231394Y-54299993D01*
X39321714Y-54518045D01*
X39321719Y-54518056D01*
X39391456Y-54638842D01*
X39439727Y-54722450D01*
X39439729Y-54722453D01*
X39439730Y-54722454D01*
X39583406Y-54909697D01*
X39583412Y-54909704D01*
X39750295Y-55076587D01*
X39750301Y-55076592D01*
X39937550Y-55220273D01*
X40068918Y-55296118D01*
X40141943Y-55338280D01*
X40141948Y-55338282D01*
X40141951Y-55338284D01*
X40360007Y-55428606D01*
X40587986Y-55489693D01*
X40821989Y-55520500D01*
X40821996Y-55520500D01*
X41058004Y-55520500D01*
X41058011Y-55520500D01*
X41292014Y-55489693D01*
X41519993Y-55428606D01*
X41738049Y-55338284D01*
X41942450Y-55220273D01*
X42129699Y-55076592D01*
X42296592Y-54909699D01*
X42440273Y-54722450D01*
X42558284Y-54518049D01*
X42608405Y-54397047D01*
X42652246Y-54342644D01*
X42718540Y-54320579D01*
X42722966Y-54320500D01*
X47163331Y-54320500D01*
X47163347Y-54320501D01*
X47170943Y-54320501D01*
X47329054Y-54320501D01*
X47329057Y-54320501D01*
X47481785Y-54279577D01*
X47531904Y-54250639D01*
X47618716Y-54200520D01*
X47730520Y-54088716D01*
X47730520Y-54088714D01*
X47740728Y-54078507D01*
X47740729Y-54078504D01*
X48440520Y-53378716D01*
X48519577Y-53241784D01*
X48557906Y-53098740D01*
X48594269Y-53039084D01*
X48613528Y-53024722D01*
X48670185Y-52990472D01*
X48790472Y-52870185D01*
X48878478Y-52724606D01*
X48929086Y-52562196D01*
X48935500Y-52491616D01*
X48935500Y-51978384D01*
X48929086Y-51907804D01*
X48878478Y-51745394D01*
X48790472Y-51599815D01*
X48790470Y-51599813D01*
X48790469Y-51599811D01*
X48688339Y-51497681D01*
X48654854Y-51436358D01*
X48659838Y-51366666D01*
X48688339Y-51322319D01*
X48790468Y-51220189D01*
X48790469Y-51220188D01*
X48790472Y-51220185D01*
X48878478Y-51074606D01*
X48929086Y-50912196D01*
X48935500Y-50841616D01*
X48935500Y-50328384D01*
X48929086Y-50257804D01*
X48878478Y-50095394D01*
X48790472Y-49949815D01*
X48790470Y-49949813D01*
X48790469Y-49949811D01*
X48767627Y-49926969D01*
X48734142Y-49865646D01*
X48739126Y-49795954D01*
X48767625Y-49751609D01*
X49072416Y-49446819D01*
X49133739Y-49413334D01*
X49160097Y-49410500D01*
X58973331Y-49410500D01*
X58973347Y-49410501D01*
X58980943Y-49410501D01*
X59139054Y-49410501D01*
X59139057Y-49410501D01*
X59291785Y-49369577D01*
X59341904Y-49340639D01*
X59428716Y-49290520D01*
X59540520Y-49178716D01*
X59540520Y-49178714D01*
X59550728Y-49168507D01*
X59550729Y-49168504D01*
X60475520Y-48243716D01*
X60554577Y-48106784D01*
X60595501Y-47954057D01*
X60595501Y-47795942D01*
X60595501Y-47788347D01*
X60595500Y-47788329D01*
X60595500Y-47336567D01*
X60615185Y-47269528D01*
X60663205Y-47226082D01*
X60781433Y-47165843D01*
X60972510Y-47027017D01*
X61139517Y-46860010D01*
X61164682Y-46825372D01*
X61220011Y-46782707D01*
X61289625Y-46776728D01*
X61351420Y-46809333D01*
X61365315Y-46825370D01*
X61390483Y-46860010D01*
X61557490Y-47027017D01*
X61748567Y-47165843D01*
X61847991Y-47216502D01*
X61959003Y-47273066D01*
X61959005Y-47273066D01*
X61959008Y-47273068D01*
X62046919Y-47301632D01*
X62183631Y-47346053D01*
X62416903Y-47383000D01*
X62416908Y-47383000D01*
X62653097Y-47383000D01*
X62886368Y-47346053D01*
X62915563Y-47336567D01*
X63110992Y-47273068D01*
X63321433Y-47165843D01*
X63512510Y-47027017D01*
X63679517Y-46860010D01*
X63704682Y-46825372D01*
X63760011Y-46782707D01*
X63829625Y-46776728D01*
X63891420Y-46809333D01*
X63905315Y-46825370D01*
X63930483Y-46860010D01*
X64097490Y-47027017D01*
X64288567Y-47165843D01*
X64387991Y-47216502D01*
X64499003Y-47273066D01*
X64499005Y-47273066D01*
X64499008Y-47273068D01*
X64586919Y-47301632D01*
X64723631Y-47346053D01*
X64956903Y-47383000D01*
X64956908Y-47383000D01*
X65193097Y-47383000D01*
X65426368Y-47346053D01*
X65455563Y-47336567D01*
X65650992Y-47273068D01*
X65861433Y-47165843D01*
X66052510Y-47027017D01*
X66219517Y-46860010D01*
X66244682Y-46825372D01*
X66300011Y-46782707D01*
X66369625Y-46776728D01*
X66431420Y-46809333D01*
X66445315Y-46825370D01*
X66470483Y-46860010D01*
X66637490Y-47027017D01*
X66828567Y-47165843D01*
X66927991Y-47216502D01*
X67039003Y-47273066D01*
X67039005Y-47273066D01*
X67039008Y-47273068D01*
X67126919Y-47301632D01*
X67263631Y-47346053D01*
X67496903Y-47383000D01*
X67496908Y-47383000D01*
X67733097Y-47383000D01*
X67966368Y-47346053D01*
X67995563Y-47336567D01*
X68190992Y-47273068D01*
X68401433Y-47165843D01*
X68592510Y-47027017D01*
X68759517Y-46860010D01*
X68784682Y-46825372D01*
X68840011Y-46782707D01*
X68909625Y-46776728D01*
X68971420Y-46809333D01*
X68985315Y-46825370D01*
X69010483Y-46860010D01*
X69177490Y-47027017D01*
X69368567Y-47165843D01*
X69467991Y-47216502D01*
X69579003Y-47273066D01*
X69579005Y-47273066D01*
X69579008Y-47273068D01*
X69666919Y-47301632D01*
X69803631Y-47346053D01*
X70036903Y-47383000D01*
X70036908Y-47383000D01*
X70273097Y-47383000D01*
X70506368Y-47346053D01*
X70535563Y-47336567D01*
X70730992Y-47273068D01*
X70941433Y-47165843D01*
X71132510Y-47027017D01*
X71299517Y-46860010D01*
X71324682Y-46825372D01*
X71380011Y-46782707D01*
X71449625Y-46776728D01*
X71511420Y-46809333D01*
X71525315Y-46825370D01*
X71550483Y-46860010D01*
X71717490Y-47027017D01*
X71908567Y-47165843D01*
X72007991Y-47216502D01*
X72119003Y-47273066D01*
X72119005Y-47273066D01*
X72119008Y-47273068D01*
X72206919Y-47301632D01*
X72343631Y-47346053D01*
X72576903Y-47383000D01*
X72576908Y-47383000D01*
X72813097Y-47383000D01*
X73046368Y-47346053D01*
X73075563Y-47336567D01*
X73270992Y-47273068D01*
X73481433Y-47165843D01*
X73672510Y-47027017D01*
X73839517Y-46860010D01*
X73864682Y-46825372D01*
X73920011Y-46782707D01*
X73989625Y-46776728D01*
X74051420Y-46809333D01*
X74065315Y-46825370D01*
X74090483Y-46860010D01*
X74257490Y-47027017D01*
X74448567Y-47165843D01*
X74547991Y-47216502D01*
X74659003Y-47273066D01*
X74659005Y-47273066D01*
X74659008Y-47273068D01*
X74746919Y-47301632D01*
X74883631Y-47346053D01*
X75116903Y-47383000D01*
X75116908Y-47383000D01*
X75353097Y-47383000D01*
X75586368Y-47346053D01*
X75615563Y-47336567D01*
X75810992Y-47273068D01*
X76021433Y-47165843D01*
X76212510Y-47027017D01*
X76379517Y-46860010D01*
X76404682Y-46825372D01*
X76460011Y-46782707D01*
X76529625Y-46776728D01*
X76591420Y-46809333D01*
X76605315Y-46825370D01*
X76630483Y-46860010D01*
X76797490Y-47027017D01*
X76988567Y-47165843D01*
X77087991Y-47216502D01*
X77199003Y-47273066D01*
X77199005Y-47273066D01*
X77199008Y-47273068D01*
X77286919Y-47301632D01*
X77423631Y-47346053D01*
X77656903Y-47383000D01*
X77656908Y-47383000D01*
X77893097Y-47383000D01*
X78126368Y-47346053D01*
X78155563Y-47336567D01*
X78350992Y-47273068D01*
X78561433Y-47165843D01*
X78752510Y-47027017D01*
X78919517Y-46860010D01*
X78944682Y-46825372D01*
X79000011Y-46782707D01*
X79069625Y-46776728D01*
X79131420Y-46809333D01*
X79145315Y-46825370D01*
X79170483Y-46860010D01*
X79337490Y-47027017D01*
X79528567Y-47165843D01*
X79627991Y-47216502D01*
X79739003Y-47273066D01*
X79739005Y-47273066D01*
X79739008Y-47273068D01*
X79826919Y-47301632D01*
X79963631Y-47346053D01*
X80196903Y-47383000D01*
X80196908Y-47383000D01*
X80433097Y-47383000D01*
X80666368Y-47346053D01*
X80695563Y-47336567D01*
X80890992Y-47273068D01*
X81101433Y-47165843D01*
X81292510Y-47027017D01*
X81459517Y-46860010D01*
X81484682Y-46825372D01*
X81540011Y-46782707D01*
X81609625Y-46776728D01*
X81671420Y-46809333D01*
X81685315Y-46825370D01*
X81710483Y-46860010D01*
X81877490Y-47027017D01*
X82068567Y-47165843D01*
X82167991Y-47216502D01*
X82279003Y-47273066D01*
X82279005Y-47273066D01*
X82279008Y-47273068D01*
X82366919Y-47301632D01*
X82503631Y-47346053D01*
X82736903Y-47383000D01*
X82736908Y-47383000D01*
X82973097Y-47383000D01*
X83206368Y-47346053D01*
X83235563Y-47336567D01*
X83430992Y-47273068D01*
X83641433Y-47165843D01*
X83832510Y-47027017D01*
X83999517Y-46860010D01*
X84024682Y-46825372D01*
X84080011Y-46782707D01*
X84149625Y-46776728D01*
X84211420Y-46809333D01*
X84225315Y-46825370D01*
X84250483Y-46860010D01*
X84417490Y-47027017D01*
X84608567Y-47165843D01*
X84707991Y-47216502D01*
X84819003Y-47273066D01*
X84819005Y-47273066D01*
X84819008Y-47273068D01*
X84906919Y-47301632D01*
X85043631Y-47346053D01*
X85276903Y-47383000D01*
X85276908Y-47383000D01*
X85513097Y-47383000D01*
X85746368Y-47346053D01*
X85775563Y-47336567D01*
X85970992Y-47273068D01*
X86181433Y-47165843D01*
X86372510Y-47027017D01*
X86539517Y-46860010D01*
X86582547Y-46800783D01*
X86637877Y-46758118D01*
X86692594Y-46750051D01*
X86712340Y-46751605D01*
X87443871Y-46020074D01*
X87459755Y-46079353D01*
X87526898Y-46195647D01*
X87621853Y-46290602D01*
X87738147Y-46357745D01*
X87797423Y-46373627D01*
X87065893Y-47105158D01*
X87148828Y-47165414D01*
X87359197Y-47272602D01*
X87583752Y-47345565D01*
X87583751Y-47345565D01*
X87816948Y-47382500D01*
X88053052Y-47382500D01*
X88286247Y-47345565D01*
X88510802Y-47272602D01*
X88721171Y-47165414D01*
X88844977Y-47075464D01*
X88910784Y-47051984D01*
X88978838Y-47067809D01*
X89026779Y-47117140D01*
X89026953Y-47117046D01*
X89027293Y-47117669D01*
X89027532Y-47117915D01*
X89028009Y-47118980D01*
X89031206Y-47124835D01*
X89117452Y-47240044D01*
X89117455Y-47240047D01*
X89232664Y-47326293D01*
X89232671Y-47326297D01*
X89367517Y-47376591D01*
X89367516Y-47376591D01*
X89374444Y-47377335D01*
X89427127Y-47383000D01*
X91522872Y-47382999D01*
X91582483Y-47376591D01*
X91717331Y-47326296D01*
X91832546Y-47240046D01*
X91918796Y-47124831D01*
X91969091Y-46989983D01*
X91975500Y-46930373D01*
X91975499Y-44834628D01*
X91969091Y-44775017D01*
X91964533Y-44762797D01*
X91918797Y-44640171D01*
X91918793Y-44640164D01*
X91832547Y-44524955D01*
X91832544Y-44524952D01*
X91717335Y-44438706D01*
X91717328Y-44438702D01*
X91582482Y-44388408D01*
X91582483Y-44388408D01*
X91522883Y-44382001D01*
X91522881Y-44382000D01*
X91522873Y-44382000D01*
X91522864Y-44382000D01*
X89427129Y-44382000D01*
X89427123Y-44382001D01*
X89367516Y-44388408D01*
X89232671Y-44438702D01*
X89232664Y-44438706D01*
X89117455Y-44524952D01*
X89117452Y-44524955D01*
X89031206Y-44640164D01*
X89026953Y-44647954D01*
X89023807Y-44646236D01*
X88992139Y-44688510D01*
X88926667Y-44712904D01*
X88858399Y-44698029D01*
X88844978Y-44689535D01*
X88721174Y-44599587D01*
X88510802Y-44492397D01*
X88286247Y-44419434D01*
X88286248Y-44419434D01*
X88053052Y-44382500D01*
X87816948Y-44382500D01*
X87583752Y-44419434D01*
X87359197Y-44492397D01*
X87148830Y-44599584D01*
X87065894Y-44659840D01*
X87797425Y-45391371D01*
X87738147Y-45407255D01*
X87621853Y-45474398D01*
X87526898Y-45569353D01*
X87459755Y-45685647D01*
X87443871Y-45744924D01*
X86712340Y-45013393D01*
X86692593Y-45014948D01*
X86688860Y-45014163D01*
X86685222Y-45015308D01*
X86654936Y-45007037D01*
X86624215Y-45000584D01*
X86620429Y-44997614D01*
X86617821Y-44996902D01*
X86608431Y-44988201D01*
X86590712Y-44974300D01*
X86586370Y-44969478D01*
X86539517Y-44904990D01*
X86372510Y-44737983D01*
X86181433Y-44599157D01*
X85970996Y-44491933D01*
X85746368Y-44418946D01*
X85513097Y-44382000D01*
X85513092Y-44382000D01*
X85276908Y-44382000D01*
X85276903Y-44382000D01*
X85043631Y-44418946D01*
X84819003Y-44491933D01*
X84608566Y-44599157D01*
X84524802Y-44660016D01*
X84417490Y-44737983D01*
X84417488Y-44737985D01*
X84417487Y-44737985D01*
X84250484Y-44904988D01*
X84250483Y-44904990D01*
X84232795Y-44929336D01*
X84225318Y-44939627D01*
X84169987Y-44982292D01*
X84100374Y-44988271D01*
X84038579Y-44955665D01*
X84024682Y-44939627D01*
X83999517Y-44904990D01*
X83832510Y-44737983D01*
X83641433Y-44599157D01*
X83430996Y-44491933D01*
X83206368Y-44418946D01*
X82973097Y-44382000D01*
X82973092Y-44382000D01*
X82736908Y-44382000D01*
X82736903Y-44382000D01*
X82503631Y-44418946D01*
X82279003Y-44491933D01*
X82068566Y-44599157D01*
X81984802Y-44660016D01*
X81877490Y-44737983D01*
X81877488Y-44737985D01*
X81877487Y-44737985D01*
X81710484Y-44904988D01*
X81710483Y-44904990D01*
X81692795Y-44929336D01*
X81685318Y-44939627D01*
X81629987Y-44982292D01*
X81560374Y-44988271D01*
X81498579Y-44955665D01*
X81484682Y-44939627D01*
X81459517Y-44904990D01*
X81292510Y-44737983D01*
X81101433Y-44599157D01*
X80890996Y-44491933D01*
X80666368Y-44418946D01*
X80433097Y-44382000D01*
X80433092Y-44382000D01*
X80196908Y-44382000D01*
X80196903Y-44382000D01*
X79963631Y-44418946D01*
X79739003Y-44491933D01*
X79528566Y-44599157D01*
X79444802Y-44660016D01*
X79337490Y-44737983D01*
X79337488Y-44737985D01*
X79337487Y-44737985D01*
X79170484Y-44904988D01*
X79170483Y-44904990D01*
X79152795Y-44929336D01*
X79145318Y-44939627D01*
X79089987Y-44982292D01*
X79020374Y-44988271D01*
X78958579Y-44955665D01*
X78944682Y-44939627D01*
X78919517Y-44904990D01*
X78752510Y-44737983D01*
X78561433Y-44599157D01*
X78350996Y-44491933D01*
X78126368Y-44418946D01*
X77893097Y-44382000D01*
X77893092Y-44382000D01*
X77656908Y-44382000D01*
X77656903Y-44382000D01*
X77423631Y-44418946D01*
X77199003Y-44491933D01*
X76988566Y-44599157D01*
X76904802Y-44660016D01*
X76797490Y-44737983D01*
X76797488Y-44737985D01*
X76797487Y-44737985D01*
X76630484Y-44904988D01*
X76630483Y-44904990D01*
X76612795Y-44929336D01*
X76605318Y-44939627D01*
X76549987Y-44982292D01*
X76480374Y-44988271D01*
X76418579Y-44955665D01*
X76404682Y-44939627D01*
X76379517Y-44904990D01*
X76212510Y-44737983D01*
X76021433Y-44599157D01*
X75810996Y-44491933D01*
X75586368Y-44418946D01*
X75353097Y-44382000D01*
X75353092Y-44382000D01*
X75116908Y-44382000D01*
X75116903Y-44382000D01*
X74883631Y-44418946D01*
X74659003Y-44491933D01*
X74448566Y-44599157D01*
X74364802Y-44660016D01*
X74257490Y-44737983D01*
X74257488Y-44737985D01*
X74257487Y-44737985D01*
X74090484Y-44904988D01*
X74090483Y-44904990D01*
X74072795Y-44929336D01*
X74065318Y-44939627D01*
X74009987Y-44982292D01*
X73940374Y-44988271D01*
X73878579Y-44955665D01*
X73864682Y-44939627D01*
X73839517Y-44904990D01*
X73672510Y-44737983D01*
X73481433Y-44599157D01*
X73270996Y-44491933D01*
X73046368Y-44418946D01*
X72813097Y-44382000D01*
X72813092Y-44382000D01*
X72576908Y-44382000D01*
X72576903Y-44382000D01*
X72343631Y-44418946D01*
X72119003Y-44491933D01*
X71908566Y-44599157D01*
X71824802Y-44660016D01*
X71717490Y-44737983D01*
X71717488Y-44737985D01*
X71717487Y-44737985D01*
X71550484Y-44904988D01*
X71550483Y-44904990D01*
X71532795Y-44929336D01*
X71525318Y-44939627D01*
X71469987Y-44982292D01*
X71400374Y-44988271D01*
X71338579Y-44955665D01*
X71324682Y-44939627D01*
X71299517Y-44904990D01*
X71132510Y-44737983D01*
X70941433Y-44599157D01*
X70730996Y-44491933D01*
X70506368Y-44418946D01*
X70273097Y-44382000D01*
X70273092Y-44382000D01*
X70036908Y-44382000D01*
X70036903Y-44382000D01*
X69803631Y-44418946D01*
X69579003Y-44491933D01*
X69368566Y-44599157D01*
X69284802Y-44660016D01*
X69177490Y-44737983D01*
X69177488Y-44737985D01*
X69177487Y-44737985D01*
X69010484Y-44904988D01*
X69010483Y-44904990D01*
X68992795Y-44929336D01*
X68985318Y-44939627D01*
X68929987Y-44982292D01*
X68860374Y-44988271D01*
X68798579Y-44955665D01*
X68784682Y-44939627D01*
X68759517Y-44904990D01*
X68592510Y-44737983D01*
X68401433Y-44599157D01*
X68190996Y-44491933D01*
X67966368Y-44418946D01*
X67733097Y-44382000D01*
X67733092Y-44382000D01*
X67496908Y-44382000D01*
X67496903Y-44382000D01*
X67263631Y-44418946D01*
X67039003Y-44491933D01*
X66828566Y-44599157D01*
X66744802Y-44660016D01*
X66637490Y-44737983D01*
X66637488Y-44737985D01*
X66637487Y-44737985D01*
X66470484Y-44904988D01*
X66470483Y-44904990D01*
X66452795Y-44929336D01*
X66445318Y-44939627D01*
X66389987Y-44982292D01*
X66320374Y-44988271D01*
X66258579Y-44955665D01*
X66244682Y-44939627D01*
X66219517Y-44904990D01*
X66052510Y-44737983D01*
X65861433Y-44599157D01*
X65650996Y-44491933D01*
X65426368Y-44418946D01*
X65193097Y-44382000D01*
X65193092Y-44382000D01*
X64956908Y-44382000D01*
X64956903Y-44382000D01*
X64723631Y-44418946D01*
X64499003Y-44491933D01*
X64288566Y-44599157D01*
X64204802Y-44660016D01*
X64097490Y-44737983D01*
X64097488Y-44737985D01*
X64097487Y-44737985D01*
X63930484Y-44904988D01*
X63930483Y-44904990D01*
X63912795Y-44929336D01*
X63905318Y-44939627D01*
X63849987Y-44982292D01*
X63780374Y-44988271D01*
X63718579Y-44955665D01*
X63704682Y-44939627D01*
X63679517Y-44904990D01*
X63512510Y-44737983D01*
X63321433Y-44599157D01*
X63110996Y-44491933D01*
X62886368Y-44418946D01*
X62653097Y-44382000D01*
X62653092Y-44382000D01*
X62416908Y-44382000D01*
X62416903Y-44382000D01*
X62183631Y-44418946D01*
X61959003Y-44491933D01*
X61748566Y-44599157D01*
X61664802Y-44660016D01*
X61557490Y-44737983D01*
X61557488Y-44737985D01*
X61557487Y-44737985D01*
X61390484Y-44904988D01*
X61390483Y-44904990D01*
X61372795Y-44929336D01*
X61365318Y-44939627D01*
X61309987Y-44982292D01*
X61240374Y-44988271D01*
X61178579Y-44955665D01*
X61164682Y-44939627D01*
X61139517Y-44904990D01*
X60972510Y-44737983D01*
X60781433Y-44599157D01*
X60570996Y-44491933D01*
X60346368Y-44418946D01*
X60113097Y-44382000D01*
X60113092Y-44382000D01*
X59876908Y-44382000D01*
X59876903Y-44382000D01*
X59643631Y-44418946D01*
X59419003Y-44491933D01*
X59208566Y-44599157D01*
X59124802Y-44660016D01*
X59017490Y-44737983D01*
X59017488Y-44737985D01*
X59017487Y-44737985D01*
X58850484Y-44904988D01*
X58850483Y-44904990D01*
X58832795Y-44929336D01*
X58825318Y-44939627D01*
X58769987Y-44982292D01*
X58700374Y-44988271D01*
X58638579Y-44955665D01*
X58624682Y-44939627D01*
X58599517Y-44904990D01*
X58432510Y-44737983D01*
X58241433Y-44599157D01*
X58030996Y-44491933D01*
X57806368Y-44418946D01*
X57573097Y-44382000D01*
X57573092Y-44382000D01*
X57336908Y-44382000D01*
X57336903Y-44382000D01*
X57103631Y-44418946D01*
X56879003Y-44491933D01*
X56668566Y-44599157D01*
X56584802Y-44660016D01*
X56477490Y-44737983D01*
X56477488Y-44737985D01*
X56477487Y-44737985D01*
X56310484Y-44904988D01*
X56310483Y-44904990D01*
X56292795Y-44929336D01*
X56285318Y-44939627D01*
X56229987Y-44982292D01*
X56160374Y-44988271D01*
X56098579Y-44955665D01*
X56084682Y-44939627D01*
X56059517Y-44904990D01*
X55892510Y-44737983D01*
X55701433Y-44599157D01*
X55490996Y-44491933D01*
X55266368Y-44418946D01*
X55033097Y-44382000D01*
X55033092Y-44382000D01*
X54796908Y-44382000D01*
X54796903Y-44382000D01*
X54563631Y-44418946D01*
X54339003Y-44491933D01*
X54128566Y-44599157D01*
X54044802Y-44660016D01*
X53937490Y-44737983D01*
X53937488Y-44737985D01*
X53937487Y-44737985D01*
X53770485Y-44904987D01*
X53770485Y-44904988D01*
X53770483Y-44904990D01*
X53720126Y-44974300D01*
X53631657Y-45096066D01*
X53524433Y-45306503D01*
X53451446Y-45531131D01*
X53414500Y-45764402D01*
X53414500Y-45798208D01*
X53394815Y-45865247D01*
X53342011Y-45911002D01*
X53272853Y-45920946D01*
X53209297Y-45891921D01*
X53171523Y-45833143D01*
X53170725Y-45830301D01*
X53162126Y-45798208D01*
X53146158Y-45738613D01*
X53070705Y-45556453D01*
X53058349Y-45526623D01*
X53058346Y-45526617D01*
X53058344Y-45526612D01*
X52943611Y-45327888D01*
X52943608Y-45327885D01*
X52943607Y-45327882D01*
X52803918Y-45145838D01*
X52803911Y-45145830D01*
X52641670Y-44983589D01*
X52641661Y-44983581D01*
X52459617Y-44843892D01*
X52260890Y-44729157D01*
X52260876Y-44729150D01*
X52048887Y-44641342D01*
X52044491Y-44640164D01*
X51827238Y-44581952D01*
X51789215Y-44576946D01*
X51599741Y-44552000D01*
X51599734Y-44552000D01*
X51370266Y-44552000D01*
X51370258Y-44552000D01*
X51153715Y-44580509D01*
X51142762Y-44581952D01*
X51076958Y-44599584D01*
X50921112Y-44641342D01*
X50709123Y-44729150D01*
X50709109Y-44729157D01*
X50510382Y-44843892D01*
X50328338Y-44983581D01*
X50166081Y-45145838D01*
X50026392Y-45327882D01*
X49914905Y-45520983D01*
X49864338Y-45569199D01*
X49795731Y-45582421D01*
X49730866Y-45556453D01*
X49690338Y-45499539D01*
X49685901Y-45483174D01*
X49675918Y-45432987D01*
X49654737Y-45326503D01*
X49641610Y-45294812D01*
X49594397Y-45180827D01*
X49594390Y-45180814D01*
X49506398Y-45049125D01*
X49485520Y-44982447D01*
X49485500Y-44980234D01*
X49485500Y-43435097D01*
X49505185Y-43368058D01*
X49521819Y-43347416D01*
X50197416Y-42671819D01*
X50258739Y-42638334D01*
X50285097Y-42635500D01*
X58273331Y-42635500D01*
X58273347Y-42635501D01*
X58280943Y-42635501D01*
X58439054Y-42635501D01*
X58439057Y-42635501D01*
X58591785Y-42594577D01*
X58652574Y-42559480D01*
X58728716Y-42515520D01*
X58840520Y-42403716D01*
X58840520Y-42403714D01*
X58850724Y-42393511D01*
X58850728Y-42393506D01*
X61387819Y-39856415D01*
X61449142Y-39822930D01*
X61518834Y-39827914D01*
X61574767Y-39869786D01*
X61599184Y-39935250D01*
X61599500Y-39944096D01*
X61599500Y-40018846D01*
X61630261Y-40173489D01*
X61630264Y-40173501D01*
X61690602Y-40319172D01*
X61690609Y-40319185D01*
X61778602Y-40450874D01*
X61799480Y-40517551D01*
X61799500Y-40519765D01*
X61799500Y-42133330D01*
X61799499Y-42133348D01*
X61799499Y-42299054D01*
X61799498Y-42299054D01*
X61799499Y-42299057D01*
X61840423Y-42451785D01*
X61864674Y-42493789D01*
X61919477Y-42588712D01*
X61919481Y-42588717D01*
X62038349Y-42707585D01*
X62038355Y-42707590D01*
X62735139Y-43404374D01*
X62735149Y-43404385D01*
X62739479Y-43408715D01*
X62739480Y-43408716D01*
X62851284Y-43520520D01*
X62902845Y-43550288D01*
X62938095Y-43570639D01*
X62938097Y-43570641D01*
X62976151Y-43592611D01*
X62988215Y-43599577D01*
X63140943Y-43640500D01*
X65560234Y-43640500D01*
X65627273Y-43660185D01*
X65629125Y-43661398D01*
X65760814Y-43749390D01*
X65760827Y-43749397D01*
X65906498Y-43809735D01*
X65906503Y-43809737D01*
X66061153Y-43840499D01*
X66061156Y-43840500D01*
X66061158Y-43840500D01*
X66218844Y-43840500D01*
X66218845Y-43840499D01*
X66373497Y-43809737D01*
X66519179Y-43749394D01*
X66650289Y-43661789D01*
X66761789Y-43550289D01*
X66849394Y-43419179D01*
X66853197Y-43409999D01*
X66875840Y-43355332D01*
X66909737Y-43273497D01*
X66940500Y-43118842D01*
X66940500Y-42961158D01*
X66940500Y-42961155D01*
X66940499Y-42961153D01*
X66909737Y-42806503D01*
X66901037Y-42785500D01*
X66849397Y-42660827D01*
X66849390Y-42660814D01*
X66761789Y-42529711D01*
X66761786Y-42529707D01*
X66650292Y-42418213D01*
X66650288Y-42418210D01*
X66519185Y-42330609D01*
X66519172Y-42330602D01*
X66373501Y-42270264D01*
X66373489Y-42270261D01*
X66218845Y-42239500D01*
X66218842Y-42239500D01*
X66061158Y-42239500D01*
X66061155Y-42239500D01*
X65906510Y-42270261D01*
X65906498Y-42270264D01*
X65760827Y-42330602D01*
X65760814Y-42330609D01*
X65629125Y-42418602D01*
X65562447Y-42439480D01*
X65560234Y-42439500D01*
X63520097Y-42439500D01*
X63453058Y-42419815D01*
X63432416Y-42403181D01*
X63036819Y-42007584D01*
X63003334Y-41946261D01*
X63000500Y-41919903D01*
X63000500Y-40519765D01*
X63020185Y-40452726D01*
X63021398Y-40450874D01*
X63053375Y-40403018D01*
X63109394Y-40319179D01*
X63112702Y-40311194D01*
X63169735Y-40173501D01*
X63169737Y-40173497D01*
X63200500Y-40018842D01*
X63200500Y-39861158D01*
X63200500Y-39861155D01*
X63200499Y-39861153D01*
X63184175Y-39779082D01*
X68675001Y-39779082D01*
X68681408Y-39849602D01*
X68681409Y-39849607D01*
X68731981Y-40011896D01*
X68819927Y-40157377D01*
X68940122Y-40277572D01*
X69085604Y-40365519D01*
X69085603Y-40365519D01*
X69247894Y-40416090D01*
X69247892Y-40416090D01*
X69318418Y-40422499D01*
X69900000Y-40422499D01*
X69981581Y-40422499D01*
X70052102Y-40416091D01*
X70052107Y-40416090D01*
X70214396Y-40365518D01*
X70359877Y-40277572D01*
X70480072Y-40157377D01*
X70568019Y-40011895D01*
X70618590Y-39849606D01*
X70624999Y-39779082D01*
X70925001Y-39779082D01*
X70931408Y-39849602D01*
X70931409Y-39849607D01*
X70981981Y-40011896D01*
X71069927Y-40157377D01*
X71190122Y-40277572D01*
X71335604Y-40365519D01*
X71335603Y-40365519D01*
X71497894Y-40416090D01*
X71497892Y-40416090D01*
X71568418Y-40422499D01*
X72150000Y-40422499D01*
X72231581Y-40422499D01*
X72302102Y-40416091D01*
X72302107Y-40416090D01*
X72464396Y-40365518D01*
X72609877Y-40277572D01*
X72730072Y-40157377D01*
X72818019Y-40011895D01*
X72868590Y-39849606D01*
X72875000Y-39779072D01*
X72875000Y-39772500D01*
X72150000Y-39772500D01*
X72150000Y-40422499D01*
X71568418Y-40422499D01*
X71649999Y-40422498D01*
X71650000Y-40422498D01*
X71650000Y-39772500D01*
X70925001Y-39772500D01*
X70925001Y-39779082D01*
X70624999Y-39779082D01*
X70625000Y-39779072D01*
X70625000Y-39772500D01*
X69900000Y-39772500D01*
X69900000Y-40422499D01*
X69318418Y-40422499D01*
X69399999Y-40422498D01*
X69400000Y-40422498D01*
X69400000Y-39772500D01*
X68675001Y-39772500D01*
X68675001Y-39779082D01*
X63184175Y-39779082D01*
X63177461Y-39745329D01*
X63173205Y-39723939D01*
X63169737Y-39706503D01*
X63169735Y-39706498D01*
X63109397Y-39560827D01*
X63109390Y-39560814D01*
X63021789Y-39429711D01*
X63021786Y-39429707D01*
X62926760Y-39334681D01*
X62893275Y-39273358D01*
X62898259Y-39203666D01*
X62940131Y-39147733D01*
X63005595Y-39123316D01*
X63014441Y-39123000D01*
X66483480Y-39123000D01*
X66550519Y-39142685D01*
X66571161Y-39159319D01*
X66689811Y-39277969D01*
X66689813Y-39277970D01*
X66689815Y-39277972D01*
X66835394Y-39365978D01*
X66997804Y-39416586D01*
X67068384Y-39423000D01*
X67068387Y-39423000D01*
X67731613Y-39423000D01*
X67731616Y-39423000D01*
X67802196Y-39416586D01*
X67964606Y-39365978D01*
X68110185Y-39277972D01*
X68230472Y-39157685D01*
X68318478Y-39012106D01*
X68369086Y-38849696D01*
X68375500Y-38779116D01*
X68375500Y-38265884D01*
X68369086Y-38195304D01*
X68318478Y-38032894D01*
X68230472Y-37887315D01*
X68230470Y-37887313D01*
X68230469Y-37887311D01*
X68128339Y-37785181D01*
X68124000Y-37777235D01*
X68116753Y-37771810D01*
X68107518Y-37747050D01*
X68094854Y-37723858D01*
X68095499Y-37714828D01*
X68092336Y-37706346D01*
X68097952Y-37680525D01*
X68099838Y-37654166D01*
X68105656Y-37645112D01*
X68107188Y-37638073D01*
X68128339Y-37609819D01*
X68228839Y-37509319D01*
X68290162Y-37475834D01*
X68316520Y-37473000D01*
X68473331Y-37473000D01*
X68473347Y-37473001D01*
X68551705Y-37473001D01*
X68618744Y-37492686D01*
X68664499Y-37545490D01*
X68675196Y-37608216D01*
X68674500Y-37615884D01*
X68674500Y-38129116D01*
X68675552Y-38140690D01*
X68680913Y-38199692D01*
X68680913Y-38199694D01*
X68680914Y-38199696D01*
X68731522Y-38362106D01*
X68801711Y-38478213D01*
X68819530Y-38507688D01*
X68922015Y-38610173D01*
X68955500Y-38671496D01*
X68950516Y-38741188D01*
X68922015Y-38785535D01*
X68819928Y-38887621D01*
X68819927Y-38887622D01*
X68731980Y-39033104D01*
X68681409Y-39195393D01*
X68675000Y-39265927D01*
X68675000Y-39272500D01*
X70624999Y-39272500D01*
X70624999Y-39265917D01*
X70618591Y-39195397D01*
X70618590Y-39195392D01*
X70568018Y-39033103D01*
X70480072Y-38887622D01*
X70377984Y-38785534D01*
X70344499Y-38724211D01*
X70349483Y-38654519D01*
X70377983Y-38610173D01*
X70480472Y-38507685D01*
X70568478Y-38362106D01*
X70583929Y-38312520D01*
X70622665Y-38254374D01*
X70686690Y-38226399D01*
X70755676Y-38237480D01*
X70789990Y-38261726D01*
X70881284Y-38353020D01*
X70999212Y-38421105D01*
X71030820Y-38447169D01*
X71037805Y-38455210D01*
X71069528Y-38507685D01*
X71175094Y-38613251D01*
X71177946Y-38616534D01*
X71190762Y-38644507D01*
X71205500Y-38671496D01*
X71205179Y-38675972D01*
X71207050Y-38680054D01*
X71202709Y-38710510D01*
X71200516Y-38741188D01*
X71197717Y-38745541D01*
X71197193Y-38749225D01*
X71190008Y-38757536D01*
X71172015Y-38785535D01*
X71069928Y-38887621D01*
X71069927Y-38887622D01*
X70981980Y-39033104D01*
X70931409Y-39195393D01*
X70925000Y-39265927D01*
X70925000Y-39272500D01*
X72874999Y-39272500D01*
X72874999Y-39265917D01*
X72868591Y-39195397D01*
X72868590Y-39195392D01*
X72818018Y-39033103D01*
X72730072Y-38887622D01*
X72627984Y-38785534D01*
X72594499Y-38724211D01*
X72599483Y-38654519D01*
X72627983Y-38610173D01*
X72730472Y-38507685D01*
X72818478Y-38362106D01*
X72869086Y-38199696D01*
X72875500Y-38129116D01*
X72875500Y-37615884D01*
X72869086Y-37545304D01*
X72818478Y-37382894D01*
X72730472Y-37237315D01*
X72730470Y-37237313D01*
X72730469Y-37237311D01*
X72694075Y-37200917D01*
X72660590Y-37139594D01*
X72665574Y-37069902D01*
X72707446Y-37013969D01*
X72738424Y-36997054D01*
X72756384Y-36990355D01*
X72756393Y-36990350D01*
X72871487Y-36904190D01*
X72871490Y-36904187D01*
X72957650Y-36789093D01*
X72957654Y-36789086D01*
X73007896Y-36654379D01*
X73007898Y-36654372D01*
X73014299Y-36594844D01*
X73014300Y-36594827D01*
X73014300Y-36186299D01*
X73033985Y-36119260D01*
X73086789Y-36073505D01*
X73138297Y-36062299D01*
X73547372Y-36062299D01*
X73606983Y-36055891D01*
X73607177Y-36055819D01*
X73607656Y-36055732D01*
X73613515Y-36054348D01*
X73615577Y-36053023D01*
X73650512Y-36048000D01*
X73697833Y-36048000D01*
X73764872Y-36067685D01*
X73803950Y-36107850D01*
X73806521Y-36112103D01*
X73806522Y-36112106D01*
X73889627Y-36249577D01*
X73894530Y-36257688D01*
X73996661Y-36359819D01*
X74030146Y-36421142D01*
X74025162Y-36490834D01*
X73996661Y-36535181D01*
X73894531Y-36637310D01*
X73894530Y-36637311D01*
X73806522Y-36782893D01*
X73755913Y-36945307D01*
X73749500Y-37015886D01*
X73749500Y-37529113D01*
X73755913Y-37599692D01*
X73755913Y-37599694D01*
X73755914Y-37599696D01*
X73806522Y-37762106D01*
X73891627Y-37902887D01*
X73894530Y-37907688D01*
X74014811Y-38027969D01*
X74014813Y-38027970D01*
X74014815Y-38027972D01*
X74160394Y-38115978D01*
X74322804Y-38166586D01*
X74393384Y-38173000D01*
X74393387Y-38173000D01*
X75056613Y-38173000D01*
X75056616Y-38173000D01*
X75127196Y-38166586D01*
X75289606Y-38115978D01*
X75435185Y-38027972D01*
X75480313Y-37982843D01*
X75541632Y-37949360D01*
X75611323Y-37954343D01*
X75641314Y-37970527D01*
X75648964Y-37976136D01*
X75694609Y-38021781D01*
X75799208Y-38086298D01*
X75803214Y-38089236D01*
X75821534Y-38113210D01*
X75841714Y-38135645D01*
X75842534Y-38140690D01*
X75845638Y-38144751D01*
X75848089Y-38174826D01*
X75852935Y-38204607D01*
X75850898Y-38209293D01*
X75851314Y-38214390D01*
X75837113Y-38241020D01*
X75825092Y-38268689D01*
X75820844Y-38271531D01*
X75818439Y-38276042D01*
X75792097Y-38290766D01*
X75767023Y-38307545D01*
X75757920Y-38309871D01*
X75757451Y-38310134D01*
X75757001Y-38310106D01*
X75754084Y-38310852D01*
X75656508Y-38330261D01*
X75656498Y-38330264D01*
X75510827Y-38390602D01*
X75510814Y-38390609D01*
X75379711Y-38478210D01*
X75379707Y-38478213D01*
X75268213Y-38589707D01*
X75268210Y-38589711D01*
X75180609Y-38720814D01*
X75180602Y-38720827D01*
X75120264Y-38866498D01*
X75120261Y-38866510D01*
X75089500Y-39021153D01*
X75089500Y-39178846D01*
X75120261Y-39333489D01*
X75120264Y-39333501D01*
X75180602Y-39479172D01*
X75180609Y-39479185D01*
X75268210Y-39610288D01*
X75268213Y-39610292D01*
X75379707Y-39721786D01*
X75379711Y-39721789D01*
X75510814Y-39809390D01*
X75510827Y-39809397D01*
X75586640Y-39840799D01*
X75656503Y-39869737D01*
X75656507Y-39869737D01*
X75656508Y-39869738D01*
X75661159Y-39870663D01*
X75723072Y-39903045D01*
X75724654Y-39904600D01*
X78905325Y-43085272D01*
X78905331Y-43085277D01*
X79011874Y-43156466D01*
X79081221Y-43185189D01*
X79130256Y-43205501D01*
X79130259Y-43205501D01*
X79130260Y-43205502D01*
X79255928Y-43230500D01*
X79255931Y-43230500D01*
X79255932Y-43230500D01*
X79384069Y-43230500D01*
X94989192Y-43230500D01*
X95056231Y-43250185D01*
X95076873Y-43266819D01*
X95813181Y-44003126D01*
X95846666Y-44064449D01*
X95849500Y-44090807D01*
X95849500Y-55364070D01*
X95862338Y-55428606D01*
X95862338Y-55428608D01*
X95874497Y-55489736D01*
X95874499Y-55489744D01*
X95923534Y-55608125D01*
X95994726Y-55714673D01*
X97695326Y-57415273D01*
X97695329Y-57415275D01*
X97695331Y-57415277D01*
X97801873Y-57486465D01*
X97920256Y-57535501D01*
X97920260Y-57535501D01*
X97920261Y-57535502D01*
X98045928Y-57560500D01*
X98045931Y-57560500D01*
X105422598Y-57560500D01*
X105489637Y-57580185D01*
X105535392Y-57632989D01*
X105537160Y-57637050D01*
X105541713Y-57648043D01*
X105541719Y-57648056D01*
X105612677Y-57770957D01*
X105659727Y-57852450D01*
X105659729Y-57852453D01*
X105659730Y-57852454D01*
X105803406Y-58039697D01*
X105803412Y-58039704D01*
X105970295Y-58206587D01*
X105970301Y-58206592D01*
X106157550Y-58350273D01*
X106288918Y-58426118D01*
X106361943Y-58468280D01*
X106361948Y-58468282D01*
X106361951Y-58468284D01*
X106580007Y-58558606D01*
X106807986Y-58619693D01*
X107041989Y-58650500D01*
X107041996Y-58650500D01*
X107278004Y-58650500D01*
X107278011Y-58650500D01*
X107512014Y-58619693D01*
X107739993Y-58558606D01*
X107958049Y-58468284D01*
X108162450Y-58350273D01*
X108349699Y-58206592D01*
X108516592Y-58039699D01*
X108660273Y-57852450D01*
X108778284Y-57648049D01*
X108868606Y-57429993D01*
X108929693Y-57202014D01*
X108960500Y-56968011D01*
X108960500Y-56731989D01*
X108929693Y-56497986D01*
X108868606Y-56270007D01*
X108778284Y-56051951D01*
X108778282Y-56051948D01*
X108778280Y-56051943D01*
X108736118Y-55978918D01*
X108660273Y-55847550D01*
X108516592Y-55660301D01*
X108516587Y-55660295D01*
X108349704Y-55493412D01*
X108349697Y-55493406D01*
X108162454Y-55349730D01*
X108162453Y-55349729D01*
X108162450Y-55349727D01*
X108080957Y-55302677D01*
X107958056Y-55231719D01*
X107958045Y-55231714D01*
X107739993Y-55141394D01*
X107512010Y-55080306D01*
X107278020Y-55049501D01*
X107278017Y-55049500D01*
X107278011Y-55049500D01*
X107041989Y-55049500D01*
X107041983Y-55049500D01*
X107041979Y-55049501D01*
X106807989Y-55080306D01*
X106580006Y-55141394D01*
X106361954Y-55231714D01*
X106361943Y-55231719D01*
X106157545Y-55349730D01*
X105970302Y-55493406D01*
X105970295Y-55493412D01*
X105803412Y-55660295D01*
X105803406Y-55660302D01*
X105659730Y-55847545D01*
X105541719Y-56051943D01*
X105541714Y-56051954D01*
X105487453Y-56182953D01*
X105443612Y-56237356D01*
X105377318Y-56259421D01*
X105372892Y-56259500D01*
X98430808Y-56259500D01*
X98363769Y-56239815D01*
X98343127Y-56223181D01*
X97186819Y-55066873D01*
X97153334Y-55005550D01*
X97150500Y-54979192D01*
X97150500Y-51652014D01*
X105360000Y-51652014D01*
X105360000Y-51887985D01*
X105390799Y-52121914D01*
X105451870Y-52349837D01*
X105542160Y-52567819D01*
X105542165Y-52567828D01*
X105660144Y-52772171D01*
X105660145Y-52772172D01*
X105722721Y-52853723D01*
X106558958Y-52017487D01*
X106583978Y-52077890D01*
X106655112Y-52184351D01*
X106745649Y-52274888D01*
X106852110Y-52346022D01*
X106912511Y-52371041D01*
X106076275Y-53207277D01*
X106157827Y-53269854D01*
X106157828Y-53269855D01*
X106362171Y-53387834D01*
X106362180Y-53387839D01*
X106580163Y-53478129D01*
X106580161Y-53478129D01*
X106808085Y-53539200D01*
X107042014Y-53569999D01*
X107042029Y-53570000D01*
X107277971Y-53570000D01*
X107277985Y-53569999D01*
X107511914Y-53539200D01*
X107739837Y-53478129D01*
X107957819Y-53387839D01*
X107957828Y-53387834D01*
X108162181Y-53269850D01*
X108243723Y-53207279D01*
X108243723Y-53207276D01*
X107407487Y-52371041D01*
X107467890Y-52346022D01*
X107574351Y-52274888D01*
X107664888Y-52184351D01*
X107736022Y-52077890D01*
X107761041Y-52017488D01*
X108597276Y-52853723D01*
X108597279Y-52853723D01*
X108659850Y-52772181D01*
X108777834Y-52567828D01*
X108777839Y-52567819D01*
X108868129Y-52349837D01*
X108929200Y-52121914D01*
X108959999Y-51887985D01*
X108960000Y-51887971D01*
X108960000Y-51652028D01*
X108959999Y-51652014D01*
X108929200Y-51418085D01*
X108868129Y-51190162D01*
X108777839Y-50972180D01*
X108777834Y-50972171D01*
X108659855Y-50767828D01*
X108659854Y-50767827D01*
X108597277Y-50686275D01*
X107761041Y-51522511D01*
X107736022Y-51462110D01*
X107664888Y-51355649D01*
X107574351Y-51265112D01*
X107467890Y-51193978D01*
X107407488Y-51168958D01*
X108243723Y-50332721D01*
X108162172Y-50270145D01*
X108162171Y-50270144D01*
X107957828Y-50152165D01*
X107957819Y-50152160D01*
X107739836Y-50061870D01*
X107739838Y-50061870D01*
X107511914Y-50000799D01*
X107277985Y-49970000D01*
X107042014Y-49970000D01*
X106808085Y-50000799D01*
X106580162Y-50061870D01*
X106362180Y-50152160D01*
X106362171Y-50152165D01*
X106157828Y-50270144D01*
X106157818Y-50270150D01*
X106076275Y-50332720D01*
X106076275Y-50332721D01*
X106912512Y-51168958D01*
X106852110Y-51193978D01*
X106745649Y-51265112D01*
X106655112Y-51355649D01*
X106583978Y-51462110D01*
X106558958Y-51522511D01*
X105722721Y-50686275D01*
X105722720Y-50686275D01*
X105660150Y-50767818D01*
X105660144Y-50767828D01*
X105542165Y-50972171D01*
X105542160Y-50972180D01*
X105451870Y-51190162D01*
X105390799Y-51418085D01*
X105360000Y-51652014D01*
X97150500Y-51652014D01*
X97150500Y-47774771D01*
X97170185Y-47707732D01*
X97222989Y-47661977D01*
X97292147Y-47652033D01*
X97349984Y-47676395D01*
X97390824Y-47707732D01*
X97460382Y-47761107D01*
X97460385Y-47761108D01*
X97460388Y-47761111D01*
X97659112Y-47875844D01*
X97659117Y-47875846D01*
X97659123Y-47875849D01*
X97748698Y-47912952D01*
X97871113Y-47963658D01*
X98092762Y-48023048D01*
X98320266Y-48053000D01*
X98320273Y-48053000D01*
X98549727Y-48053000D01*
X98549734Y-48053000D01*
X98777238Y-48023048D01*
X98998887Y-47963658D01*
X99210888Y-47875844D01*
X99409612Y-47761111D01*
X99591661Y-47621419D01*
X99591665Y-47621414D01*
X99591670Y-47621411D01*
X99753911Y-47459170D01*
X99753914Y-47459165D01*
X99753919Y-47459161D01*
X99893611Y-47277112D01*
X100008344Y-47078388D01*
X100096158Y-46866387D01*
X100155548Y-46644738D01*
X100165125Y-46571995D01*
X105359500Y-46571995D01*
X105359500Y-46808004D01*
X105359501Y-46808020D01*
X105388332Y-47027017D01*
X105390307Y-47042014D01*
X105397219Y-47067809D01*
X105451394Y-47269993D01*
X105541714Y-47488045D01*
X105541719Y-47488056D01*
X105612677Y-47610957D01*
X105659727Y-47692450D01*
X105659729Y-47692453D01*
X105659730Y-47692454D01*
X105803406Y-47879697D01*
X105803412Y-47879704D01*
X105970295Y-48046587D01*
X105970302Y-48046593D01*
X106048745Y-48106784D01*
X106157550Y-48190273D01*
X106250118Y-48243717D01*
X106361943Y-48308280D01*
X106361948Y-48308282D01*
X106361951Y-48308284D01*
X106580007Y-48398606D01*
X106807986Y-48459693D01*
X107041989Y-48490500D01*
X107041996Y-48490500D01*
X107278004Y-48490500D01*
X107278011Y-48490500D01*
X107512014Y-48459693D01*
X107739993Y-48398606D01*
X107958049Y-48308284D01*
X108162450Y-48190273D01*
X108349699Y-48046592D01*
X108516592Y-47879699D01*
X108660273Y-47692450D01*
X108778284Y-47488049D01*
X108868606Y-47269993D01*
X108929693Y-47042014D01*
X108960500Y-46808011D01*
X108960500Y-46571989D01*
X108929693Y-46337986D01*
X108868606Y-46110007D01*
X108778284Y-45891951D01*
X108778282Y-45891948D01*
X108778280Y-45891943D01*
X108724161Y-45798208D01*
X108660273Y-45687550D01*
X108559679Y-45556453D01*
X108516593Y-45500302D01*
X108516587Y-45500295D01*
X108349704Y-45333412D01*
X108349697Y-45333406D01*
X108162454Y-45189730D01*
X108162453Y-45189729D01*
X108162450Y-45189727D01*
X108080957Y-45142677D01*
X107958056Y-45071719D01*
X107958045Y-45071714D01*
X107739993Y-44981394D01*
X107584117Y-44939627D01*
X107512014Y-44920307D01*
X107512013Y-44920306D01*
X107512010Y-44920306D01*
X107278020Y-44889501D01*
X107278017Y-44889500D01*
X107278011Y-44889500D01*
X107041989Y-44889500D01*
X107041983Y-44889500D01*
X107041979Y-44889501D01*
X106807989Y-44920306D01*
X106580006Y-44981394D01*
X106361954Y-45071714D01*
X106361943Y-45071719D01*
X106157545Y-45189730D01*
X105970302Y-45333406D01*
X105970295Y-45333412D01*
X105803412Y-45500295D01*
X105803406Y-45500302D01*
X105659730Y-45687545D01*
X105541719Y-45891943D01*
X105541714Y-45891954D01*
X105451394Y-46110006D01*
X105390306Y-46337989D01*
X105359501Y-46571979D01*
X105359500Y-46571995D01*
X100165125Y-46571995D01*
X100185500Y-46417234D01*
X100185500Y-46187766D01*
X100155548Y-45960262D01*
X100096158Y-45738613D01*
X100020705Y-45556453D01*
X100008349Y-45526623D01*
X100008346Y-45526617D01*
X100008344Y-45526612D01*
X99893611Y-45327888D01*
X99893608Y-45327885D01*
X99893607Y-45327882D01*
X99753918Y-45145838D01*
X99753911Y-45145830D01*
X99591670Y-44983589D01*
X99591661Y-44983581D01*
X99409617Y-44843892D01*
X99210890Y-44729157D01*
X99210876Y-44729150D01*
X98998887Y-44641342D01*
X98994491Y-44640164D01*
X98777238Y-44581952D01*
X98739215Y-44576946D01*
X98549741Y-44552000D01*
X98549734Y-44552000D01*
X98320266Y-44552000D01*
X98320258Y-44552000D01*
X98103715Y-44580509D01*
X98092762Y-44581952D01*
X98026958Y-44599584D01*
X97871112Y-44641342D01*
X97659123Y-44729150D01*
X97659109Y-44729157D01*
X97460382Y-44843892D01*
X97349987Y-44928603D01*
X97284818Y-44953798D01*
X97216373Y-44939760D01*
X97166383Y-44890946D01*
X97150500Y-44830228D01*
X97150500Y-43705928D01*
X97125502Y-43580261D01*
X97125501Y-43580260D01*
X97125501Y-43580256D01*
X97076465Y-43461873D01*
X97076464Y-43461872D01*
X97076461Y-43461866D01*
X97005277Y-43355332D01*
X96968074Y-43318129D01*
X96914669Y-43264724D01*
X96486956Y-42837011D01*
X95724674Y-42074727D01*
X95724673Y-42074726D01*
X95674710Y-42041342D01*
X95618127Y-42003535D01*
X95499744Y-41954499D01*
X95499738Y-41954497D01*
X95374071Y-41929500D01*
X95374069Y-41929500D01*
X95288725Y-41929500D01*
X95221686Y-41909815D01*
X95175931Y-41857011D01*
X95165987Y-41787853D01*
X95167108Y-41781309D01*
X95185499Y-41688846D01*
X95185500Y-41688844D01*
X95185500Y-41531157D01*
X95181720Y-41512152D01*
X95181720Y-41512150D01*
X95177715Y-41492014D01*
X105360000Y-41492014D01*
X105360000Y-41727985D01*
X105390799Y-41961914D01*
X105451870Y-42189837D01*
X105542160Y-42407819D01*
X105542165Y-42407828D01*
X105660144Y-42612171D01*
X105660145Y-42612172D01*
X105722721Y-42693723D01*
X106558958Y-41857487D01*
X106583978Y-41917890D01*
X106655112Y-42024351D01*
X106745649Y-42114888D01*
X106852110Y-42186022D01*
X106912511Y-42211041D01*
X106076275Y-43047277D01*
X106157827Y-43109854D01*
X106157828Y-43109855D01*
X106362171Y-43227834D01*
X106362180Y-43227839D01*
X106580163Y-43318129D01*
X106580161Y-43318129D01*
X106808085Y-43379200D01*
X107042014Y-43409999D01*
X107042029Y-43410000D01*
X107277971Y-43410000D01*
X107277985Y-43409999D01*
X107511914Y-43379200D01*
X107739837Y-43318129D01*
X107957819Y-43227839D01*
X107957828Y-43227834D01*
X108162181Y-43109850D01*
X108243723Y-43047279D01*
X108243723Y-43047276D01*
X107407487Y-42211041D01*
X107467890Y-42186022D01*
X107574351Y-42114888D01*
X107664888Y-42024351D01*
X107736022Y-41917890D01*
X107761041Y-41857488D01*
X108597276Y-42693723D01*
X108597279Y-42693723D01*
X108659850Y-42612181D01*
X108777834Y-42407828D01*
X108777839Y-42407819D01*
X108868129Y-42189837D01*
X108929200Y-41961914D01*
X108959999Y-41727985D01*
X108960000Y-41727971D01*
X108960000Y-41492028D01*
X108959999Y-41492014D01*
X108929200Y-41258085D01*
X108868129Y-41030162D01*
X108777839Y-40812180D01*
X108777834Y-40812171D01*
X108659855Y-40607828D01*
X108659854Y-40607827D01*
X108597277Y-40526275D01*
X107761041Y-41362511D01*
X107736022Y-41302110D01*
X107664888Y-41195649D01*
X107574351Y-41105112D01*
X107467890Y-41033978D01*
X107407488Y-41008958D01*
X108243723Y-40172721D01*
X108162172Y-40110145D01*
X108162171Y-40110144D01*
X107957828Y-39992165D01*
X107957819Y-39992160D01*
X107739836Y-39901870D01*
X107739838Y-39901870D01*
X107511914Y-39840799D01*
X107277985Y-39810000D01*
X107042014Y-39810000D01*
X106808085Y-39840799D01*
X106580162Y-39901870D01*
X106362180Y-39992160D01*
X106362171Y-39992165D01*
X106157828Y-40110144D01*
X106157818Y-40110150D01*
X106076275Y-40172720D01*
X106076275Y-40172721D01*
X106912512Y-41008958D01*
X106852110Y-41033978D01*
X106745649Y-41105112D01*
X106655112Y-41195649D01*
X106583978Y-41302110D01*
X106558958Y-41362511D01*
X105722721Y-40526275D01*
X105722720Y-40526275D01*
X105660150Y-40607818D01*
X105660144Y-40607828D01*
X105542165Y-40812171D01*
X105542160Y-40812180D01*
X105451870Y-41030162D01*
X105390799Y-41258085D01*
X105360000Y-41492014D01*
X95177715Y-41492014D01*
X95154738Y-41376508D01*
X95154737Y-41376507D01*
X95154737Y-41376503D01*
X95121099Y-41295292D01*
X95094397Y-41230827D01*
X95094390Y-41230814D01*
X95006789Y-41099711D01*
X95006786Y-41099707D01*
X94895292Y-40988213D01*
X94895288Y-40988210D01*
X94764185Y-40900609D01*
X94764172Y-40900602D01*
X94618501Y-40840264D01*
X94618491Y-40840261D01*
X94463149Y-40809361D01*
X94401238Y-40776976D01*
X94399660Y-40775425D01*
X94047590Y-40423355D01*
X94040521Y-40416286D01*
X94040520Y-40416284D01*
X93928716Y-40304480D01*
X93831109Y-40248127D01*
X93791785Y-40225423D01*
X93639057Y-40184499D01*
X93480943Y-40184499D01*
X93473347Y-40184499D01*
X93473331Y-40184500D01*
X89489766Y-40184500D01*
X89422727Y-40164815D01*
X89420875Y-40163602D01*
X89289185Y-40075609D01*
X89289172Y-40075602D01*
X89143501Y-40015264D01*
X89143489Y-40015261D01*
X88988845Y-39984500D01*
X88988842Y-39984500D01*
X88831158Y-39984500D01*
X88831155Y-39984500D01*
X88676510Y-40015261D01*
X88676498Y-40015264D01*
X88530827Y-40075602D01*
X88530814Y-40075609D01*
X88399711Y-40163210D01*
X88399707Y-40163213D01*
X88288213Y-40274707D01*
X88288210Y-40274711D01*
X88200609Y-40405814D01*
X88200602Y-40405827D01*
X88140264Y-40551498D01*
X88140261Y-40551510D01*
X88109500Y-40706153D01*
X88109500Y-40863846D01*
X88140261Y-41018489D01*
X88140264Y-41018501D01*
X88200602Y-41164172D01*
X88200609Y-41164185D01*
X88288210Y-41295288D01*
X88288213Y-41295292D01*
X88399707Y-41406786D01*
X88399711Y-41406789D01*
X88530814Y-41494390D01*
X88530827Y-41494397D01*
X88655364Y-41545981D01*
X88676503Y-41554737D01*
X88831153Y-41585499D01*
X88831156Y-41585500D01*
X88831158Y-41585500D01*
X88988844Y-41585500D01*
X88988845Y-41585499D01*
X89143497Y-41554737D01*
X89289179Y-41494394D01*
X89378817Y-41434500D01*
X89420875Y-41406398D01*
X89487553Y-41385520D01*
X89489766Y-41385500D01*
X93259903Y-41385500D01*
X93326942Y-41405185D01*
X93347584Y-41421819D01*
X93550425Y-41624660D01*
X93559488Y-41641258D01*
X93572619Y-41654866D01*
X93583025Y-41684362D01*
X93583910Y-41685983D01*
X93584361Y-41688149D01*
X93602892Y-41781308D01*
X93596665Y-41850900D01*
X93553802Y-41906077D01*
X93487913Y-41929322D01*
X93481275Y-41929500D01*
X79640808Y-41929500D01*
X79573769Y-41909815D01*
X79553127Y-41893181D01*
X76719431Y-39059485D01*
X76685946Y-38998162D01*
X76685495Y-38995995D01*
X76663938Y-38887622D01*
X76659737Y-38866503D01*
X76641732Y-38823034D01*
X76599397Y-38720827D01*
X76599390Y-38720814D01*
X76511789Y-38589711D01*
X76511786Y-38589707D01*
X76400292Y-38478213D01*
X76400288Y-38478210D01*
X76283392Y-38400102D01*
X76238587Y-38346490D01*
X76229880Y-38277165D01*
X76260035Y-38214137D01*
X76319478Y-38177418D01*
X76352283Y-38173000D01*
X76704169Y-38173000D01*
X76704174Y-38173000D01*
X76802685Y-38162936D01*
X76962287Y-38110049D01*
X77105391Y-38021781D01*
X77224281Y-37902891D01*
X77312549Y-37759787D01*
X77365436Y-37600185D01*
X77375500Y-37501674D01*
X77375500Y-36968326D01*
X77365436Y-36869815D01*
X77312549Y-36710213D01*
X77312545Y-36710207D01*
X77312544Y-36710204D01*
X77224283Y-36567112D01*
X77224280Y-36567108D01*
X77192000Y-36534828D01*
X77158515Y-36473505D01*
X77163499Y-36403813D01*
X77192000Y-36359466D01*
X77223885Y-36327580D01*
X77312091Y-36184577D01*
X77312093Y-36184572D01*
X77364942Y-36025083D01*
X77374999Y-35926650D01*
X77375000Y-35926637D01*
X77375000Y-35910000D01*
X76524000Y-35910000D01*
X76456961Y-35890315D01*
X76411206Y-35837511D01*
X76400000Y-35786000D01*
X76400000Y-35660000D01*
X76274000Y-35660000D01*
X76206961Y-35640315D01*
X76161206Y-35587511D01*
X76150000Y-35536000D01*
X76150000Y-35410000D01*
X76650000Y-35410000D01*
X77374999Y-35410000D01*
X77374999Y-35393364D01*
X77374998Y-35393347D01*
X77364943Y-35294916D01*
X77312093Y-35135427D01*
X77312091Y-35135422D01*
X77223885Y-34992419D01*
X77105080Y-34873614D01*
X76962077Y-34785408D01*
X76962072Y-34785406D01*
X76802583Y-34732557D01*
X76704150Y-34722500D01*
X76650000Y-34722500D01*
X76650000Y-35410000D01*
X76150000Y-35410000D01*
X76150000Y-34722500D01*
X76149999Y-34722499D01*
X76095864Y-34722500D01*
X76095847Y-34722501D01*
X75997415Y-34732557D01*
X75837927Y-34785406D01*
X75837922Y-34785408D01*
X75694919Y-34873614D01*
X75656025Y-34912508D01*
X75594702Y-34945993D01*
X75525010Y-34941007D01*
X75480663Y-34912506D01*
X75435189Y-34867031D01*
X75435188Y-34867030D01*
X75434903Y-34866858D01*
X75289606Y-34779022D01*
X75127196Y-34728414D01*
X75127194Y-34728413D01*
X75127192Y-34728413D01*
X75077778Y-34723923D01*
X75056616Y-34722000D01*
X74393384Y-34722000D01*
X74322804Y-34728414D01*
X74282828Y-34740870D01*
X74155975Y-34780398D01*
X74086115Y-34781548D01*
X74026723Y-34744746D01*
X73996655Y-34681677D01*
X73995797Y-34648762D01*
X74000000Y-34609673D01*
X73999999Y-34285328D01*
X73993591Y-34225717D01*
X73993590Y-34225715D01*
X73992904Y-34219329D01*
X73991927Y-34217284D01*
X73992437Y-34203075D01*
X73991311Y-34181995D01*
X73992567Y-34172028D01*
X73993591Y-34169283D01*
X73997529Y-34132647D01*
X73997675Y-34131496D01*
X74011200Y-34100457D01*
X74024152Y-34069192D01*
X74025117Y-34068521D01*
X74025587Y-34067444D01*
X74053741Y-34048648D01*
X74081545Y-34029345D01*
X74083013Y-34029107D01*
X74083698Y-34028650D01*
X74086091Y-34028608D01*
X74120702Y-34023000D01*
X74208844Y-34023000D01*
X74208845Y-34022999D01*
X74363497Y-33992237D01*
X74509179Y-33931894D01*
X74640289Y-33844289D01*
X74751789Y-33732789D01*
X74839394Y-33601679D01*
X74899737Y-33455997D01*
X74930500Y-33301342D01*
X74930500Y-33143658D01*
X74930500Y-33143655D01*
X74930499Y-33143653D01*
X74928384Y-33133020D01*
X74899737Y-32989003D01*
X74867854Y-32912029D01*
X74839397Y-32843327D01*
X74839390Y-32843314D01*
X74751398Y-32711625D01*
X74730520Y-32644947D01*
X74730500Y-32642734D01*
X74730500Y-30770945D01*
X74730500Y-30770943D01*
X74689577Y-30618216D01*
X74649893Y-30549480D01*
X74610524Y-30481290D01*
X74610521Y-30481286D01*
X74610520Y-30481284D01*
X74498716Y-30369480D01*
X74498715Y-30369479D01*
X74494385Y-30365149D01*
X74494374Y-30365139D01*
X74367590Y-30238355D01*
X74367588Y-30238352D01*
X74248717Y-30119481D01*
X74248716Y-30119480D01*
X74161904Y-30069360D01*
X74161904Y-30069359D01*
X74161900Y-30069358D01*
X74111785Y-30040423D01*
X73959057Y-29999499D01*
X73800943Y-29999499D01*
X73793347Y-29999499D01*
X73793331Y-29999500D01*
X70416669Y-29999500D01*
X70416653Y-29999499D01*
X70409057Y-29999499D01*
X70250943Y-29999499D01*
X70143587Y-30028265D01*
X70098210Y-30040424D01*
X70098209Y-30040425D01*
X70048096Y-30069359D01*
X70048095Y-30069360D01*
X70004689Y-30094420D01*
X69961285Y-30119479D01*
X69961282Y-30119481D01*
X69419481Y-30661282D01*
X69419475Y-30661290D01*
X69379210Y-30731033D01*
X69379210Y-30731035D01*
X69340423Y-30798214D01*
X69340423Y-30798215D01*
X69299499Y-30950943D01*
X69299499Y-30950945D01*
X69299499Y-31119053D01*
X69299500Y-31119059D01*
X69299500Y-31696987D01*
X69293024Y-31732878D01*
X69293393Y-31732965D01*
X69291769Y-31739835D01*
X69291683Y-31740316D01*
X69291609Y-31740512D01*
X69291608Y-31740516D01*
X69285201Y-31800116D01*
X69285200Y-31800135D01*
X69285200Y-32208700D01*
X69265515Y-32275739D01*
X69212711Y-32321494D01*
X69161200Y-32332700D01*
X68752629Y-32332700D01*
X68752623Y-32332701D01*
X68693016Y-32339108D01*
X68692823Y-32339181D01*
X68692343Y-32339267D01*
X68685469Y-32340892D01*
X68685381Y-32340523D01*
X68649488Y-32347000D01*
X68174500Y-32347000D01*
X68107461Y-32327315D01*
X68061706Y-32274511D01*
X68050500Y-32223000D01*
X68050500Y-31883308D01*
X68070185Y-31816269D01*
X68086819Y-31795627D01*
X68760272Y-31122174D01*
X68760277Y-31122169D01*
X68831466Y-31015626D01*
X68866542Y-30930943D01*
X68880501Y-30897244D01*
X68884093Y-30879185D01*
X68905500Y-30771571D01*
X68905500Y-25119754D01*
X68925185Y-25052715D01*
X68977989Y-25006960D01*
X68982012Y-25005207D01*
X69053049Y-24975784D01*
X69257450Y-24857773D01*
X69444699Y-24714092D01*
X69444704Y-24714087D01*
X69499648Y-24659144D01*
X69611587Y-24547204D01*
X69611592Y-24547199D01*
X69755273Y-24359950D01*
X69873284Y-24155549D01*
X69963606Y-23937493D01*
X70024693Y-23709514D01*
X70055500Y-23475511D01*
X70055500Y-23239514D01*
X71535000Y-23239514D01*
X71535000Y-23475485D01*
X71565799Y-23709414D01*
X71626870Y-23937337D01*
X71717160Y-24155319D01*
X71717165Y-24155328D01*
X71835144Y-24359671D01*
X71835145Y-24359672D01*
X71897721Y-24441223D01*
X72733958Y-23604987D01*
X72758978Y-23665390D01*
X72830112Y-23771851D01*
X72920649Y-23862388D01*
X73027110Y-23933522D01*
X73087511Y-23958541D01*
X72251275Y-24794777D01*
X72332827Y-24857354D01*
X72332828Y-24857355D01*
X72537171Y-24975334D01*
X72537180Y-24975339D01*
X72755163Y-25065629D01*
X72755161Y-25065629D01*
X72983085Y-25126700D01*
X73217014Y-25157499D01*
X73217029Y-25157500D01*
X73452971Y-25157500D01*
X73452985Y-25157499D01*
X73686914Y-25126700D01*
X73914837Y-25065629D01*
X74132819Y-24975339D01*
X74132828Y-24975334D01*
X74337181Y-24857350D01*
X74418723Y-24794779D01*
X74418723Y-24794776D01*
X73582487Y-23958541D01*
X73642890Y-23933522D01*
X73749351Y-23862388D01*
X73839888Y-23771851D01*
X73911022Y-23665390D01*
X73936041Y-23604987D01*
X74772276Y-24441223D01*
X74772279Y-24441223D01*
X74834850Y-24359681D01*
X74952834Y-24155328D01*
X74952839Y-24155319D01*
X75043129Y-23937337D01*
X75104200Y-23709414D01*
X75126512Y-23539952D01*
X75126512Y-23539951D01*
X75134998Y-23475488D01*
X75135000Y-23475471D01*
X75135000Y-23239528D01*
X75134999Y-23239514D01*
X75104200Y-23005585D01*
X75043129Y-22777662D01*
X74952839Y-22559680D01*
X74952834Y-22559671D01*
X74834855Y-22355328D01*
X74834848Y-22355317D01*
X74815309Y-22329854D01*
X74815306Y-22329851D01*
X74772277Y-22273775D01*
X73936041Y-23110011D01*
X73911022Y-23049610D01*
X73839888Y-22943149D01*
X73749351Y-22852612D01*
X73642890Y-22781478D01*
X73582488Y-22756458D01*
X74081432Y-22257513D01*
X76615000Y-22257513D01*
X76615000Y-23107500D01*
X77814999Y-23107500D01*
X77789979Y-23167902D01*
X77765000Y-23293481D01*
X77765000Y-23421519D01*
X77789979Y-23547098D01*
X77814999Y-23607500D01*
X76615001Y-23607500D01*
X76615001Y-24457486D01*
X76625494Y-24560197D01*
X76680641Y-24726619D01*
X76680643Y-24726624D01*
X76772684Y-24875845D01*
X76896654Y-24999815D01*
X77045875Y-25091856D01*
X77045880Y-25091858D01*
X77212302Y-25147005D01*
X77212309Y-25147006D01*
X77315019Y-25157499D01*
X78164999Y-25157499D01*
X78165000Y-25157498D01*
X78165000Y-23957501D01*
X78225402Y-23982521D01*
X78350981Y-24007500D01*
X78479019Y-24007500D01*
X78604598Y-23982521D01*
X78665000Y-23957501D01*
X78665000Y-25157499D01*
X79514972Y-25157499D01*
X79514986Y-25157498D01*
X79617697Y-25147005D01*
X79784119Y-25091858D01*
X79784124Y-25091856D01*
X79933345Y-24999815D01*
X80057315Y-24875845D01*
X80149356Y-24726624D01*
X80149358Y-24726619D01*
X80204505Y-24560197D01*
X80204506Y-24560190D01*
X80214999Y-24457486D01*
X80215000Y-24457473D01*
X80215000Y-23607500D01*
X79015001Y-23607500D01*
X79040021Y-23547098D01*
X79065000Y-23421519D01*
X79065000Y-23293481D01*
X79040021Y-23167902D01*
X79015001Y-23107500D01*
X80214999Y-23107500D01*
X80214999Y-22257528D01*
X80214998Y-22257513D01*
X80204505Y-22154802D01*
X80149358Y-21988380D01*
X80149356Y-21988375D01*
X80057315Y-21839154D01*
X79933345Y-21715184D01*
X79784124Y-21623143D01*
X79784119Y-21623141D01*
X79617697Y-21567994D01*
X79617690Y-21567993D01*
X79514986Y-21557500D01*
X78665000Y-21557500D01*
X78665000Y-22757498D01*
X78604598Y-22732479D01*
X78479019Y-22707500D01*
X78350981Y-22707500D01*
X78225402Y-22732479D01*
X78165000Y-22757498D01*
X78165000Y-21557500D01*
X77315028Y-21557500D01*
X77315012Y-21557501D01*
X77212302Y-21567994D01*
X77045880Y-21623141D01*
X77045875Y-21623143D01*
X76896654Y-21715184D01*
X76772684Y-21839154D01*
X76680643Y-21988375D01*
X76680641Y-21988380D01*
X76625494Y-22154802D01*
X76625493Y-22154809D01*
X76615000Y-22257513D01*
X74081432Y-22257513D01*
X74418723Y-21920221D01*
X74337172Y-21857645D01*
X74337171Y-21857644D01*
X74132828Y-21739665D01*
X74132819Y-21739660D01*
X73914836Y-21649370D01*
X73914838Y-21649370D01*
X73686914Y-21588299D01*
X73452985Y-21557500D01*
X73217014Y-21557500D01*
X72983085Y-21588299D01*
X72755162Y-21649370D01*
X72537180Y-21739660D01*
X72537171Y-21739665D01*
X72332828Y-21857644D01*
X72332818Y-21857650D01*
X72251275Y-21920220D01*
X72251275Y-21920221D01*
X73087512Y-22756458D01*
X73027110Y-22781478D01*
X72920649Y-22852612D01*
X72830112Y-22943149D01*
X72758978Y-23049610D01*
X72733958Y-23110011D01*
X71897721Y-22273775D01*
X71897720Y-22273775D01*
X71835150Y-22355318D01*
X71835144Y-22355328D01*
X71717165Y-22559671D01*
X71717160Y-22559680D01*
X71626870Y-22777662D01*
X71565799Y-23005585D01*
X71535000Y-23239514D01*
X70055500Y-23239514D01*
X70055500Y-23239489D01*
X70024693Y-23005486D01*
X69963606Y-22777507D01*
X69934195Y-22706503D01*
X69926726Y-22637033D01*
X69958001Y-22574554D01*
X69961046Y-22571398D01*
X71658127Y-20874319D01*
X71719450Y-20840834D01*
X71745808Y-20838000D01*
X80404192Y-20838000D01*
X80471231Y-20857685D01*
X80491873Y-20874319D01*
X81758181Y-22140627D01*
X81791666Y-22201950D01*
X81794500Y-22228308D01*
X81794500Y-30986691D01*
X81774815Y-31053730D01*
X81758181Y-31074372D01*
X81394727Y-31437825D01*
X81394721Y-31437832D01*
X81331802Y-31531997D01*
X81331803Y-31531998D01*
X81323535Y-31544371D01*
X81274499Y-31662755D01*
X81274497Y-31662761D01*
X81249500Y-31788428D01*
X81249500Y-32810452D01*
X81229815Y-32877491D01*
X81202410Y-32907719D01*
X81196958Y-32912029D01*
X81077029Y-33031959D01*
X80988001Y-33176294D01*
X80987996Y-33176305D01*
X80934651Y-33337290D01*
X80924500Y-33436647D01*
X80924500Y-33983337D01*
X80924501Y-33983355D01*
X80934650Y-34082707D01*
X80934651Y-34082710D01*
X80987996Y-34243694D01*
X80988001Y-34243705D01*
X81077029Y-34388040D01*
X81077032Y-34388044D01*
X81086660Y-34397672D01*
X81120145Y-34458995D01*
X81115161Y-34528687D01*
X81086663Y-34573031D01*
X81077428Y-34582265D01*
X81077424Y-34582271D01*
X80988457Y-34726507D01*
X80988452Y-34726518D01*
X80935144Y-34887393D01*
X80925000Y-34986677D01*
X80925000Y-35010000D01*
X81776000Y-35010000D01*
X81843039Y-35029685D01*
X81888794Y-35082489D01*
X81900000Y-35134000D01*
X81900000Y-35386000D01*
X81880315Y-35453039D01*
X81827511Y-35498794D01*
X81776000Y-35510000D01*
X80925001Y-35510000D01*
X80925001Y-35533322D01*
X80935144Y-35632607D01*
X80988452Y-35793481D01*
X80988457Y-35793492D01*
X81077424Y-35937728D01*
X81077427Y-35937732D01*
X81154337Y-36014642D01*
X81187822Y-36075965D01*
X81182838Y-36145657D01*
X81154338Y-36190004D01*
X81069529Y-36274813D01*
X80981522Y-36420393D01*
X80930913Y-36582807D01*
X80927256Y-36623054D01*
X80924500Y-36653384D01*
X80924500Y-37166616D01*
X80926423Y-37187778D01*
X80930913Y-37237192D01*
X80930913Y-37237194D01*
X80930914Y-37237196D01*
X80981522Y-37399606D01*
X81055068Y-37521266D01*
X81069530Y-37545188D01*
X81171661Y-37647319D01*
X81205146Y-37708642D01*
X81200162Y-37778334D01*
X81171661Y-37822681D01*
X81069531Y-37924810D01*
X81069530Y-37924811D01*
X80981522Y-38070393D01*
X80930913Y-38232807D01*
X80926809Y-38277972D01*
X80924500Y-38303384D01*
X80924500Y-38816616D01*
X80926423Y-38837778D01*
X80930913Y-38887192D01*
X80930913Y-38887194D01*
X80930914Y-38887196D01*
X80981522Y-39049606D01*
X81037790Y-39142685D01*
X81069530Y-39195188D01*
X81189811Y-39315469D01*
X81189813Y-39315470D01*
X81189815Y-39315472D01*
X81239650Y-39345598D01*
X81246916Y-39353532D01*
X81256703Y-39358002D01*
X81270100Y-39378849D01*
X81286838Y-39397126D01*
X81289657Y-39409280D01*
X81294477Y-39416780D01*
X81299500Y-39451715D01*
X81299500Y-39588330D01*
X81299499Y-39588348D01*
X81299499Y-39754054D01*
X81299498Y-39754054D01*
X81340423Y-39906785D01*
X81352021Y-39926873D01*
X81419477Y-40043712D01*
X81419481Y-40043717D01*
X81625426Y-40249662D01*
X81658911Y-40310985D01*
X81659362Y-40313151D01*
X81690261Y-40468491D01*
X81690264Y-40468501D01*
X81750602Y-40614172D01*
X81750609Y-40614185D01*
X81838210Y-40745288D01*
X81838213Y-40745292D01*
X81949707Y-40856786D01*
X81949711Y-40856789D01*
X82080814Y-40944390D01*
X82080827Y-40944397D01*
X82194024Y-40991284D01*
X82226503Y-41004737D01*
X82381153Y-41035499D01*
X82381156Y-41035500D01*
X82381158Y-41035500D01*
X82538844Y-41035500D01*
X82538845Y-41035499D01*
X82693497Y-41004737D01*
X82839179Y-40944394D01*
X82970289Y-40856789D01*
X83081789Y-40745289D01*
X83169394Y-40614179D01*
X83229737Y-40468497D01*
X83245163Y-40390943D01*
X83277547Y-40329034D01*
X83338263Y-40294460D01*
X83408032Y-40298199D01*
X83433211Y-40312013D01*
X83433707Y-40311194D01*
X83585604Y-40403019D01*
X83585603Y-40403019D01*
X83747894Y-40453590D01*
X83747892Y-40453590D01*
X83818418Y-40459999D01*
X84400000Y-40459999D01*
X84481581Y-40459999D01*
X84552102Y-40453591D01*
X84552107Y-40453590D01*
X84714396Y-40403018D01*
X84859877Y-40315072D01*
X84980072Y-40194877D01*
X85068019Y-40049395D01*
X85118590Y-39887106D01*
X85124999Y-39816582D01*
X85425001Y-39816582D01*
X85431408Y-39887102D01*
X85431409Y-39887107D01*
X85481981Y-40049396D01*
X85569927Y-40194877D01*
X85690122Y-40315072D01*
X85835604Y-40403019D01*
X85835603Y-40403019D01*
X85997894Y-40453590D01*
X85997892Y-40453590D01*
X86068418Y-40459999D01*
X86650000Y-40459999D01*
X86731581Y-40459999D01*
X86802102Y-40453591D01*
X86802107Y-40453590D01*
X86964396Y-40403018D01*
X87109877Y-40315072D01*
X87230072Y-40194877D01*
X87318019Y-40049395D01*
X87368590Y-39887106D01*
X87375000Y-39816572D01*
X87375000Y-39810000D01*
X86650000Y-39810000D01*
X86650000Y-40459999D01*
X86068418Y-40459999D01*
X86149999Y-40459998D01*
X86150000Y-40459998D01*
X86150000Y-39810000D01*
X85425001Y-39810000D01*
X85425001Y-39816582D01*
X85124999Y-39816582D01*
X85125000Y-39816572D01*
X85125000Y-39810000D01*
X84400000Y-39810000D01*
X84400000Y-40459999D01*
X83818418Y-40459999D01*
X83899999Y-40459998D01*
X83900000Y-40459998D01*
X83900000Y-39810000D01*
X83205057Y-39810000D01*
X83138018Y-39790315D01*
X83101955Y-39754891D01*
X83081789Y-39724711D01*
X83081786Y-39724707D01*
X82970292Y-39613213D01*
X82970288Y-39613210D01*
X82839185Y-39525609D01*
X82839175Y-39525604D01*
X82700121Y-39468006D01*
X82645718Y-39424165D01*
X82623653Y-39357871D01*
X82640932Y-39290171D01*
X82659889Y-39265767D01*
X82730472Y-39195185D01*
X82818478Y-39049606D01*
X82869086Y-38887196D01*
X82875500Y-38816616D01*
X82875500Y-38303384D01*
X82869086Y-38232804D01*
X82818478Y-38070394D01*
X82730472Y-37924815D01*
X82730470Y-37924813D01*
X82730469Y-37924811D01*
X82628339Y-37822681D01*
X82624000Y-37814735D01*
X82616753Y-37809310D01*
X82607518Y-37784550D01*
X82594854Y-37761358D01*
X82595499Y-37752328D01*
X82592336Y-37743846D01*
X82597952Y-37718025D01*
X82599838Y-37691666D01*
X82605656Y-37682612D01*
X82607188Y-37675573D01*
X82628339Y-37647319D01*
X82728839Y-37546819D01*
X82790162Y-37513334D01*
X82816520Y-37510500D01*
X82945831Y-37510500D01*
X82945847Y-37510501D01*
X83051705Y-37510501D01*
X83118744Y-37530186D01*
X83164499Y-37582990D01*
X83175196Y-37645716D01*
X83174500Y-37653384D01*
X83174500Y-38166616D01*
X83175482Y-38177418D01*
X83180913Y-38237192D01*
X83180913Y-38237194D01*
X83180914Y-38237196D01*
X83231522Y-38399606D01*
X83251151Y-38432077D01*
X83319530Y-38545188D01*
X83422015Y-38647673D01*
X83455500Y-38708996D01*
X83450516Y-38778688D01*
X83422015Y-38823035D01*
X83319928Y-38925121D01*
X83319927Y-38925122D01*
X83231980Y-39070604D01*
X83181409Y-39232893D01*
X83175000Y-39303427D01*
X83175000Y-39310000D01*
X85124999Y-39310000D01*
X85124999Y-39303417D01*
X85118591Y-39232897D01*
X85118590Y-39232892D01*
X85068018Y-39070603D01*
X84980072Y-38925122D01*
X84877984Y-38823034D01*
X84844499Y-38761711D01*
X84849483Y-38692019D01*
X84877983Y-38647673D01*
X84980472Y-38545185D01*
X85068478Y-38399606D01*
X85119086Y-38237196D01*
X85125500Y-38166616D01*
X85125500Y-37653384D01*
X85124544Y-37642868D01*
X85126814Y-37631371D01*
X85124596Y-37619861D01*
X85133460Y-37597718D01*
X85138080Y-37574325D01*
X85146207Y-37565878D01*
X85150564Y-37554996D01*
X85169989Y-37541162D01*
X85186525Y-37523978D01*
X85197928Y-37521266D01*
X85207477Y-37514467D01*
X85231300Y-37513331D01*
X85254500Y-37507816D01*
X85267331Y-37511615D01*
X85277268Y-37511142D01*
X85310031Y-37524258D01*
X85358216Y-37552077D01*
X85358218Y-37552077D01*
X85362499Y-37554549D01*
X85410715Y-37605116D01*
X85424500Y-37661937D01*
X85424500Y-38166616D01*
X85425482Y-38177418D01*
X85430913Y-38237192D01*
X85430913Y-38237194D01*
X85430914Y-38237196D01*
X85481522Y-38399606D01*
X85501151Y-38432077D01*
X85569530Y-38545188D01*
X85672015Y-38647673D01*
X85705500Y-38708996D01*
X85700516Y-38778688D01*
X85672015Y-38823035D01*
X85569928Y-38925121D01*
X85569927Y-38925122D01*
X85481980Y-39070604D01*
X85431409Y-39232893D01*
X85425000Y-39303427D01*
X85425000Y-39310000D01*
X87374999Y-39310000D01*
X87374999Y-39303417D01*
X87368591Y-39232897D01*
X87368590Y-39232892D01*
X87318018Y-39070603D01*
X87230072Y-38925122D01*
X87127984Y-38823034D01*
X87094499Y-38761711D01*
X87099483Y-38692019D01*
X87127983Y-38647673D01*
X87230472Y-38545185D01*
X87318478Y-38399606D01*
X87369086Y-38237196D01*
X87375500Y-38166616D01*
X87375500Y-37653384D01*
X87369086Y-37582804D01*
X87318478Y-37420394D01*
X87230472Y-37274815D01*
X87230470Y-37274813D01*
X87230469Y-37274811D01*
X87130345Y-37174687D01*
X87096860Y-37113364D01*
X87101844Y-37043672D01*
X87143716Y-36987739D01*
X87174693Y-36970824D01*
X87256386Y-36940354D01*
X87256393Y-36940350D01*
X87371487Y-36854190D01*
X87371490Y-36854187D01*
X87457650Y-36739093D01*
X87457654Y-36739086D01*
X87507896Y-36604379D01*
X87507898Y-36604372D01*
X87514299Y-36544844D01*
X87514300Y-36544827D01*
X87514300Y-36136299D01*
X87533985Y-36069260D01*
X87586789Y-36023505D01*
X87638297Y-36012299D01*
X88019202Y-36012299D01*
X88048642Y-36020943D01*
X88078629Y-36027467D01*
X88083644Y-36031221D01*
X88086241Y-36031984D01*
X88106883Y-36048618D01*
X88110139Y-36051874D01*
X88110149Y-36051885D01*
X88114479Y-36056215D01*
X88114480Y-36056216D01*
X88226284Y-36168020D01*
X88313095Y-36218139D01*
X88363215Y-36247077D01*
X88514468Y-36287605D01*
X88519135Y-36289266D01*
X88536180Y-36301625D01*
X88565256Y-36318413D01*
X88671661Y-36424818D01*
X88705146Y-36486141D01*
X88700162Y-36555833D01*
X88671662Y-36600180D01*
X88569529Y-36702313D01*
X88481522Y-36847893D01*
X88430913Y-37010307D01*
X88425782Y-37066775D01*
X88424500Y-37080884D01*
X88424500Y-37594116D01*
X88425052Y-37600185D01*
X88430913Y-37664692D01*
X88430913Y-37664694D01*
X88430914Y-37664696D01*
X88481522Y-37827106D01*
X88568223Y-37970527D01*
X88569530Y-37972688D01*
X88689811Y-38092969D01*
X88689813Y-38092970D01*
X88689815Y-38092972D01*
X88835394Y-38180978D01*
X88997804Y-38231586D01*
X89068384Y-38238000D01*
X89068387Y-38238000D01*
X89731613Y-38238000D01*
X89731616Y-38238000D01*
X89802196Y-38231586D01*
X89964606Y-38180978D01*
X90110185Y-38092972D01*
X90132764Y-38070393D01*
X90192812Y-38010346D01*
X90254135Y-37976861D01*
X90323827Y-37981845D01*
X90368174Y-38010346D01*
X90444608Y-38086780D01*
X90444612Y-38086783D01*
X90587704Y-38175044D01*
X90587707Y-38175045D01*
X90587713Y-38175049D01*
X90747315Y-38227936D01*
X90845826Y-38238000D01*
X90845831Y-38238000D01*
X91454169Y-38238000D01*
X91454174Y-38238000D01*
X91552685Y-38227936D01*
X91712287Y-38175049D01*
X91855391Y-38086781D01*
X91974281Y-37967891D01*
X92062549Y-37824787D01*
X92115436Y-37665185D01*
X92125500Y-37566674D01*
X92125500Y-37033326D01*
X92115436Y-36934815D01*
X92062549Y-36775213D01*
X92062545Y-36775207D01*
X92062544Y-36775204D01*
X91974283Y-36632112D01*
X91974280Y-36632108D01*
X91942000Y-36599828D01*
X91908515Y-36538505D01*
X91913499Y-36468813D01*
X91942000Y-36424466D01*
X91973885Y-36392580D01*
X92062091Y-36249577D01*
X92062093Y-36249572D01*
X92114942Y-36090083D01*
X92124999Y-35991650D01*
X92125000Y-35991637D01*
X92125000Y-35975000D01*
X91274000Y-35975000D01*
X91206961Y-35955315D01*
X91161206Y-35902511D01*
X91150000Y-35851000D01*
X91150000Y-35725000D01*
X91024000Y-35725000D01*
X90956961Y-35705315D01*
X90911206Y-35652511D01*
X90900000Y-35601000D01*
X90900000Y-35475000D01*
X91400000Y-35475000D01*
X92124999Y-35475000D01*
X92124999Y-35458364D01*
X92124998Y-35458347D01*
X92114943Y-35359916D01*
X92062093Y-35200427D01*
X92062091Y-35200422D01*
X91973885Y-35057419D01*
X91855080Y-34938614D01*
X91712077Y-34850408D01*
X91712072Y-34850406D01*
X91552583Y-34797557D01*
X91454150Y-34787500D01*
X91400000Y-34787500D01*
X91400000Y-35475000D01*
X90900000Y-35475000D01*
X90900000Y-34761391D01*
X90897919Y-34757580D01*
X90897919Y-34757574D01*
X90897916Y-34757568D01*
X90900451Y-34722179D01*
X90902903Y-34687888D01*
X90902907Y-34687881D01*
X90902908Y-34687877D01*
X90925956Y-34657094D01*
X90944775Y-34631955D01*
X90944781Y-34631951D01*
X90944785Y-34631947D01*
X90944796Y-34631942D01*
X90971627Y-34616664D01*
X90989179Y-34609394D01*
X91120289Y-34521789D01*
X91231789Y-34410289D01*
X91319394Y-34279179D01*
X91379737Y-34133497D01*
X91396744Y-34048000D01*
X91411689Y-33972868D01*
X91413812Y-33973290D01*
X91436315Y-33917560D01*
X91493349Y-33877200D01*
X91533558Y-33870500D01*
X101279192Y-33870500D01*
X101346231Y-33890185D01*
X101366873Y-33906819D01*
X102022984Y-34562930D01*
X102056469Y-34624253D01*
X102056920Y-34626420D01*
X102070261Y-34693489D01*
X102070264Y-34693501D01*
X102130602Y-34839172D01*
X102130609Y-34839185D01*
X102218210Y-34970288D01*
X102218213Y-34970292D01*
X102329707Y-35081786D01*
X102329711Y-35081789D01*
X102460814Y-35169390D01*
X102460827Y-35169397D01*
X102606498Y-35229735D01*
X102606503Y-35229737D01*
X102745669Y-35257419D01*
X102761153Y-35260499D01*
X102761156Y-35260500D01*
X102761158Y-35260500D01*
X102918844Y-35260500D01*
X102918845Y-35260499D01*
X103073497Y-35229737D01*
X103219179Y-35169394D01*
X103350289Y-35081789D01*
X103461789Y-34970289D01*
X103549394Y-34839179D01*
X103609737Y-34693497D01*
X103640500Y-34538842D01*
X103640500Y-34381158D01*
X103640500Y-34381155D01*
X103640499Y-34381153D01*
X103630651Y-34331644D01*
X103609737Y-34226503D01*
X103609735Y-34226498D01*
X103549397Y-34080827D01*
X103549390Y-34080814D01*
X103461789Y-33949711D01*
X103461786Y-33949707D01*
X103350292Y-33838213D01*
X103350288Y-33838210D01*
X103219185Y-33750609D01*
X103219172Y-33750602D01*
X103073501Y-33690264D01*
X103073489Y-33690261D01*
X103006420Y-33676920D01*
X102944509Y-33644535D01*
X102942930Y-33642984D01*
X102014674Y-32714727D01*
X102014673Y-32714726D01*
X102010909Y-32712211D01*
X101908127Y-32643535D01*
X101906193Y-32642734D01*
X101789744Y-32594499D01*
X101771495Y-32590869D01*
X101664071Y-32569500D01*
X101664069Y-32569500D01*
X90114500Y-32569500D01*
X90047461Y-32549815D01*
X90001706Y-32497011D01*
X89990500Y-32445500D01*
X89990500Y-31505928D01*
X89965502Y-31380261D01*
X89965501Y-31380260D01*
X89965501Y-31380256D01*
X89931223Y-31297501D01*
X89921070Y-31272989D01*
X89916469Y-31261880D01*
X89916467Y-31261877D01*
X89916466Y-31261874D01*
X89913517Y-31257461D01*
X89845278Y-31155332D01*
X89845272Y-31155325D01*
X89194673Y-30504726D01*
X89194669Y-30504723D01*
X89088127Y-30433535D01*
X89058246Y-30421158D01*
X88969744Y-30384499D01*
X88969738Y-30384497D01*
X88844071Y-30359500D01*
X88844069Y-30359500D01*
X86964069Y-30359500D01*
X86464069Y-30359500D01*
X85964069Y-30359500D01*
X85464069Y-30359500D01*
X84964069Y-30359500D01*
X84655931Y-30359500D01*
X84655929Y-30359500D01*
X84530261Y-30384497D01*
X84530255Y-30384499D01*
X84411870Y-30433535D01*
X84305331Y-30504722D01*
X84305324Y-30504728D01*
X83894724Y-30915328D01*
X83859052Y-30968715D01*
X83859053Y-30968716D01*
X83823534Y-31021874D01*
X83774499Y-31140255D01*
X83774497Y-31140261D01*
X83749500Y-31265928D01*
X83749500Y-32158700D01*
X83729815Y-32225739D01*
X83677011Y-32271494D01*
X83625500Y-32282700D01*
X83252630Y-32282700D01*
X83252623Y-32282701D01*
X83193016Y-32289108D01*
X83192823Y-32289181D01*
X83192343Y-32289267D01*
X83185469Y-32290892D01*
X83185381Y-32290523D01*
X83149488Y-32297000D01*
X82674808Y-32297000D01*
X82607769Y-32277315D01*
X82562014Y-32224511D01*
X82552070Y-32155353D01*
X82581095Y-32091797D01*
X82587127Y-32085319D01*
X82950271Y-31722175D01*
X82950276Y-31722170D01*
X83021465Y-31615627D01*
X83070501Y-31497244D01*
X83079799Y-31450500D01*
X83095500Y-31371569D01*
X83095500Y-22682000D01*
X83115185Y-22614961D01*
X83167989Y-22569206D01*
X83219500Y-22558000D01*
X86106692Y-22558000D01*
X86136132Y-22566644D01*
X86166119Y-22573168D01*
X86171134Y-22576922D01*
X86173731Y-22577685D01*
X86194373Y-22594319D01*
X86363181Y-22763127D01*
X86396666Y-22824450D01*
X86399500Y-22850808D01*
X86399500Y-24345064D01*
X86379815Y-24412103D01*
X86378603Y-24413954D01*
X86340608Y-24470817D01*
X86340602Y-24470828D01*
X86280264Y-24616498D01*
X86280261Y-24616510D01*
X86249500Y-24771153D01*
X86249500Y-24928846D01*
X86280261Y-25083489D01*
X86280264Y-25083501D01*
X86340602Y-25229172D01*
X86340609Y-25229185D01*
X86428210Y-25360288D01*
X86428213Y-25360292D01*
X86539707Y-25471786D01*
X86539711Y-25471789D01*
X86670814Y-25559390D01*
X86670827Y-25559397D01*
X86816498Y-25619735D01*
X86816503Y-25619737D01*
X86971153Y-25650499D01*
X86971156Y-25650500D01*
X86971158Y-25650500D01*
X87128844Y-25650500D01*
X87128845Y-25650499D01*
X87283497Y-25619737D01*
X87429179Y-25559394D01*
X87560289Y-25471789D01*
X87671789Y-25360289D01*
X87759394Y-25229179D01*
X87819737Y-25083497D01*
X87850500Y-24928842D01*
X87850500Y-24771158D01*
X87850500Y-24771155D01*
X87850499Y-24771153D01*
X87819737Y-24616503D01*
X87819735Y-24616498D01*
X87759397Y-24470828D01*
X87759396Y-24470827D01*
X87759394Y-24470821D01*
X87721396Y-24413953D01*
X87700520Y-24347276D01*
X87700500Y-24345064D01*
X87700500Y-22465928D01*
X87675502Y-22340261D01*
X87675501Y-22340260D01*
X87675501Y-22340256D01*
X87626465Y-22221873D01*
X87621496Y-22214436D01*
X87616527Y-22206999D01*
X87555275Y-22115328D01*
X86842173Y-21402226D01*
X86842169Y-21402223D01*
X86735627Y-21331035D01*
X86617244Y-21281999D01*
X86617238Y-21281997D01*
X86491571Y-21257000D01*
X86491569Y-21257000D01*
X82765808Y-21257000D01*
X82698769Y-21237315D01*
X82678127Y-21220681D01*
X81139674Y-19682227D01*
X81139673Y-19682226D01*
X81139669Y-19682223D01*
X81033127Y-19611035D01*
X80914744Y-19561999D01*
X80914738Y-19561997D01*
X80789071Y-19537000D01*
X80789069Y-19537000D01*
X71360931Y-19537000D01*
X71360929Y-19537000D01*
X71235261Y-19561997D01*
X71235255Y-19561999D01*
X71116874Y-19611034D01*
X71010326Y-19682226D01*
X69041128Y-21651424D01*
X68979805Y-21684909D01*
X68910113Y-21679925D01*
X68906009Y-21678310D01*
X68834993Y-21648894D01*
X68607014Y-21587807D01*
X68607013Y-21587806D01*
X68607010Y-21587806D01*
X68373020Y-21557001D01*
X68373017Y-21557000D01*
X68373011Y-21557000D01*
X68136989Y-21557000D01*
X68136983Y-21557000D01*
X68136979Y-21557001D01*
X67902989Y-21587806D01*
X67675006Y-21648894D01*
X67456954Y-21739214D01*
X67456943Y-21739219D01*
X67252545Y-21857230D01*
X67065302Y-22000906D01*
X67065295Y-22000912D01*
X66898412Y-22167795D01*
X66898406Y-22167802D01*
X66754730Y-22355045D01*
X66754727Y-22355049D01*
X66754727Y-22355050D01*
X66747014Y-22368409D01*
X66636719Y-22559443D01*
X66636711Y-22559459D01*
X66607306Y-22630452D01*
X66563465Y-22684856D01*
X66497171Y-22706921D01*
X66492745Y-22707000D01*
X64937255Y-22707000D01*
X64870216Y-22687315D01*
X64824461Y-22634511D01*
X64822694Y-22630452D01*
X64793288Y-22559459D01*
X64793280Y-22559443D01*
X64739288Y-22465928D01*
X64675273Y-22355050D01*
X64573083Y-22221873D01*
X64531593Y-22167802D01*
X64531587Y-22167795D01*
X64364704Y-22000912D01*
X64364697Y-22000906D01*
X64177454Y-21857230D01*
X64177453Y-21857229D01*
X64177450Y-21857227D01*
X64095957Y-21810177D01*
X63973056Y-21739219D01*
X63973045Y-21739214D01*
X63754993Y-21648894D01*
X63527010Y-21587806D01*
X63293020Y-21557001D01*
X63293017Y-21557000D01*
X63293011Y-21557000D01*
X63056989Y-21557000D01*
X63056983Y-21557000D01*
X63056979Y-21557001D01*
X62822989Y-21587806D01*
X62595006Y-21648894D01*
X62376954Y-21739214D01*
X62376943Y-21739219D01*
X62172545Y-21857230D01*
X61985302Y-22000906D01*
X61985295Y-22000912D01*
X61818412Y-22167795D01*
X61818406Y-22167802D01*
X61674730Y-22355045D01*
X61674727Y-22355049D01*
X61674727Y-22355050D01*
X61667014Y-22368409D01*
X61556719Y-22559443D01*
X61556714Y-22559454D01*
X61466394Y-22777506D01*
X61405306Y-23005489D01*
X61374501Y-23239479D01*
X61374500Y-23239495D01*
X61374500Y-23475504D01*
X61374501Y-23475520D01*
X61405306Y-23709510D01*
X61466394Y-23937493D01*
X61556714Y-24155545D01*
X61556719Y-24155556D01*
X61627677Y-24278457D01*
X61674727Y-24359950D01*
X61674729Y-24359953D01*
X61674730Y-24359954D01*
X61818406Y-24547197D01*
X61818412Y-24547204D01*
X61985295Y-24714087D01*
X61985302Y-24714093D01*
X62095306Y-24798501D01*
X62172550Y-24857773D01*
X62376951Y-24975784D01*
X62447952Y-25005193D01*
X62463517Y-25017736D01*
X62481703Y-25026041D01*
X62490166Y-25039209D01*
X62502355Y-25049032D01*
X62508668Y-25068001D01*
X62519477Y-25084819D01*
X62523439Y-25112376D01*
X62524421Y-25115326D01*
X62524500Y-25119754D01*
X62524500Y-25163000D01*
X62504815Y-25230039D01*
X62452011Y-25275794D01*
X62400500Y-25287000D01*
X48720929Y-25287000D01*
X48595261Y-25311997D01*
X48595255Y-25311999D01*
X48476874Y-25361034D01*
X48370326Y-25432226D01*
X48370325Y-25432227D01*
X47151873Y-26650681D01*
X47090550Y-26684166D01*
X47064192Y-26687000D01*
X40950929Y-26687000D01*
X40825261Y-26711997D01*
X40825255Y-26711999D01*
X40706870Y-26761035D01*
X40600331Y-26832222D01*
X40600324Y-26832228D01*
X39309726Y-28122826D01*
X39238534Y-28229374D01*
X39189499Y-28347755D01*
X39189497Y-28347761D01*
X39164500Y-28473428D01*
X39164500Y-29783000D01*
X39144815Y-29850039D01*
X39092011Y-29895794D01*
X39040502Y-29907000D01*
X38967130Y-29907000D01*
X38967123Y-29907001D01*
X38907516Y-29913408D01*
X38772671Y-29963702D01*
X38772664Y-29963706D01*
X38657455Y-30049952D01*
X38657452Y-30049955D01*
X38571206Y-30165164D01*
X38571202Y-30165171D01*
X38520908Y-30300017D01*
X38514501Y-30359616D01*
X38514501Y-30359623D01*
X38514500Y-30359635D01*
X38514500Y-31383000D01*
X38494815Y-31450039D01*
X38442011Y-31495794D01*
X38390500Y-31507000D01*
X36120929Y-31507000D01*
X35995261Y-31531997D01*
X35995257Y-31531998D01*
X35965383Y-31544373D01*
X35876874Y-31581034D01*
X35770326Y-31652226D01*
X34182227Y-33240325D01*
X34182221Y-33240332D01*
X34141313Y-33301556D01*
X34141314Y-33301557D01*
X34111034Y-33346874D01*
X34061999Y-33465255D01*
X34061997Y-33465261D01*
X34037000Y-33590928D01*
X34037000Y-44921570D01*
X34042781Y-44950632D01*
X34049335Y-44983581D01*
X34049617Y-44984996D01*
X34052000Y-45009189D01*
X34052000Y-47684071D01*
X34067325Y-47761111D01*
X34067325Y-47761112D01*
X34076997Y-47809736D01*
X34076999Y-47809744D01*
X34105974Y-47879697D01*
X34126035Y-47928127D01*
X34197223Y-48034669D01*
X34197226Y-48034673D01*
X34197227Y-48034674D01*
X34734099Y-48571545D01*
X34767584Y-48632868D01*
X34762600Y-48702559D01*
X34749521Y-48728116D01*
X34683534Y-48826874D01*
X34634499Y-48945255D01*
X34634497Y-48945261D01*
X34609500Y-49070928D01*
X34609500Y-49070931D01*
X34609500Y-69924069D01*
X34609500Y-69924071D01*
X34609499Y-69924071D01*
X34631886Y-70036608D01*
X34631887Y-70036612D01*
X34634499Y-70049744D01*
X34683535Y-70168127D01*
X34754723Y-70274669D01*
X34754726Y-70274673D01*
X38745328Y-74265275D01*
X38770955Y-74282398D01*
X38815760Y-74336010D01*
X38824467Y-74405335D01*
X38794313Y-74468362D01*
X38734870Y-74505082D01*
X38702064Y-74509500D01*
X33724500Y-74509500D01*
X33657461Y-74489815D01*
X33611706Y-74437011D01*
X33600500Y-74385500D01*
X33600500Y-16774500D01*
X33620185Y-16707461D01*
X33672989Y-16661706D01*
X33724500Y-16650500D01*
X113665500Y-16650500D01*
X113732539Y-16670185D01*
G37*
%TD.AperFunction*%
%TA.AperFunction,Conductor*%
G36*
X59726240Y-36081984D02*
G01*
X59746882Y-36098618D01*
X60001284Y-36353020D01*
X60001286Y-36353021D01*
X60001290Y-36353024D01*
X60117980Y-36420394D01*
X60138216Y-36432077D01*
X60252746Y-36462766D01*
X60266870Y-36470987D01*
X60280851Y-36474134D01*
X60299242Y-36489832D01*
X60308954Y-36495486D01*
X60317225Y-36503876D01*
X60319528Y-36507685D01*
X60422006Y-36610163D01*
X60422285Y-36610446D01*
X60438626Y-36640887D01*
X60455146Y-36671141D01*
X60455113Y-36671600D01*
X60455331Y-36672006D01*
X60452623Y-36706415D01*
X60450162Y-36740833D01*
X60449880Y-36741270D01*
X60449850Y-36741660D01*
X60448426Y-36743533D01*
X60421662Y-36785180D01*
X60319529Y-36887313D01*
X60231522Y-37032893D01*
X60180913Y-37195307D01*
X60174500Y-37265886D01*
X60174500Y-37779113D01*
X60180913Y-37849692D01*
X60180913Y-37849694D01*
X60180914Y-37849696D01*
X60231522Y-38012106D01*
X60302257Y-38129116D01*
X60319530Y-38157688D01*
X60439811Y-38277969D01*
X60439813Y-38277970D01*
X60439815Y-38277972D01*
X60585394Y-38365978D01*
X60747804Y-38416586D01*
X60818384Y-38423000D01*
X60823403Y-38423000D01*
X60890442Y-38442685D01*
X60936197Y-38495489D01*
X60946141Y-38564647D01*
X60917116Y-38628203D01*
X60911084Y-38634681D01*
X58147584Y-41398181D01*
X58086261Y-41431666D01*
X58059903Y-41434500D01*
X54140351Y-41434500D01*
X54134527Y-41432790D01*
X54128568Y-41433939D01*
X54101390Y-41423059D01*
X54073312Y-41414815D01*
X54069338Y-41410229D01*
X54063702Y-41407973D01*
X54046718Y-41384124D01*
X54027557Y-41362011D01*
X54026693Y-41356004D01*
X54023172Y-41351060D01*
X54021778Y-41321820D01*
X54017613Y-41292853D01*
X54020060Y-41285782D01*
X54019845Y-41281270D01*
X54032960Y-41248506D01*
X54065639Y-41191904D01*
X54094577Y-41141785D01*
X54135500Y-40989057D01*
X54135500Y-40830943D01*
X54135500Y-39779082D01*
X54925001Y-39779082D01*
X54931408Y-39849602D01*
X54931409Y-39849607D01*
X54981981Y-40011896D01*
X55069927Y-40157377D01*
X55190122Y-40277572D01*
X55335604Y-40365519D01*
X55335603Y-40365519D01*
X55497894Y-40416090D01*
X55497892Y-40416090D01*
X55568418Y-40422499D01*
X56150000Y-40422499D01*
X56231581Y-40422499D01*
X56302102Y-40416091D01*
X56302107Y-40416090D01*
X56464396Y-40365518D01*
X56609877Y-40277572D01*
X56730072Y-40157377D01*
X56818019Y-40011895D01*
X56868590Y-39849606D01*
X56874999Y-39779082D01*
X57175001Y-39779082D01*
X57181408Y-39849602D01*
X57181409Y-39849607D01*
X57231981Y-40011896D01*
X57319927Y-40157377D01*
X57440122Y-40277572D01*
X57585604Y-40365519D01*
X57585603Y-40365519D01*
X57747894Y-40416090D01*
X57747892Y-40416090D01*
X57818418Y-40422499D01*
X58400000Y-40422499D01*
X58481581Y-40422499D01*
X58552102Y-40416091D01*
X58552107Y-40416090D01*
X58714396Y-40365518D01*
X58859877Y-40277572D01*
X58980072Y-40157377D01*
X59068019Y-40011895D01*
X59118590Y-39849606D01*
X59125000Y-39779072D01*
X59125000Y-39772500D01*
X58400000Y-39772500D01*
X58400000Y-40422499D01*
X57818418Y-40422499D01*
X57899999Y-40422498D01*
X57900000Y-40422498D01*
X57900000Y-39772500D01*
X57175001Y-39772500D01*
X57175001Y-39779082D01*
X56874999Y-39779082D01*
X56875000Y-39779072D01*
X56875000Y-39772500D01*
X56150000Y-39772500D01*
X56150000Y-40422499D01*
X55568418Y-40422499D01*
X55649999Y-40422498D01*
X55650000Y-40422498D01*
X55650000Y-39772500D01*
X54925001Y-39772500D01*
X54925001Y-39779082D01*
X54135500Y-39779082D01*
X54135500Y-39481752D01*
X54155185Y-39414713D01*
X54207989Y-39368958D01*
X54208612Y-39368675D01*
X54214598Y-39365980D01*
X54214606Y-39365978D01*
X54360185Y-39277972D01*
X54480472Y-39157685D01*
X54568478Y-39012106D01*
X54619086Y-38849696D01*
X54625500Y-38779116D01*
X54625500Y-38265884D01*
X54619086Y-38195304D01*
X54568478Y-38032894D01*
X54480472Y-37887315D01*
X54480470Y-37887313D01*
X54480469Y-37887311D01*
X54378339Y-37785181D01*
X54374000Y-37777235D01*
X54366753Y-37771810D01*
X54357518Y-37747050D01*
X54344854Y-37723858D01*
X54345499Y-37714828D01*
X54342336Y-37706346D01*
X54347952Y-37680525D01*
X54349838Y-37654166D01*
X54355656Y-37645112D01*
X54357188Y-37638073D01*
X54378339Y-37609819D01*
X54478839Y-37509319D01*
X54540162Y-37475834D01*
X54566520Y-37473000D01*
X54801706Y-37473000D01*
X54868745Y-37492685D01*
X54914500Y-37545489D01*
X54925196Y-37608222D01*
X54924500Y-37615884D01*
X54924500Y-38129116D01*
X54925552Y-38140690D01*
X54930913Y-38199692D01*
X54930913Y-38199694D01*
X54930914Y-38199696D01*
X54981522Y-38362106D01*
X55051711Y-38478213D01*
X55069530Y-38507688D01*
X55172015Y-38610173D01*
X55205500Y-38671496D01*
X55200516Y-38741188D01*
X55172015Y-38785535D01*
X55069928Y-38887621D01*
X55069927Y-38887622D01*
X54981980Y-39033104D01*
X54931409Y-39195393D01*
X54925000Y-39265927D01*
X54925000Y-39272500D01*
X56874999Y-39272500D01*
X56874999Y-39265917D01*
X56868591Y-39195397D01*
X56868590Y-39195392D01*
X56818018Y-39033103D01*
X56730072Y-38887622D01*
X56627984Y-38785534D01*
X56594499Y-38724211D01*
X56599483Y-38654519D01*
X56627983Y-38610173D01*
X56730472Y-38507685D01*
X56818478Y-38362106D01*
X56818478Y-38362104D01*
X56822358Y-38355687D01*
X56824473Y-38356965D01*
X56862168Y-38312963D01*
X56929095Y-38292898D01*
X56996245Y-38312202D01*
X57017479Y-38329215D01*
X57041284Y-38353020D01*
X57041286Y-38353021D01*
X57041290Y-38353024D01*
X57159205Y-38421101D01*
X57178216Y-38432077D01*
X57244095Y-38449729D01*
X57301761Y-38483952D01*
X57311111Y-38493762D01*
X57319528Y-38507685D01*
X57423077Y-38611234D01*
X57424094Y-38612301D01*
X57439453Y-38642107D01*
X57455500Y-38671495D01*
X57455389Y-38673034D01*
X57456098Y-38674409D01*
X57452905Y-38707773D01*
X57450516Y-38741187D01*
X57449567Y-38742663D01*
X57449443Y-38743961D01*
X57445567Y-38748887D01*
X57422016Y-38785534D01*
X57319926Y-38887624D01*
X57231980Y-39033104D01*
X57181409Y-39195393D01*
X57175000Y-39265927D01*
X57175000Y-39272500D01*
X59124999Y-39272500D01*
X59124999Y-39265917D01*
X59118591Y-39195397D01*
X59118590Y-39195392D01*
X59068018Y-39033103D01*
X58980072Y-38887622D01*
X58877984Y-38785534D01*
X58844499Y-38724211D01*
X58849483Y-38654519D01*
X58877983Y-38610173D01*
X58980472Y-38507685D01*
X59068478Y-38362106D01*
X59119086Y-38199696D01*
X59125500Y-38129116D01*
X59125500Y-37615884D01*
X59119086Y-37545304D01*
X59068478Y-37382894D01*
X58980472Y-37237315D01*
X58980470Y-37237313D01*
X58980469Y-37237311D01*
X58944075Y-37200917D01*
X58910590Y-37139594D01*
X58915574Y-37069902D01*
X58957446Y-37013969D01*
X58988424Y-36997054D01*
X59006384Y-36990355D01*
X59006393Y-36990350D01*
X59121487Y-36904190D01*
X59121490Y-36904187D01*
X59207650Y-36789093D01*
X59207654Y-36789086D01*
X59257896Y-36654379D01*
X59257898Y-36654372D01*
X59264299Y-36594844D01*
X59264300Y-36594827D01*
X59264300Y-36186299D01*
X59283985Y-36119260D01*
X59336789Y-36073505D01*
X59388298Y-36062299D01*
X59659201Y-36062299D01*
X59726240Y-36081984D01*
G37*
%TD.AperFunction*%
%TA.AperFunction,Conductor*%
G36*
X67547539Y-26607685D02*
G01*
X67593294Y-26660489D01*
X67604500Y-26712000D01*
X67604500Y-30386691D01*
X67584815Y-30453730D01*
X67568181Y-30474372D01*
X66894727Y-31147825D01*
X66894726Y-31147826D01*
X66840105Y-31229575D01*
X66840104Y-31229575D01*
X66823536Y-31254370D01*
X66823534Y-31254374D01*
X66774499Y-31372755D01*
X66774497Y-31372761D01*
X66749500Y-31498428D01*
X66749500Y-32772952D01*
X66729815Y-32839991D01*
X66702410Y-32870219D01*
X66696958Y-32874529D01*
X66577029Y-32994459D01*
X66488001Y-33138794D01*
X66487996Y-33138805D01*
X66434651Y-33299790D01*
X66424500Y-33399147D01*
X66424500Y-33945837D01*
X66424501Y-33945855D01*
X66434650Y-34045207D01*
X66434651Y-34045210D01*
X66487996Y-34206194D01*
X66488001Y-34206205D01*
X66577029Y-34350540D01*
X66577032Y-34350544D01*
X66586660Y-34360172D01*
X66620145Y-34421495D01*
X66615161Y-34491187D01*
X66586663Y-34535531D01*
X66577428Y-34544765D01*
X66577424Y-34544771D01*
X66488457Y-34689007D01*
X66488452Y-34689018D01*
X66435144Y-34849893D01*
X66425000Y-34949177D01*
X66425000Y-34972500D01*
X67276000Y-34972500D01*
X67343039Y-34992185D01*
X67388794Y-35044989D01*
X67400000Y-35096500D01*
X67400000Y-35348500D01*
X67380315Y-35415539D01*
X67327511Y-35461294D01*
X67276000Y-35472500D01*
X66425001Y-35472500D01*
X66425001Y-35495822D01*
X66435144Y-35595107D01*
X66488452Y-35755981D01*
X66488457Y-35755992D01*
X66577424Y-35900228D01*
X66577427Y-35900232D01*
X66654337Y-35977142D01*
X66687822Y-36038465D01*
X66682838Y-36108157D01*
X66654338Y-36152504D01*
X66569529Y-36237313D01*
X66481522Y-36382893D01*
X66430913Y-36545307D01*
X66424500Y-36615886D01*
X66424500Y-37129113D01*
X66430913Y-37199692D01*
X66430913Y-37199694D01*
X66430914Y-37199696D01*
X66481522Y-37362106D01*
X66565898Y-37501681D01*
X66569530Y-37507688D01*
X66671661Y-37609819D01*
X66675999Y-37617764D01*
X66683247Y-37623190D01*
X66692481Y-37647949D01*
X66705146Y-37671142D01*
X66704500Y-37680171D01*
X66707664Y-37688654D01*
X66702047Y-37714474D01*
X66700162Y-37740834D01*
X66694343Y-37749887D01*
X66692812Y-37756927D01*
X66671661Y-37785181D01*
X66571161Y-37885681D01*
X66509838Y-37919166D01*
X66483480Y-37922000D01*
X63986945Y-37922000D01*
X63919906Y-37902315D01*
X63874151Y-37849511D01*
X63863587Y-37785396D01*
X63863609Y-37785181D01*
X63865500Y-37766674D01*
X63865500Y-37233326D01*
X63855436Y-37134815D01*
X63802549Y-36975213D01*
X63802545Y-36975207D01*
X63802544Y-36975204D01*
X63714283Y-36832112D01*
X63714280Y-36832108D01*
X63682000Y-36799828D01*
X63648515Y-36738505D01*
X63653499Y-36668813D01*
X63682000Y-36624466D01*
X63713885Y-36592580D01*
X63802091Y-36449577D01*
X63802093Y-36449572D01*
X63854942Y-36290083D01*
X63864999Y-36191650D01*
X63865000Y-36191637D01*
X63865000Y-36175000D01*
X63014000Y-36175000D01*
X62946961Y-36155315D01*
X62901206Y-36102511D01*
X62890000Y-36051000D01*
X62890000Y-35925000D01*
X62764000Y-35925000D01*
X62696961Y-35905315D01*
X62651206Y-35852511D01*
X62640000Y-35801000D01*
X62640000Y-35675000D01*
X63140000Y-35675000D01*
X63864999Y-35675000D01*
X63864999Y-35658364D01*
X63864998Y-35658347D01*
X63854943Y-35559916D01*
X63802093Y-35400427D01*
X63802091Y-35400422D01*
X63713885Y-35257419D01*
X63595080Y-35138614D01*
X63452077Y-35050408D01*
X63452072Y-35050406D01*
X63292583Y-34997557D01*
X63194150Y-34987500D01*
X63140000Y-34987500D01*
X63140000Y-35675000D01*
X62640000Y-35675000D01*
X62640000Y-34987500D01*
X62639999Y-34987499D01*
X62585864Y-34987500D01*
X62585847Y-34987501D01*
X62487415Y-34997557D01*
X62327927Y-35050406D01*
X62327922Y-35050408D01*
X62184919Y-35138614D01*
X62121027Y-35202507D01*
X62059704Y-35235992D01*
X61990012Y-35231008D01*
X61945665Y-35202507D01*
X61860188Y-35117030D01*
X61826227Y-35096500D01*
X61714606Y-35029022D01*
X61552196Y-34978414D01*
X61552194Y-34978413D01*
X61552192Y-34978413D01*
X61502778Y-34973923D01*
X61481616Y-34972000D01*
X60818384Y-34972000D01*
X60799145Y-34973748D01*
X60747807Y-34978413D01*
X60747804Y-34978414D01*
X60585394Y-35029022D01*
X60585392Y-35029022D01*
X60585392Y-35029023D01*
X60537875Y-35057747D01*
X60511850Y-35064617D01*
X60486981Y-35074919D01*
X60478575Y-35073402D01*
X60470320Y-35075582D01*
X60444715Y-35067293D01*
X60418222Y-35062513D01*
X60408668Y-35055623D01*
X60403847Y-35054063D01*
X60389231Y-35042383D01*
X60387605Y-35040869D01*
X60313716Y-34966980D01*
X60299311Y-34958663D01*
X60289004Y-34949067D01*
X60278071Y-34930641D01*
X60263283Y-34915131D01*
X60259419Y-34899204D01*
X60253352Y-34888978D01*
X60253812Y-34876089D01*
X60249500Y-34858313D01*
X60249500Y-34785373D01*
X60249499Y-34785356D01*
X60242269Y-34718114D01*
X60243403Y-34717992D01*
X60243404Y-34677065D01*
X60242761Y-34676996D01*
X60243404Y-34671006D01*
X60243405Y-34670065D01*
X60243586Y-34669295D01*
X60243591Y-34669283D01*
X60250000Y-34609673D01*
X60249999Y-34285328D01*
X60243591Y-34225717D01*
X60243590Y-34225715D01*
X60242826Y-34218603D01*
X60241784Y-34216380D01*
X60242405Y-34200711D01*
X60241429Y-34181088D01*
X60242678Y-34171729D01*
X60243591Y-34169283D01*
X60246012Y-34146757D01*
X60246220Y-34145206D01*
X60259787Y-34114688D01*
X60272576Y-34083813D01*
X60273932Y-34082870D01*
X60274604Y-34081361D01*
X60302524Y-34063017D01*
X60329967Y-34043963D01*
X60332841Y-34043100D01*
X60332999Y-34042997D01*
X60333193Y-34042995D01*
X60337005Y-34041851D01*
X60466786Y-34007076D01*
X60541276Y-33964069D01*
X60603717Y-33928019D01*
X60715521Y-33816215D01*
X60715521Y-33816213D01*
X60725725Y-33806010D01*
X60725729Y-33806005D01*
X61103713Y-33428021D01*
X61103716Y-33428020D01*
X61215520Y-33316216D01*
X61215521Y-33316213D01*
X61388506Y-33143228D01*
X61388511Y-33143224D01*
X61398714Y-33133020D01*
X61398716Y-33133020D01*
X61510520Y-33021216D01*
X61567802Y-32922000D01*
X61589577Y-32884285D01*
X61630501Y-32731557D01*
X61630501Y-32573443D01*
X61630501Y-32565848D01*
X61630500Y-32565830D01*
X61630500Y-31079765D01*
X61650185Y-31012726D01*
X61651398Y-31010874D01*
X61739390Y-30879185D01*
X61739390Y-30879184D01*
X61739394Y-30879179D01*
X61799737Y-30733497D01*
X61830500Y-30578842D01*
X61830500Y-30421158D01*
X61830500Y-30421155D01*
X61830499Y-30421153D01*
X61823208Y-30384497D01*
X61799737Y-30266503D01*
X61785149Y-30231284D01*
X61739397Y-30120827D01*
X61739390Y-30120814D01*
X61651789Y-29989711D01*
X61651786Y-29989707D01*
X61540292Y-29878213D01*
X61540288Y-29878210D01*
X61409185Y-29790609D01*
X61409172Y-29790602D01*
X61263501Y-29730264D01*
X61263489Y-29730261D01*
X61108845Y-29699500D01*
X61108842Y-29699500D01*
X60951158Y-29699500D01*
X60951155Y-29699500D01*
X60796510Y-29730261D01*
X60796498Y-29730264D01*
X60650827Y-29790602D01*
X60650814Y-29790609D01*
X60519125Y-29878602D01*
X60452447Y-29899480D01*
X60450234Y-29899500D01*
X56746670Y-29899500D01*
X56746654Y-29899499D01*
X56739058Y-29899499D01*
X56580943Y-29899499D01*
X56504579Y-29919961D01*
X56428214Y-29940423D01*
X56428209Y-29940426D01*
X56291290Y-30019475D01*
X56291282Y-30019481D01*
X55669481Y-30641282D01*
X55669475Y-30641290D01*
X55634499Y-30701872D01*
X55634499Y-30701874D01*
X55590423Y-30778214D01*
X55590423Y-30778215D01*
X55553683Y-30915331D01*
X55549499Y-30930944D01*
X55549499Y-31099046D01*
X55549500Y-31099059D01*
X55549500Y-31696987D01*
X55543024Y-31732878D01*
X55543393Y-31732965D01*
X55541769Y-31739835D01*
X55541683Y-31740316D01*
X55541609Y-31740512D01*
X55541608Y-31740516D01*
X55535201Y-31800116D01*
X55535200Y-31800135D01*
X55535200Y-32208700D01*
X55515515Y-32275739D01*
X55462711Y-32321494D01*
X55411200Y-32332700D01*
X55002629Y-32332700D01*
X55002623Y-32332701D01*
X54943016Y-32339108D01*
X54942823Y-32339181D01*
X54942343Y-32339267D01*
X54935469Y-32340892D01*
X54935381Y-32340523D01*
X54899488Y-32347000D01*
X53815942Y-32347000D01*
X53663215Y-32387922D01*
X53658132Y-32390857D01*
X53655768Y-32392222D01*
X53655765Y-32392224D01*
X53526290Y-32466975D01*
X53526282Y-32466981D01*
X53414480Y-32578783D01*
X53414480Y-32578784D01*
X53414478Y-32578786D01*
X53349730Y-32643534D01*
X53286265Y-32706999D01*
X53237588Y-32737023D01*
X53091305Y-32785496D01*
X53091294Y-32785501D01*
X52946959Y-32874529D01*
X52946955Y-32874532D01*
X52835807Y-32985681D01*
X52774484Y-33019166D01*
X52748126Y-33022000D01*
X52260808Y-33022000D01*
X52193769Y-33002315D01*
X52173127Y-32985681D01*
X50839674Y-31652227D01*
X50839673Y-31652226D01*
X50839669Y-31652223D01*
X50733127Y-31581035D01*
X50614744Y-31531999D01*
X50614738Y-31531997D01*
X50489071Y-31507000D01*
X50489069Y-31507000D01*
X48809499Y-31507000D01*
X48742460Y-31487315D01*
X48696705Y-31434511D01*
X48685499Y-31383000D01*
X48685499Y-30359629D01*
X48685498Y-30359623D01*
X48685497Y-30359616D01*
X48679091Y-30300017D01*
X48666589Y-30266498D01*
X48628797Y-30165171D01*
X48628793Y-30165164D01*
X48542547Y-30049955D01*
X48542544Y-30049952D01*
X48427335Y-29963706D01*
X48427328Y-29963702D01*
X48292482Y-29913408D01*
X48292483Y-29913408D01*
X48232883Y-29907001D01*
X48232881Y-29907000D01*
X48232873Y-29907000D01*
X48232865Y-29907000D01*
X48159500Y-29907000D01*
X48092461Y-29887315D01*
X48046706Y-29834511D01*
X48035500Y-29783000D01*
X48035500Y-27658308D01*
X48055185Y-27591269D01*
X48071819Y-27570627D01*
X49018127Y-26624319D01*
X49079450Y-26590834D01*
X49105808Y-26588000D01*
X63110931Y-26588000D01*
X63239069Y-26588000D01*
X67480500Y-26588000D01*
X67547539Y-26607685D01*
G37*
%TD.AperFunction*%
%TA.AperFunction,Conductor*%
G36*
X46677539Y-28007685D02*
G01*
X46723294Y-28060489D01*
X46734500Y-28112000D01*
X46734500Y-29783000D01*
X46714815Y-29850039D01*
X46662011Y-29895794D01*
X46610502Y-29907000D01*
X46537130Y-29907000D01*
X46537123Y-29907001D01*
X46477516Y-29913408D01*
X46342671Y-29963702D01*
X46342664Y-29963706D01*
X46227455Y-30049952D01*
X46227452Y-30049955D01*
X46141206Y-30165164D01*
X46141202Y-30165171D01*
X46090908Y-30300017D01*
X46084501Y-30359616D01*
X46084501Y-30359623D01*
X46084500Y-30359635D01*
X46084500Y-31383000D01*
X46064815Y-31450039D01*
X46012011Y-31495794D01*
X45960500Y-31507000D01*
X41239499Y-31507000D01*
X41172460Y-31487315D01*
X41126705Y-31434511D01*
X41115499Y-31383000D01*
X41115499Y-30359629D01*
X41115498Y-30359623D01*
X41115497Y-30359616D01*
X41109091Y-30300017D01*
X41096589Y-30266498D01*
X41058797Y-30165171D01*
X41058793Y-30165164D01*
X40972547Y-30049955D01*
X40972544Y-30049952D01*
X40857335Y-29963706D01*
X40857328Y-29963702D01*
X40722482Y-29913408D01*
X40722483Y-29913408D01*
X40662883Y-29907001D01*
X40662881Y-29907000D01*
X40662873Y-29907000D01*
X40662865Y-29907000D01*
X40589500Y-29907000D01*
X40522461Y-29887315D01*
X40476706Y-29834511D01*
X40465500Y-29783000D01*
X40465500Y-28858308D01*
X40485185Y-28791269D01*
X40501819Y-28770627D01*
X41248127Y-28024319D01*
X41309450Y-27990834D01*
X41335808Y-27988000D01*
X46610500Y-27988000D01*
X46677539Y-28007685D01*
G37*
%TD.AperFunction*%
%TD*%
M02*
