%TF.GenerationSoftware,KiCad,Pcbnew,9.0.6*%
%TF.CreationDate,2025-12-30T05:11:15+05:30*%
%TF.ProjectId,UPS_Switch,5550535f-5377-4697-9463-682e6b696361,rev?*%
%TF.SameCoordinates,Original*%
%TF.FileFunction,Soldermask,Top*%
%TF.FilePolarity,Negative*%
%FSLAX46Y46*%
G04 Gerber Fmt 4.6, Leading zero omitted, Abs format (unit mm)*
G04 Created by KiCad (PCBNEW 9.0.6) date 2025-12-30 05:11:15*
%MOMM*%
%LPD*%
G01*
G04 APERTURE LIST*
G04 Aperture macros list*
%AMRoundRect*
0 Rectangle with rounded corners*
0 $1 Rounding radius*
0 $2 $3 $4 $5 $6 $7 $8 $9 X,Y pos of 4 corners*
0 Add a 4 corners polygon primitive as box body*
4,1,4,$2,$3,$4,$5,$6,$7,$8,$9,$2,$3,0*
0 Add four circle primitives for the rounded corners*
1,1,$1+$1,$2,$3*
1,1,$1+$1,$4,$5*
1,1,$1+$1,$6,$7*
1,1,$1+$1,$8,$9*
0 Add four rect primitives between the rounded corners*
20,1,$1+$1,$2,$3,$4,$5,0*
20,1,$1+$1,$4,$5,$6,$7,0*
20,1,$1+$1,$6,$7,$8,$9,0*
20,1,$1+$1,$8,$9,$2,$3,0*%
G04 Aperture macros list end*
%ADD10RoundRect,0.102000X-1.000000X1.000000X-1.000000X-1.000000X1.000000X-1.000000X1.000000X1.000000X0*%
%ADD11C,2.204000*%
%ADD12C,3.000000*%
%ADD13RoundRect,0.200000X-0.275000X0.200000X-0.275000X-0.200000X0.275000X-0.200000X0.275000X0.200000X0*%
%ADD14RoundRect,0.225000X-0.250000X0.225000X-0.250000X-0.225000X0.250000X-0.225000X0.250000X0.225000X0*%
%ADD15RoundRect,0.200000X0.275000X-0.200000X0.275000X0.200000X-0.275000X0.200000X-0.275000X-0.200000X0*%
%ADD16R,0.787400X0.228600*%
%ADD17R,0.228600X0.787400*%
%ADD18R,2.794000X1.549400*%
%ADD19R,2.794000X0.939800*%
%ADD20RoundRect,0.250000X1.050000X1.050000X-1.050000X1.050000X-1.050000X-1.050000X1.050000X-1.050000X0*%
%ADD21C,2.600000*%
%ADD22RoundRect,0.102000X0.800000X-1.750000X0.800000X1.750000X-0.800000X1.750000X-0.800000X-1.750000X0*%
%ADD23RoundRect,0.218750X-0.256250X0.218750X-0.256250X-0.218750X0.256250X-0.218750X0.256250X0.218750X0*%
%ADD24RoundRect,0.250000X1.050000X-1.050000X1.050000X1.050000X-1.050000X1.050000X-1.050000X-1.050000X0*%
%ADD25RoundRect,0.250000X-1.050000X1.050000X-1.050000X-1.050000X1.050000X-1.050000X1.050000X1.050000X0*%
G04 APERTURE END LIST*
D10*
%TO.C,U1*%
X90475000Y-45882500D03*
D11*
X87935000Y-45882500D03*
X85395000Y-45882500D03*
X82855000Y-45882500D03*
X80315000Y-45882500D03*
X77775000Y-45882500D03*
X75235000Y-45882500D03*
X72695000Y-45882500D03*
X70155000Y-45882500D03*
X67615000Y-45882500D03*
X65075000Y-45882500D03*
X62535000Y-45882500D03*
X59995000Y-45882500D03*
X57455000Y-45882500D03*
X54915000Y-45882500D03*
X90475000Y-71282500D03*
X87935000Y-71282500D03*
X85395000Y-71282500D03*
X82855000Y-71282500D03*
X80315000Y-71282500D03*
X77775000Y-71282500D03*
X75235000Y-71282500D03*
X72695000Y-71282500D03*
X70155000Y-71282500D03*
X67615000Y-71282500D03*
X65075000Y-71282500D03*
X62535000Y-71282500D03*
X59995000Y-71282500D03*
X57455000Y-71282500D03*
X54915000Y-71282500D03*
D12*
X51485000Y-46302500D03*
X51485000Y-70812500D03*
X98435000Y-70812500D03*
X98435000Y-46302500D03*
%TD*%
D13*
%TO.C,R2*%
X55900000Y-37872500D03*
X55900000Y-39522500D03*
%TD*%
D14*
%TO.C,C3*%
X67400000Y-33672500D03*
X67400000Y-35222500D03*
%TD*%
D13*
%TO.C,R13*%
X47960000Y-50585000D03*
X47960000Y-52235000D03*
%TD*%
D15*
%TO.C,R9*%
X89400000Y-37337500D03*
X89400000Y-35687500D03*
%TD*%
%TO.C,R6*%
X67400000Y-38522500D03*
X67400000Y-36872500D03*
%TD*%
D16*
%TO.C,U3*%
X69194200Y-32947500D03*
X69194200Y-33447499D03*
X69194200Y-33947500D03*
X69194200Y-34447500D03*
X69194200Y-34947501D03*
X69194200Y-35447500D03*
D17*
X69900000Y-36153300D03*
X70399999Y-36153300D03*
X70900000Y-36153300D03*
X71400000Y-36153300D03*
X71900001Y-36153300D03*
X72400000Y-36153300D03*
D16*
X73105800Y-35447500D03*
X73105800Y-34947501D03*
X73105800Y-34447500D03*
X73105800Y-33947500D03*
X73105800Y-33447499D03*
X73105800Y-32947500D03*
D17*
X72400000Y-32241700D03*
X71900001Y-32241700D03*
X71400000Y-32241700D03*
X70900000Y-32241700D03*
X70399999Y-32241700D03*
X69900000Y-32241700D03*
D18*
X71150000Y-33572500D03*
D19*
X71150000Y-35147500D03*
%TD*%
D13*
%TO.C,R3*%
X58150000Y-37872500D03*
X58150000Y-39522500D03*
%TD*%
D20*
%TO.C,J1*%
X78415000Y-23357500D03*
D21*
X73335000Y-23357500D03*
X68255000Y-23357500D03*
X63175000Y-23357500D03*
%TD*%
D13*
%TO.C,R7*%
X69650000Y-37872500D03*
X69650000Y-39522500D03*
%TD*%
D14*
%TO.C,C4*%
X81900000Y-33710000D03*
X81900000Y-35260000D03*
%TD*%
D15*
%TO.C,R10*%
X81900000Y-38560000D03*
X81900000Y-36910000D03*
%TD*%
D13*
%TO.C,R11*%
X84150000Y-37910000D03*
X84150000Y-39560000D03*
%TD*%
D22*
%TO.C,C2*%
X47385000Y-32157500D03*
X47385000Y-37757500D03*
%TD*%
D15*
%TO.C,R1*%
X53650000Y-38522500D03*
X53650000Y-36872500D03*
%TD*%
D23*
%TO.C,D3*%
X91150000Y-35725000D03*
X91150000Y-37300000D03*
%TD*%
D15*
%TO.C,R5*%
X74725000Y-37272500D03*
X74725000Y-35622500D03*
%TD*%
D22*
%TO.C,C5*%
X39815000Y-32157500D03*
X39815000Y-37757500D03*
%TD*%
D24*
%TO.C,J4*%
X107160000Y-67010000D03*
D21*
X107160000Y-61930000D03*
X107160000Y-56850000D03*
X107160000Y-51770000D03*
X107160000Y-46690000D03*
X107160000Y-41610000D03*
%TD*%
D23*
%TO.C,D2*%
X76400000Y-35660000D03*
X76400000Y-37235000D03*
%TD*%
D16*
%TO.C,U2*%
X55444200Y-32947500D03*
X55444200Y-33447499D03*
X55444200Y-33947500D03*
X55444200Y-34447500D03*
X55444200Y-34947501D03*
X55444200Y-35447500D03*
D17*
X56150000Y-36153300D03*
X56649999Y-36153300D03*
X57150000Y-36153300D03*
X57650000Y-36153300D03*
X58150001Y-36153300D03*
X58650000Y-36153300D03*
D16*
X59355800Y-35447500D03*
X59355800Y-34947501D03*
X59355800Y-34447500D03*
X59355800Y-33947500D03*
X59355800Y-33447499D03*
X59355800Y-32947500D03*
D17*
X58650000Y-32241700D03*
X58150001Y-32241700D03*
X57650000Y-32241700D03*
X57150000Y-32241700D03*
X56649999Y-32241700D03*
X56150000Y-32241700D03*
D18*
X57400000Y-33572500D03*
D19*
X57400000Y-35147500D03*
%TD*%
D13*
%TO.C,R12*%
X86400000Y-37910000D03*
X86400000Y-39560000D03*
%TD*%
D14*
%TO.C,C1*%
X53650000Y-33672500D03*
X53650000Y-35222500D03*
%TD*%
D25*
%TO.C,J3*%
X40940000Y-43560000D03*
D21*
X40940000Y-48640000D03*
X40940000Y-53720000D03*
X40940000Y-58800000D03*
X40940000Y-63880000D03*
X40940000Y-68960000D03*
%TD*%
D16*
%TO.C,U4*%
X83694200Y-32897500D03*
X83694200Y-33397499D03*
X83694200Y-33897500D03*
X83694200Y-34397500D03*
X83694200Y-34897501D03*
X83694200Y-35397500D03*
D17*
X84400000Y-36103300D03*
X84899999Y-36103300D03*
X85400000Y-36103300D03*
X85900000Y-36103300D03*
X86400001Y-36103300D03*
X86900000Y-36103300D03*
D16*
X87605800Y-35397500D03*
X87605800Y-34897501D03*
X87605800Y-34397500D03*
X87605800Y-33897500D03*
X87605800Y-33397499D03*
X87605800Y-32897500D03*
D17*
X86900000Y-32191700D03*
X86400001Y-32191700D03*
X85900000Y-32191700D03*
X85400000Y-32191700D03*
X84899999Y-32191700D03*
X84400000Y-32191700D03*
D18*
X85650000Y-33522500D03*
D19*
X85650000Y-35097500D03*
%TD*%
D15*
%TO.C,R4*%
X61150000Y-37522500D03*
X61150000Y-35872500D03*
%TD*%
D23*
%TO.C,D1*%
X62890000Y-35925000D03*
X62890000Y-37500000D03*
%TD*%
D13*
%TO.C,R8*%
X71900000Y-37872500D03*
X71900000Y-39522500D03*
%TD*%
M02*
