%TF.GenerationSoftware,KiCad,Pcbnew,9.0.6*%
%TF.CreationDate,2025-12-30T05:11:15+05:30*%
%TF.ProjectId,UPS_Switch,5550535f-5377-4697-9463-682e6b696361,rev?*%
%TF.SameCoordinates,Original*%
%TF.FileFunction,Copper,L1,Top*%
%TF.FilePolarity,Positive*%
%FSLAX46Y46*%
G04 Gerber Fmt 4.6, Leading zero omitted, Abs format (unit mm)*
G04 Created by KiCad (PCBNEW 9.0.6) date 2025-12-30 05:11:15*
%MOMM*%
%LPD*%
G01*
G04 APERTURE LIST*
G04 Aperture macros list*
%AMRoundRect*
0 Rectangle with rounded corners*
0 $1 Rounding radius*
0 $2 $3 $4 $5 $6 $7 $8 $9 X,Y pos of 4 corners*
0 Add a 4 corners polygon primitive as box body*
4,1,4,$2,$3,$4,$5,$6,$7,$8,$9,$2,$3,0*
0 Add four circle primitives for the rounded corners*
1,1,$1+$1,$2,$3*
1,1,$1+$1,$4,$5*
1,1,$1+$1,$6,$7*
1,1,$1+$1,$8,$9*
0 Add four rect primitives between the rounded corners*
20,1,$1+$1,$2,$3,$4,$5,0*
20,1,$1+$1,$4,$5,$6,$7,0*
20,1,$1+$1,$6,$7,$8,$9,0*
20,1,$1+$1,$8,$9,$2,$3,0*%
G04 Aperture macros list end*
%TA.AperFunction,ComponentPad*%
%ADD10R,2.000000X2.000000*%
%TD*%
%TA.AperFunction,ComponentPad*%
%ADD11C,2.000000*%
%TD*%
%TA.AperFunction,SMDPad,CuDef*%
%ADD12RoundRect,0.200000X-0.275000X0.200000X-0.275000X-0.200000X0.275000X-0.200000X0.275000X0.200000X0*%
%TD*%
%TA.AperFunction,SMDPad,CuDef*%
%ADD13RoundRect,0.225000X-0.250000X0.225000X-0.250000X-0.225000X0.250000X-0.225000X0.250000X0.225000X0*%
%TD*%
%TA.AperFunction,SMDPad,CuDef*%
%ADD14RoundRect,0.200000X0.275000X-0.200000X0.275000X0.200000X-0.275000X0.200000X-0.275000X-0.200000X0*%
%TD*%
%TA.AperFunction,SMDPad,CuDef*%
%ADD15R,0.787400X0.228600*%
%TD*%
%TA.AperFunction,SMDPad,CuDef*%
%ADD16R,0.228600X0.787400*%
%TD*%
%TA.AperFunction,SMDPad,CuDef*%
%ADD17R,2.794000X1.549400*%
%TD*%
%TA.AperFunction,SMDPad,CuDef*%
%ADD18R,2.794000X0.939800*%
%TD*%
%TA.AperFunction,ComponentPad*%
%ADD19RoundRect,0.250000X1.050000X1.050000X-1.050000X1.050000X-1.050000X-1.050000X1.050000X-1.050000X0*%
%TD*%
%TA.AperFunction,ComponentPad*%
%ADD20C,2.600000*%
%TD*%
%TA.AperFunction,SMDPad,CuDef*%
%ADD21R,1.600000X3.500000*%
%TD*%
%TA.AperFunction,SMDPad,CuDef*%
%ADD22RoundRect,0.218750X-0.256250X0.218750X-0.256250X-0.218750X0.256250X-0.218750X0.256250X0.218750X0*%
%TD*%
%TA.AperFunction,ComponentPad*%
%ADD23RoundRect,0.250000X1.050000X-1.050000X1.050000X1.050000X-1.050000X1.050000X-1.050000X-1.050000X0*%
%TD*%
%TA.AperFunction,ComponentPad*%
%ADD24RoundRect,0.250000X-1.050000X1.050000X-1.050000X-1.050000X1.050000X-1.050000X1.050000X1.050000X0*%
%TD*%
%TA.AperFunction,ViaPad*%
%ADD25C,0.600000*%
%TD*%
%TA.AperFunction,Conductor*%
%ADD26C,0.300000*%
%TD*%
%TA.AperFunction,Conductor*%
%ADD27C,0.200000*%
%TD*%
G04 APERTURE END LIST*
D10*
%TO.P,U1,1,3V3*%
%TO.N,unconnected-(U1-3V3-Pad1)*%
X90475000Y-45882500D03*
D11*
%TO.P,U1,2,GND*%
%TO.N,GND*%
X87935000Y-45882500D03*
%TO.P,U1,3,D15*%
%TO.N,unconnected-(U1-D15-Pad3)*%
X85395000Y-45882500D03*
%TO.P,U1,4,D2*%
%TO.N,unconnected-(U1-D2-Pad4)*%
X82855000Y-45882500D03*
%TO.P,U1,5,D4*%
%TO.N,unconnected-(U1-D4-Pad5)*%
X80315000Y-45882500D03*
%TO.P,U1,6,RX2*%
%TO.N,unconnected-(U1-RX2-Pad6)*%
X77775000Y-45882500D03*
%TO.P,U1,7,TX2*%
%TO.N,unconnected-(U1-TX2-Pad7)*%
X75235000Y-45882500D03*
%TO.P,U1,8,D5*%
%TO.N,unconnected-(U1-D5-Pad8)*%
X72695000Y-45882500D03*
%TO.P,U1,9,D18*%
%TO.N,unconnected-(U1-D18-Pad9)*%
X70155000Y-45882500D03*
%TO.P,U1,10,D19*%
%TO.N,unconnected-(U1-D19-Pad10)*%
X67615000Y-45882500D03*
%TO.P,U1,11,D21*%
%TO.N,unconnected-(U1-D21-Pad11)*%
X65075000Y-45882500D03*
%TO.P,U1,12,RX0*%
%TO.N,unconnected-(U1-RX0-Pad12)*%
X62535000Y-45882500D03*
%TO.P,U1,13,TX0*%
%TO.N,Net-(U1-TX0)*%
X59995000Y-45882500D03*
%TO.P,U1,14,D22*%
%TO.N,unconnected-(U1-D22-Pad14)*%
X57455000Y-45882500D03*
%TO.P,U1,15,D23*%
%TO.N,unconnected-(U1-D23-Pad15)*%
X54915000Y-45882500D03*
%TO.P,U1,30,VIN*%
%TO.N,+5V*%
X90475000Y-71282500D03*
%TO.P,U1,29,GND*%
%TO.N,GND*%
X87935000Y-71282500D03*
%TO.P,U1,28,D13*%
%TO.N,unconnected-(U1-D13-Pad28)*%
X85395000Y-71282500D03*
%TO.P,U1,27,D12*%
%TO.N,unconnected-(U1-D12-Pad27)*%
X82855000Y-71282500D03*
%TO.P,U1,26,D14*%
%TO.N,unconnected-(U1-D14-Pad26)*%
X80315000Y-71282500D03*
%TO.P,U1,25,D27*%
%TO.N,/LED_3_CTRL*%
X77775000Y-71282500D03*
%TO.P,U1,24,D26*%
%TO.N,/LED_2_CTRL*%
X75235000Y-71282500D03*
%TO.P,U1,23,D25*%
%TO.N,/LED_1_CTRL*%
X72695000Y-71282500D03*
%TO.P,U1,22,D33*%
%TO.N,unconnected-(U1-D33-Pad22)*%
X70155000Y-71282500D03*
%TO.P,U1,21,D32*%
%TO.N,unconnected-(U1-D32-Pad21)*%
X67615000Y-71282500D03*
%TO.P,U1,20,D35*%
%TO.N,unconnected-(U1-D35-Pad20)*%
X65075000Y-71282500D03*
%TO.P,U1,19,D34*%
%TO.N,unconnected-(U1-D34-Pad19)*%
X62535000Y-71282500D03*
%TO.P,U1,18,VN*%
%TO.N,unconnected-(U1-VN-Pad18)*%
X59995000Y-71282500D03*
%TO.P,U1,17,VP*%
%TO.N,unconnected-(U1-VP-Pad17)*%
X57455000Y-71282500D03*
%TO.P,U1,16,EN*%
%TO.N,unconnected-(U1-EN-Pad16)*%
X54915000Y-71282500D03*
%TD*%
D12*
%TO.P,R2,1*%
%TO.N,/LED1_ILIM*%
X55900000Y-37872500D03*
%TO.P,R2,2*%
%TO.N,GND*%
X55900000Y-39522500D03*
%TD*%
D13*
%TO.P,C3,1*%
%TO.N,+5V*%
X67400000Y-33672500D03*
%TO.P,C3,2*%
%TO.N,GND*%
X67400000Y-35222500D03*
%TD*%
D12*
%TO.P,R13,1*%
%TO.N,Net-(U1-TX0)*%
X47960000Y-50585000D03*
%TO.P,R13,2*%
%TO.N,/Motor_PWM*%
X47960000Y-52235000D03*
%TD*%
D14*
%TO.P,R9,1*%
%TO.N,Net-(D3-A)*%
X89400000Y-37337500D03*
%TO.P,R9,2*%
%TO.N,/LED3_PG*%
X89400000Y-35687500D03*
%TD*%
%TO.P,R6,1*%
%TO.N,/LED_2_CTRL*%
X67400000Y-38522500D03*
%TO.P,R6,2*%
%TO.N,/LED_2_EN*%
X67400000Y-36872500D03*
%TD*%
D15*
%TO.P,U3,1,IN*%
%TO.N,+5V*%
X69194200Y-32947500D03*
%TO.P,U3,2,IN*%
X69194200Y-33447499D03*
%TO.P,U3,3,IN*%
X69194200Y-33947500D03*
%TO.P,U3,4,GND*%
%TO.N,GND*%
X69194200Y-34447500D03*
%TO.P,U3,5,GND*%
X69194200Y-34947501D03*
%TO.P,U3,6,EN/UVLO*%
%TO.N,/LED_2_EN*%
X69194200Y-35447500D03*
D16*
%TO.P,U3,7,ITIMER*%
%TO.N,unconnected-(U3-ITIMER-Pad7)*%
X69900000Y-36153300D03*
%TO.P,U3,8,ILIM*%
%TO.N,/LED2_ILIM*%
X70399999Y-36153300D03*
%TO.P,U3,9,IMON*%
%TO.N,/LED2_IMON*%
X70900000Y-36153300D03*
%TO.P,U3,10,RETRY_DLY*%
%TO.N,GND*%
X71400000Y-36153300D03*
%TO.P,U3,11,NRETRY*%
X71900001Y-36153300D03*
%TO.P,U3,12,LDSTRT*%
X72400000Y-36153300D03*
D15*
%TO.P,U3,13,PG*%
%TO.N,/LED2_PG*%
X73105800Y-35447500D03*
%TO.P,U3,14,GND*%
%TO.N,GND*%
X73105800Y-34947501D03*
%TO.P,U3,15,DVDT*%
%TO.N,unconnected-(U3-DVDT-Pad15)*%
X73105800Y-34447500D03*
%TO.P,U3,16,IN*%
%TO.N,+5V*%
X73105800Y-33947500D03*
%TO.P,U3,17,OUT*%
%TO.N,/LED_2_VOUT*%
X73105800Y-33447499D03*
%TO.P,U3,18,OUT*%
X73105800Y-32947500D03*
D16*
%TO.P,U3,19,OUT*%
X72400000Y-32241700D03*
%TO.P,U3,20,OUT*%
X71900001Y-32241700D03*
%TO.P,U3,21,OUT*%
X71400000Y-32241700D03*
%TO.P,U3,22,OUT*%
X70900000Y-32241700D03*
%TO.P,U3,23,OUT*%
X70399999Y-32241700D03*
%TO.P,U3,24,OUT*%
X69900000Y-32241700D03*
D17*
%TO.P,U3,25,EPAD*%
%TO.N,+5V*%
X71150000Y-33572500D03*
D18*
%TO.P,U3,26,EPAD*%
%TO.N,GND*%
X71150000Y-35147500D03*
%TD*%
D12*
%TO.P,R3,1*%
%TO.N,/LED1_IMON*%
X58150000Y-37872500D03*
%TO.P,R3,2*%
%TO.N,GND*%
X58150000Y-39522500D03*
%TD*%
D19*
%TO.P,J1,1,Pin_1*%
%TO.N,GND*%
X78415000Y-23357500D03*
D20*
%TO.P,J1,2,Pin_2*%
X73335000Y-23357500D03*
%TO.P,J1,3,Pin_3*%
%TO.N,+5V*%
X68255000Y-23357500D03*
%TO.P,J1,4,Pin_4*%
X63175000Y-23357500D03*
%TD*%
D12*
%TO.P,R7,1*%
%TO.N,/LED2_ILIM*%
X69650000Y-37872500D03*
%TO.P,R7,2*%
%TO.N,GND*%
X69650000Y-39522500D03*
%TD*%
D13*
%TO.P,C4,1*%
%TO.N,+5V*%
X81900000Y-33710000D03*
%TO.P,C4,2*%
%TO.N,GND*%
X81900000Y-35260000D03*
%TD*%
D14*
%TO.P,R10,1*%
%TO.N,/LED_3_CTRL*%
X81900000Y-38560000D03*
%TO.P,R10,2*%
%TO.N,/LED_3_EN*%
X81900000Y-36910000D03*
%TD*%
D12*
%TO.P,R11,1*%
%TO.N,/LED3_ILIM*%
X84150000Y-37910000D03*
%TO.P,R11,2*%
%TO.N,GND*%
X84150000Y-39560000D03*
%TD*%
D21*
%TO.P,C2,1*%
%TO.N,+5V*%
X47385000Y-32157500D03*
%TO.P,C2,2*%
%TO.N,GND*%
X47385000Y-37757500D03*
%TD*%
D14*
%TO.P,R1,1*%
%TO.N,/LED_1_CTRL*%
X53650000Y-38522500D03*
%TO.P,R1,2*%
%TO.N,/LED_1_EN*%
X53650000Y-36872500D03*
%TD*%
D22*
%TO.P,D3,1,K*%
%TO.N,GND*%
X91150000Y-35725000D03*
%TO.P,D3,2,A*%
%TO.N,Net-(D3-A)*%
X91150000Y-37300000D03*
%TD*%
D14*
%TO.P,R5,1*%
%TO.N,Net-(D2-A)*%
X74725000Y-37272500D03*
%TO.P,R5,2*%
%TO.N,/LED2_PG*%
X74725000Y-35622500D03*
%TD*%
D21*
%TO.P,C5,1*%
%TO.N,+5V*%
X39815000Y-32157500D03*
%TO.P,C5,2*%
%TO.N,GND*%
X39815000Y-37757500D03*
%TD*%
D23*
%TO.P,J4,1,Pin_1*%
%TO.N,/LED_1_VOUT*%
X107160000Y-67010000D03*
D20*
%TO.P,J4,2,Pin_2*%
%TO.N,GND*%
X107160000Y-61930000D03*
%TO.P,J4,3,Pin_3*%
%TO.N,/LED_2_VOUT*%
X107160000Y-56850000D03*
%TO.P,J4,4,Pin_4*%
%TO.N,GND*%
X107160000Y-51770000D03*
%TO.P,J4,5,Pin_5*%
%TO.N,/LED_3_VOUT*%
X107160000Y-46690000D03*
%TO.P,J4,6,Pin_6*%
%TO.N,GND*%
X107160000Y-41610000D03*
%TD*%
D22*
%TO.P,D2,1,K*%
%TO.N,GND*%
X76400000Y-35660000D03*
%TO.P,D2,2,A*%
%TO.N,Net-(D2-A)*%
X76400000Y-37235000D03*
%TD*%
D15*
%TO.P,U2,1,IN*%
%TO.N,+5V*%
X55444200Y-32947500D03*
%TO.P,U2,2,IN*%
X55444200Y-33447499D03*
%TO.P,U2,3,IN*%
X55444200Y-33947500D03*
%TO.P,U2,4,GND*%
%TO.N,GND*%
X55444200Y-34447500D03*
%TO.P,U2,5,GND*%
X55444200Y-34947501D03*
%TO.P,U2,6,EN/UVLO*%
%TO.N,/LED_1_EN*%
X55444200Y-35447500D03*
D16*
%TO.P,U2,7,ITIMER*%
%TO.N,unconnected-(U2-ITIMER-Pad7)*%
X56150000Y-36153300D03*
%TO.P,U2,8,ILIM*%
%TO.N,/LED1_ILIM*%
X56649999Y-36153300D03*
%TO.P,U2,9,IMON*%
%TO.N,/LED1_IMON*%
X57150000Y-36153300D03*
%TO.P,U2,10,RETRY_DLY*%
%TO.N,GND*%
X57650000Y-36153300D03*
%TO.P,U2,11,NRETRY*%
X58150001Y-36153300D03*
%TO.P,U2,12,LDSTRT*%
X58650000Y-36153300D03*
D15*
%TO.P,U2,13,PG*%
%TO.N,/LED1_PG*%
X59355800Y-35447500D03*
%TO.P,U2,14,GND*%
%TO.N,GND*%
X59355800Y-34947501D03*
%TO.P,U2,15,DVDT*%
%TO.N,unconnected-(U2-DVDT-Pad15)*%
X59355800Y-34447500D03*
%TO.P,U2,16,IN*%
%TO.N,+5V*%
X59355800Y-33947500D03*
%TO.P,U2,17,OUT*%
%TO.N,/LED_1_VOUT*%
X59355800Y-33447499D03*
%TO.P,U2,18,OUT*%
X59355800Y-32947500D03*
D16*
%TO.P,U2,19,OUT*%
X58650000Y-32241700D03*
%TO.P,U2,20,OUT*%
X58150001Y-32241700D03*
%TO.P,U2,21,OUT*%
X57650000Y-32241700D03*
%TO.P,U2,22,OUT*%
X57150000Y-32241700D03*
%TO.P,U2,23,OUT*%
X56649999Y-32241700D03*
%TO.P,U2,24,OUT*%
X56150000Y-32241700D03*
D17*
%TO.P,U2,25,EPAD*%
%TO.N,+5V*%
X57400000Y-33572500D03*
D18*
%TO.P,U2,26,EPAD*%
%TO.N,GND*%
X57400000Y-35147500D03*
%TD*%
D12*
%TO.P,R12,1*%
%TO.N,/LED3_IMON*%
X86400000Y-37910000D03*
%TO.P,R12,2*%
%TO.N,GND*%
X86400000Y-39560000D03*
%TD*%
D13*
%TO.P,C1,1*%
%TO.N,+5V*%
X53650000Y-33672500D03*
%TO.P,C1,2*%
%TO.N,GND*%
X53650000Y-35222500D03*
%TD*%
D24*
%TO.P,J3,1,Pin_1*%
%TO.N,+5V*%
X40940000Y-43560000D03*
D20*
%TO.P,J3,2,Pin_2*%
X40940000Y-48640000D03*
%TO.P,J3,3,Pin_3*%
%TO.N,/Motor_PWM*%
X40940000Y-53720000D03*
%TO.P,J3,4,Pin_4*%
%TO.N,unconnected-(J3-Pin_4-Pad4)*%
X40940000Y-58800000D03*
%TO.P,J3,5,Pin_5*%
%TO.N,GND*%
X40940000Y-63880000D03*
%TO.P,J3,6,Pin_6*%
X40940000Y-68960000D03*
%TD*%
D15*
%TO.P,U4,1,IN*%
%TO.N,+5V*%
X83694200Y-32897500D03*
%TO.P,U4,2,IN*%
X83694200Y-33397499D03*
%TO.P,U4,3,IN*%
X83694200Y-33897500D03*
%TO.P,U4,4,GND*%
%TO.N,GND*%
X83694200Y-34397500D03*
%TO.P,U4,5,GND*%
X83694200Y-34897501D03*
%TO.P,U4,6,EN/UVLO*%
%TO.N,/LED_3_EN*%
X83694200Y-35397500D03*
D16*
%TO.P,U4,7,ITIMER*%
%TO.N,unconnected-(U4-ITIMER-Pad7)*%
X84400000Y-36103300D03*
%TO.P,U4,8,ILIM*%
%TO.N,/LED3_ILIM*%
X84899999Y-36103300D03*
%TO.P,U4,9,IMON*%
%TO.N,/LED3_IMON*%
X85400000Y-36103300D03*
%TO.P,U4,10,RETRY_DLY*%
%TO.N,GND*%
X85900000Y-36103300D03*
%TO.P,U4,11,NRETRY*%
X86400001Y-36103300D03*
%TO.P,U4,12,LDSTRT*%
X86900000Y-36103300D03*
D15*
%TO.P,U4,13,PG*%
%TO.N,/LED3_PG*%
X87605800Y-35397500D03*
%TO.P,U4,14,GND*%
%TO.N,GND*%
X87605800Y-34897501D03*
%TO.P,U4,15,DVDT*%
%TO.N,unconnected-(U4-DVDT-Pad15)*%
X87605800Y-34397500D03*
%TO.P,U4,16,IN*%
%TO.N,+5V*%
X87605800Y-33897500D03*
%TO.P,U4,17,OUT*%
%TO.N,/LED_3_VOUT*%
X87605800Y-33397499D03*
%TO.P,U4,18,OUT*%
X87605800Y-32897500D03*
D16*
%TO.P,U4,19,OUT*%
X86900000Y-32191700D03*
%TO.P,U4,20,OUT*%
X86400001Y-32191700D03*
%TO.P,U4,21,OUT*%
X85900000Y-32191700D03*
%TO.P,U4,22,OUT*%
X85400000Y-32191700D03*
%TO.P,U4,23,OUT*%
X84899999Y-32191700D03*
%TO.P,U4,24,OUT*%
X84400000Y-32191700D03*
D17*
%TO.P,U4,25,EPAD*%
%TO.N,+5V*%
X85650000Y-33522500D03*
D18*
%TO.P,U4,26,EPAD*%
%TO.N,GND*%
X85650000Y-35097500D03*
%TD*%
D14*
%TO.P,R4,1*%
%TO.N,Net-(D1-A)*%
X61150000Y-37522500D03*
%TO.P,R4,2*%
%TO.N,/LED1_PG*%
X61150000Y-35872500D03*
%TD*%
D22*
%TO.P,D1,1,K*%
%TO.N,GND*%
X62890000Y-35925000D03*
%TO.P,D1,2,A*%
%TO.N,Net-(D1-A)*%
X62890000Y-37500000D03*
%TD*%
D12*
%TO.P,R8,1*%
%TO.N,/LED2_IMON*%
X71900000Y-37872500D03*
%TO.P,R8,2*%
%TO.N,GND*%
X71900000Y-39522500D03*
%TD*%
D25*
%TO.N,+5V*%
X90610000Y-33900000D03*
X87050000Y-24850000D03*
%TO.N,/LED_3_CTRL*%
X94435000Y-54560000D03*
X88910000Y-40785000D03*
X82460000Y-40235000D03*
X94385000Y-41610000D03*
%TO.N,/LED_2_CTRL*%
X48885000Y-61785000D03*
X48885000Y-45560000D03*
%TO.N,/LED_1_CTRL*%
X48285000Y-62785000D03*
X48285000Y-47310000D03*
%TO.N,GND*%
X64975000Y-36627500D03*
X71900000Y-41727500D03*
X93805000Y-35727500D03*
X50405000Y-39007500D03*
X78405000Y-36527500D03*
X54225000Y-39657500D03*
%TO.N,/LED_3_VOUT*%
X102840000Y-34460000D03*
%TO.N,/LED_2_VOUT*%
X75890000Y-39100000D03*
X74130000Y-33222500D03*
%TO.N,/LED_1_VOUT*%
X66140000Y-43040000D03*
X62400000Y-39940000D03*
X61030000Y-30500000D03*
%TD*%
D26*
%TO.N,/LED_3_VOUT*%
X85400000Y-31010000D02*
X84900000Y-31010000D01*
X84899999Y-32191700D02*
X84900000Y-31010000D01*
X85900000Y-31010000D02*
X85400000Y-31010000D01*
X85400000Y-32191700D02*
X85400000Y-31010000D01*
X86400000Y-31010000D02*
X85900000Y-31010000D01*
X85900000Y-32191700D02*
X85900000Y-31010000D01*
X86900000Y-31010000D02*
X86400000Y-31010000D01*
X86400001Y-32191700D02*
X86400000Y-31010000D01*
X88780000Y-31010000D02*
X86900000Y-31010000D01*
X86900000Y-32191700D02*
X86900000Y-31010000D01*
X86400001Y-32191700D02*
X86900000Y-32191700D01*
X85900000Y-32191700D02*
X86400001Y-32191700D01*
X85400000Y-32191700D02*
X85900000Y-32191700D01*
X84899999Y-32191700D02*
X85400000Y-32191700D01*
X84400000Y-32191700D02*
X84899999Y-32191700D01*
X89340000Y-33220000D02*
X89340000Y-31570000D01*
X84400000Y-31330000D02*
X84400000Y-32191700D01*
X89340000Y-31570000D02*
X88780000Y-31010000D01*
X84900000Y-31010000D02*
X84720000Y-31010000D01*
X84720000Y-31010000D02*
X84400000Y-31330000D01*
X89340000Y-33220000D02*
X89017500Y-32897500D01*
X89017500Y-32897500D02*
X87605800Y-32897500D01*
X89340000Y-33220000D02*
X89162501Y-33397499D01*
X89162501Y-33397499D02*
X87605800Y-33397499D01*
D27*
%TO.N,+5V*%
X90610000Y-33900000D02*
X90607500Y-33897500D01*
X90607500Y-33897500D02*
X87605800Y-33897500D01*
D26*
X86427500Y-21907500D02*
X87050000Y-22530000D01*
X87050000Y-22530000D02*
X87050000Y-24850000D01*
X82445000Y-21907500D02*
X86427500Y-21907500D01*
D27*
%TO.N,/LED_3_CTRL*%
X81900000Y-39675000D02*
X82460000Y-40235000D01*
X81900000Y-38560000D02*
X81900000Y-39675000D01*
X93560000Y-40785000D02*
X94385000Y-41610000D01*
X88910000Y-40785000D02*
X93560000Y-40785000D01*
X94435000Y-54560000D02*
X94435000Y-65585000D01*
X94435000Y-65585000D02*
X91235000Y-68785000D01*
X91235000Y-68785000D02*
X78510000Y-68785000D01*
X78510000Y-68785000D02*
X77775000Y-69520000D01*
X77775000Y-69520000D02*
X77775000Y-71282500D01*
%TO.N,/LED_2_CTRL*%
X75235000Y-71282500D02*
X75235000Y-68885000D01*
X75235000Y-68885000D02*
X74485000Y-68135000D01*
X49560000Y-68135000D02*
X48885000Y-67460000D01*
X74485000Y-68135000D02*
X49560000Y-68135000D01*
X48885000Y-67460000D02*
X48885000Y-61785000D01*
X48885000Y-45560000D02*
X48885000Y-43135000D01*
X48885000Y-43135000D02*
X49985000Y-42035000D01*
X61872500Y-38522500D02*
X58360000Y-42035000D01*
X67400000Y-38522500D02*
X61872500Y-38522500D01*
X58360000Y-42035000D02*
X49985000Y-42035000D01*
X48835000Y-45560000D02*
X48885000Y-45560000D01*
%TO.N,/LED_1_CTRL*%
X48285000Y-62785000D02*
X48285000Y-67935000D01*
X48285000Y-67935000D02*
X49085000Y-68735000D01*
X49085000Y-68735000D02*
X71960000Y-68735000D01*
X71960000Y-68735000D02*
X72695000Y-69470000D01*
X72695000Y-69470000D02*
X72695000Y-71282500D01*
X48285000Y-43110000D02*
X48285000Y-47310000D01*
X48910000Y-42485000D02*
X48285000Y-43110000D01*
X53085000Y-41360000D02*
X52835000Y-41360000D01*
X50035000Y-41360000D02*
X48910000Y-42485000D01*
X53535000Y-40910000D02*
X53085000Y-41360000D01*
X53650000Y-38522500D02*
X53535000Y-38637500D01*
X53535000Y-38637500D02*
X53535000Y-40910000D01*
X52835000Y-41360000D02*
X50035000Y-41360000D01*
D26*
%TO.N,+5V*%
X40940000Y-48640000D02*
X35755000Y-48640000D01*
X35755000Y-48640000D02*
X35260000Y-49135000D01*
X35260000Y-49135000D02*
X35260000Y-69860000D01*
X35260000Y-69860000D02*
X39160000Y-73760000D01*
X39160000Y-73760000D02*
X90010000Y-73760000D01*
X90010000Y-73760000D02*
X90475000Y-73295000D01*
X90475000Y-73295000D02*
X90475000Y-71282500D01*
D27*
%TO.N,Net-(U1-TX0)*%
X47960000Y-50585000D02*
X47960000Y-49710000D01*
X47960000Y-49710000D02*
X48860000Y-48810000D01*
X48860000Y-48810000D02*
X59060000Y-48810000D01*
X59060000Y-48810000D02*
X59995000Y-47875000D01*
X59995000Y-47875000D02*
X59995000Y-45882500D01*
%TO.N,/Motor_PWM*%
X47960000Y-52235000D02*
X47960000Y-53010000D01*
X47960000Y-53010000D02*
X47250000Y-53720000D01*
X47250000Y-53720000D02*
X40940000Y-53720000D01*
D26*
%TO.N,/LED_2_VOUT*%
X96500000Y-43770000D02*
X96500000Y-55300000D01*
X95310000Y-42580000D02*
X96500000Y-43770000D01*
D27*
%TO.N,/LED_1_VOUT*%
X107100000Y-67070000D02*
X107160000Y-67010000D01*
D26*
%TO.N,GND*%
X100260000Y-37740000D02*
X103290000Y-37740000D01*
%TO.N,/LED_2_VOUT*%
X107100000Y-56910000D02*
X107160000Y-56850000D01*
X75890000Y-39100000D02*
X75890000Y-39150000D01*
X75890000Y-39150000D02*
X79320000Y-42580000D01*
X79320000Y-42580000D02*
X95310000Y-42580000D01*
X96500000Y-55300000D02*
X98110000Y-56910000D01*
X98110000Y-56910000D02*
X107100000Y-56910000D01*
%TO.N,GND*%
X93805000Y-35727500D02*
X98247500Y-35727500D01*
X98247500Y-35727500D02*
X100260000Y-37740000D01*
X103290000Y-37740000D02*
X107160000Y-41610000D01*
D27*
%TO.N,+5V*%
X83694200Y-32897500D02*
X83694200Y-33397499D01*
X85025000Y-32897500D02*
X85650000Y-33522500D01*
X57260000Y-33432500D02*
X55459199Y-33432500D01*
X53895000Y-32947500D02*
X53650000Y-33192500D01*
X68240000Y-33672500D02*
X68515000Y-33947500D01*
X83694200Y-33397499D02*
X85524999Y-33397499D01*
X53875001Y-33447499D02*
X53650000Y-33672500D01*
D26*
X36185000Y-32157500D02*
X39815000Y-32157500D01*
X40940000Y-48640000D02*
X35722500Y-48640000D01*
X68252500Y-25937500D02*
X68255000Y-25940000D01*
D27*
X57775000Y-33947500D02*
X57400000Y-33572500D01*
D26*
X67400000Y-32947500D02*
X67400000Y-31562500D01*
X34702500Y-47620000D02*
X34702500Y-43560000D01*
D27*
X69194200Y-33947500D02*
X69194200Y-33447499D01*
D26*
X81900000Y-33710000D02*
X81900000Y-32897500D01*
D27*
X68515000Y-33947500D02*
X69194200Y-33947500D01*
D26*
X41015000Y-27337500D02*
X47385000Y-27337500D01*
D27*
X67400000Y-33672500D02*
X68240000Y-33672500D01*
X71525000Y-33947500D02*
X71150000Y-33572500D01*
X55444200Y-32947500D02*
X53895000Y-32947500D01*
D26*
X81900000Y-31852500D02*
X82445000Y-31307500D01*
X47385000Y-27337500D02*
X48785000Y-25937500D01*
D27*
X85275000Y-33897500D02*
X85650000Y-33522500D01*
D26*
X39815000Y-32157500D02*
X47385000Y-32157500D01*
D27*
X71150000Y-33572500D02*
X71150000Y-33182500D01*
D26*
X35722500Y-48640000D02*
X34702500Y-47620000D01*
D27*
X82777500Y-33710000D02*
X82965000Y-33897500D01*
X87605800Y-33897500D02*
X86025000Y-33897500D01*
X71150000Y-33572500D02*
X70250000Y-33572500D01*
X71150000Y-33182500D02*
X70915000Y-32947500D01*
X69194200Y-33447499D02*
X69194200Y-32947500D01*
D26*
X68255000Y-30707500D02*
X68255000Y-25940000D01*
D27*
X53650000Y-33192500D02*
X53650000Y-33672500D01*
X55444200Y-33947500D02*
X55444200Y-33447499D01*
X73105800Y-33947500D02*
X71525000Y-33947500D01*
X70510000Y-33572500D02*
X70135000Y-33947500D01*
X55444200Y-33447499D02*
X55444200Y-32947500D01*
D26*
X47385000Y-32157500D02*
X50425000Y-32157500D01*
D27*
X67400000Y-33132500D02*
X67400000Y-33672500D01*
D26*
X81900000Y-32897500D02*
X81900000Y-31852500D01*
X63175000Y-25937500D02*
X68252500Y-25937500D01*
D27*
X70135000Y-33947500D02*
X69194200Y-33947500D01*
D26*
X47385000Y-32157500D02*
X47385000Y-27337500D01*
X63175000Y-23357500D02*
X63175000Y-25937500D01*
D27*
X85524999Y-33397499D02*
X85650000Y-33522500D01*
X83694200Y-33897500D02*
X85275000Y-33897500D01*
D26*
X71425000Y-20187500D02*
X68255000Y-23357500D01*
X40940000Y-43560000D02*
X34702500Y-43560000D01*
D27*
X83694200Y-33397499D02*
X83090001Y-33397499D01*
D26*
X80725000Y-20187500D02*
X71425000Y-20187500D01*
X39815000Y-28537500D02*
X41015000Y-27337500D01*
D27*
X55444200Y-33947500D02*
X53925000Y-33947500D01*
X69194200Y-33447499D02*
X67625001Y-33447499D01*
X83694200Y-33397499D02*
X83694200Y-33897500D01*
X81900000Y-33710000D02*
X81900000Y-33052500D01*
X70250000Y-33572500D02*
X70124999Y-33447499D01*
D26*
X68255000Y-25940000D02*
X68255000Y-23357500D01*
D27*
X81900000Y-33710000D02*
X82777500Y-33710000D01*
D26*
X39815000Y-32157500D02*
X39815000Y-28537500D01*
X63175000Y-23357500D02*
X68255000Y-23357500D01*
X34687500Y-44857500D02*
X34687500Y-33655000D01*
D27*
X70915000Y-32947500D02*
X69194200Y-32947500D01*
X71150000Y-33572500D02*
X70510000Y-33572500D01*
D26*
X82445000Y-21907500D02*
X82445000Y-31307500D01*
D27*
X55459199Y-33432500D02*
X55444200Y-33447499D01*
X69194200Y-32947500D02*
X67400000Y-32947500D01*
X67625001Y-33447499D02*
X67400000Y-33672500D01*
X83694200Y-32897500D02*
X81900000Y-32897500D01*
D26*
X67400000Y-32947500D02*
X67400000Y-33672500D01*
X34687500Y-33655000D02*
X36185000Y-32157500D01*
X50425000Y-32157500D02*
X51940000Y-33672500D01*
D27*
X70124999Y-33447499D02*
X69194200Y-33447499D01*
X86025000Y-33897500D02*
X85650000Y-33522500D01*
X57025000Y-33947500D02*
X57400000Y-33572500D01*
X55444200Y-33447499D02*
X53875001Y-33447499D01*
D26*
X51940000Y-33672500D02*
X53650000Y-33672500D01*
D27*
X83694200Y-32897500D02*
X85025000Y-32897500D01*
X57400000Y-33572500D02*
X57260000Y-33432500D01*
X53925000Y-33947500D02*
X53650000Y-33672500D01*
D26*
X48785000Y-25937500D02*
X63175000Y-25937500D01*
X40940000Y-48640000D02*
X40940000Y-43560000D01*
D27*
X55444200Y-32947500D02*
X56775000Y-32947500D01*
X82965000Y-33897500D02*
X83694200Y-33897500D01*
D26*
X82445000Y-21907500D02*
X80725000Y-20187500D01*
D27*
X59355800Y-33947500D02*
X57775000Y-33947500D01*
X83090001Y-33397499D02*
X82777500Y-33710000D01*
X55444200Y-33947500D02*
X57025000Y-33947500D01*
D26*
X67400000Y-31562500D02*
X68255000Y-30707500D01*
D27*
X56775000Y-32947500D02*
X57400000Y-33572500D01*
D26*
%TO.N,GND*%
X110460000Y-42610000D02*
X110460000Y-50470000D01*
X66260000Y-35222500D02*
X67400000Y-35222500D01*
D27*
X53924999Y-34947501D02*
X53650000Y-35222500D01*
X69194200Y-34447500D02*
X67625000Y-34447500D01*
D26*
X44550000Y-40300000D02*
X40500000Y-40300000D01*
D27*
X57925000Y-35147500D02*
X58180000Y-35402500D01*
X55444200Y-34947501D02*
X55444200Y-34447500D01*
D26*
X73335000Y-23357500D02*
X76145000Y-26167500D01*
D27*
X57400000Y-35147500D02*
X57925000Y-35147500D01*
D26*
X46862500Y-42612500D02*
X46847500Y-42597500D01*
X107700000Y-54320000D02*
X109770000Y-54320000D01*
D27*
X71900000Y-39522500D02*
X71900000Y-41727500D01*
D26*
X46862500Y-48550000D02*
X46862500Y-42612500D01*
X46847500Y-42597500D02*
X44550000Y-40300000D01*
D27*
X82120000Y-34522500D02*
X81900000Y-34742500D01*
D26*
X109770000Y-54320000D02*
X109800000Y-54290000D01*
X107160000Y-51770000D02*
X107160000Y-53780000D01*
D27*
X83694200Y-34397500D02*
X83894900Y-34598200D01*
D26*
X54225000Y-39657500D02*
X54935000Y-39657500D01*
D27*
X83694200Y-34397500D02*
X83015000Y-34397500D01*
X85900000Y-35347500D02*
X85650000Y-35097500D01*
D26*
X78405000Y-35637500D02*
X78415000Y-35627500D01*
X37982500Y-68960000D02*
X37702500Y-68680000D01*
X79872500Y-35660000D02*
X80272500Y-35260000D01*
D27*
X58650000Y-36153300D02*
X58150001Y-36153300D01*
X71150000Y-35147500D02*
X72125000Y-35147500D01*
D26*
X109800000Y-54290000D02*
X110310000Y-54800000D01*
D27*
X85900000Y-36103300D02*
X86400001Y-36103300D01*
X85150700Y-34598200D02*
X85650000Y-35097500D01*
X58150001Y-35432499D02*
X58150001Y-36153300D01*
X71150000Y-35147500D02*
X71635000Y-35147500D01*
X53650000Y-34672500D02*
X53650000Y-35222500D01*
D26*
X78405000Y-35660000D02*
X78405000Y-35637500D01*
X38612500Y-50760000D02*
X44652500Y-50760000D01*
D27*
X71900000Y-35412500D02*
X71900001Y-36153300D01*
D26*
X37702500Y-68680000D02*
X37702500Y-63880000D01*
X37682500Y-51690000D02*
X38612500Y-50760000D01*
D27*
X58150001Y-36153300D02*
X57650000Y-36153300D01*
D26*
X110460000Y-50470000D02*
X109160000Y-51770000D01*
D27*
X71150000Y-35147500D02*
X70950001Y-34947501D01*
X73105800Y-34947501D02*
X71349999Y-34947501D01*
D26*
X91152500Y-35727500D02*
X91150000Y-35725000D01*
X54935000Y-39657500D02*
X55070000Y-39522500D01*
X49155000Y-37757500D02*
X50405000Y-39007500D01*
D27*
X85900000Y-36103300D02*
X85900000Y-35347500D01*
D26*
X93805000Y-35727500D02*
X91152500Y-35727500D01*
X51770000Y-35222500D02*
X53650000Y-35222500D01*
D27*
X71400000Y-36153300D02*
X71900001Y-36153300D01*
D26*
X109160000Y-51770000D02*
X107160000Y-51770000D01*
D27*
X57200001Y-34947501D02*
X57400000Y-35147500D01*
X57650000Y-36153300D02*
X57650000Y-35397500D01*
X71265000Y-35147500D02*
X71400000Y-35282500D01*
X59355800Y-34947501D02*
X58535001Y-34947501D01*
X58535001Y-34947501D02*
X58510000Y-34922500D01*
X85450001Y-34897501D02*
X85650000Y-35097500D01*
D26*
X109150000Y-61930000D02*
X107160000Y-61930000D01*
D27*
X84150000Y-39560000D02*
X86400000Y-39560000D01*
D26*
X64975000Y-36627500D02*
X64975000Y-35925000D01*
X47385000Y-37757500D02*
X47385000Y-42060000D01*
X78415000Y-23357500D02*
X78415000Y-35627500D01*
D27*
X58180000Y-35402500D02*
X58150001Y-35432499D01*
X86400000Y-39560000D02*
X93130000Y-39560000D01*
X83694200Y-34897501D02*
X83694200Y-34397500D01*
X85849999Y-34897501D02*
X85650000Y-35097500D01*
X69650000Y-39522500D02*
X71900000Y-39522500D01*
X86190000Y-35222500D02*
X86400001Y-35432501D01*
X70950001Y-34947501D02*
X69194200Y-34947501D01*
D26*
X64975000Y-35925000D02*
X62890000Y-35925000D01*
X65557500Y-35925000D02*
X66260000Y-35222500D01*
D27*
X83014999Y-34897501D02*
X82652500Y-35260000D01*
D26*
X47385000Y-37757500D02*
X39815000Y-37757500D01*
X47385000Y-37757500D02*
X49235000Y-37757500D01*
X49235000Y-37757500D02*
X51770000Y-35222500D01*
X110310000Y-54800000D02*
X110310000Y-60770000D01*
X47385000Y-42060000D02*
X46847500Y-42597500D01*
D27*
X58650000Y-35322500D02*
X58650000Y-36153300D01*
D26*
X40940000Y-63880000D02*
X40940000Y-68960000D01*
X76145000Y-32937500D02*
X76400000Y-33192500D01*
X55070000Y-39522500D02*
X55900000Y-39522500D01*
D27*
X85650000Y-35097500D02*
X85775000Y-35222500D01*
X69194200Y-34447500D02*
X69194200Y-34947501D01*
X82652500Y-35260000D02*
X81900000Y-35260000D01*
X67400000Y-34672500D02*
X67400000Y-35222500D01*
D26*
X40940000Y-68960000D02*
X37982500Y-68960000D01*
D27*
X83694200Y-34897501D02*
X85450001Y-34897501D01*
X81900000Y-34742500D02*
X81900000Y-35260000D01*
D26*
X107160000Y-53780000D02*
X107700000Y-54320000D01*
X76400000Y-34147500D02*
X76400000Y-35660000D01*
D27*
X84394200Y-35097500D02*
X85650000Y-35097500D01*
D26*
X76400000Y-33192500D02*
X76400000Y-34147500D01*
D27*
X87605800Y-34897501D02*
X85849999Y-34897501D01*
X58475000Y-35147500D02*
X58650000Y-35322500D01*
X57650000Y-35397500D02*
X57400000Y-35147500D01*
X93130000Y-39560000D02*
X93805000Y-38885000D01*
D26*
X39815000Y-39615000D02*
X39815000Y-37757500D01*
X78405000Y-36527500D02*
X78405000Y-35660000D01*
D27*
X83894900Y-34598200D02*
X85150700Y-34598200D01*
X73105800Y-34947501D02*
X73854999Y-34947501D01*
X83015000Y-34397500D02*
X82890000Y-34522500D01*
D26*
X47385000Y-37757500D02*
X49155000Y-37757500D01*
D27*
X55444200Y-34947501D02*
X57200001Y-34947501D01*
D26*
X37702500Y-51710000D02*
X37682500Y-51690000D01*
D27*
X71400000Y-35282500D02*
X71400000Y-36153300D01*
X85650000Y-35097500D02*
X86625000Y-35097500D01*
X55444200Y-34447500D02*
X53875000Y-34447500D01*
X55444200Y-34947501D02*
X53924999Y-34947501D01*
X82890000Y-34522500D02*
X82120000Y-34522500D01*
D26*
X44652500Y-50760000D02*
X46862500Y-48550000D01*
D27*
X71635000Y-35147500D02*
X71900000Y-35412500D01*
D26*
X76400000Y-35660000D02*
X78405000Y-35660000D01*
D27*
X53875000Y-34447500D02*
X53650000Y-34672500D01*
X74655000Y-34147500D02*
X76400000Y-34147500D01*
D26*
X78405000Y-35660000D02*
X79872500Y-35660000D01*
X76145000Y-26167500D02*
X76145000Y-32937500D01*
D27*
X71150000Y-35147500D02*
X71265000Y-35147500D01*
X71349999Y-34947501D02*
X71150000Y-35147500D01*
D26*
X109460000Y-41610000D02*
X110460000Y-42610000D01*
D27*
X72125000Y-35147500D02*
X72400000Y-35422500D01*
D26*
X110310000Y-60770000D02*
X109150000Y-61930000D01*
D27*
X85775000Y-35222500D02*
X86190000Y-35222500D01*
X67674999Y-34947501D02*
X67400000Y-35222500D01*
X86400001Y-35432501D02*
X86400001Y-36103300D01*
X86900000Y-35372500D02*
X86900000Y-36103300D01*
D26*
X80272500Y-35260000D02*
X81900000Y-35260000D01*
X107160000Y-41610000D02*
X109460000Y-41610000D01*
X40500000Y-40300000D02*
X39815000Y-39615000D01*
D27*
X57400000Y-35147500D02*
X58475000Y-35147500D01*
X67625000Y-34447500D02*
X67400000Y-34672500D01*
X55900000Y-39522500D02*
X58150000Y-39522500D01*
X86400001Y-36103300D02*
X86900000Y-36103300D01*
X69194200Y-34947501D02*
X67674999Y-34947501D01*
D26*
X37702500Y-63880000D02*
X37702500Y-51710000D01*
D27*
X72400000Y-35422500D02*
X72400000Y-36153300D01*
X93805000Y-38885000D02*
X93805000Y-35727500D01*
X73854999Y-34947501D02*
X74655000Y-34147500D01*
D26*
X64975000Y-35925000D02*
X65557500Y-35925000D01*
D27*
X83694200Y-34897501D02*
X83014999Y-34897501D01*
D26*
X40940000Y-63880000D02*
X37702500Y-63880000D01*
D27*
X71900001Y-36153300D02*
X72400000Y-36153300D01*
D26*
X73335000Y-23357500D02*
X78415000Y-23357500D01*
D27*
X86625000Y-35097500D02*
X86900000Y-35372500D01*
%TO.N,Net-(D1-A)*%
X62867500Y-37522500D02*
X62890000Y-37500000D01*
X61150000Y-37522500D02*
X62867500Y-37522500D01*
%TO.N,Net-(D2-A)*%
X74725000Y-37272500D02*
X76362500Y-37272500D01*
X76362500Y-37272500D02*
X76400000Y-37235000D01*
%TO.N,Net-(D3-A)*%
X89400000Y-37337500D02*
X91112500Y-37337500D01*
X91112500Y-37337500D02*
X91150000Y-37300000D01*
D26*
%TO.N,/LED_3_VOUT*%
X101600000Y-33220000D02*
X89340000Y-33220000D01*
X102840000Y-34460000D02*
X101600000Y-33220000D01*
D27*
%TO.N,/LED_2_VOUT*%
X69900000Y-32241700D02*
X70399999Y-32241700D01*
X70330000Y-30600000D02*
X70900000Y-30600000D01*
X71400000Y-32241700D02*
X71900001Y-32241700D01*
X70900000Y-32241700D02*
X70900000Y-30600000D01*
X73105800Y-33447499D02*
X73712501Y-33447499D01*
X73105800Y-32947500D02*
X73855000Y-32947500D01*
X69900000Y-32241700D02*
X69900000Y-31030000D01*
X74130000Y-30850000D02*
X73880000Y-30600000D01*
X69900000Y-31030000D02*
X70330000Y-30600000D01*
X72400000Y-32241700D02*
X72829200Y-32241700D01*
X73105800Y-33447499D02*
X73105800Y-32947500D01*
X72400000Y-32241700D02*
X72400000Y-30600000D01*
X72829200Y-32241700D02*
X73105800Y-32518300D01*
X70900000Y-32241700D02*
X71400000Y-32241700D01*
X74130000Y-33222500D02*
X73937500Y-33222500D01*
X74130000Y-33222500D02*
X74130000Y-30850000D01*
X71400000Y-30600000D02*
X71900000Y-30600000D01*
X73880000Y-30600000D02*
X72400000Y-30600000D01*
X70900000Y-30600000D02*
X71400000Y-30600000D01*
X72400000Y-30600000D02*
X72040000Y-30600000D01*
X70399999Y-32241700D02*
X70399999Y-30669999D01*
X73937500Y-33222500D02*
X73712501Y-33447499D01*
X70399999Y-30669999D02*
X70330000Y-30600000D01*
X73105800Y-32518300D02*
X73105800Y-32947500D01*
X71900001Y-32241700D02*
X72400000Y-32241700D01*
X71900000Y-30600000D02*
X72040000Y-30600000D01*
X70399999Y-32241700D02*
X70900000Y-32241700D01*
X73855000Y-32947500D02*
X74130000Y-33222500D01*
X71900001Y-32241700D02*
X71900000Y-30600000D01*
X71400000Y-32241700D02*
X71400000Y-30600000D01*
%TO.N,/LED_1_VOUT*%
X58150001Y-32241700D02*
X58150000Y-30500000D01*
X62400000Y-42220000D02*
X63220000Y-43040000D01*
X57150000Y-32241700D02*
X57650000Y-32241700D01*
X58650000Y-32241700D02*
X59039200Y-32241700D01*
X58650000Y-32241700D02*
X58650000Y-30500000D01*
X57650000Y-32241700D02*
X57650000Y-30500000D01*
X56660000Y-30500000D02*
X57150000Y-30500000D01*
X56150000Y-32241700D02*
X56649999Y-32241700D01*
X58150000Y-30500000D02*
X58650000Y-30500000D01*
X61030000Y-32652500D02*
X60735000Y-32947500D01*
X56649999Y-30510001D02*
X56660000Y-30500000D01*
X58650000Y-30500000D02*
X61030000Y-30500000D01*
X61030000Y-30500000D02*
X61030000Y-32652500D01*
X59039200Y-32241700D02*
X59355800Y-32558300D01*
X56649999Y-32241700D02*
X57150000Y-32241700D01*
X58150001Y-32241700D02*
X58650000Y-32241700D01*
X57650000Y-32241700D02*
X58150001Y-32241700D01*
X57150000Y-32241700D02*
X57150000Y-30500000D01*
X56649999Y-32241700D02*
X56649999Y-30510001D01*
X63220000Y-43040000D02*
X66140000Y-43040000D01*
X59355800Y-32558300D02*
X59355800Y-32947500D01*
X59355800Y-33447499D02*
X59355800Y-32947500D01*
X57150000Y-30500000D02*
X57650000Y-30500000D01*
X59355800Y-33447499D02*
X60235001Y-33447499D01*
X57650000Y-30500000D02*
X58150000Y-30500000D01*
X60735000Y-32947500D02*
X60235001Y-33447499D01*
X62400000Y-39940000D02*
X62400000Y-42220000D01*
X56150000Y-32241700D02*
X56150000Y-31010000D01*
X59355800Y-32947500D02*
X60735000Y-32947500D01*
X56150000Y-31010000D02*
X56649999Y-30510001D01*
%TO.N,/LED_1_CTRL*%
X53624000Y-38548500D02*
X53650000Y-38522500D01*
%TO.N,/LED_1_EN*%
X53650000Y-36872500D02*
X54920000Y-36872500D01*
X55444200Y-36348300D02*
X55444200Y-35447500D01*
X54920000Y-36872500D02*
X55444200Y-36348300D01*
%TO.N,/LED1_ILIM*%
X56649999Y-36622501D02*
X56649999Y-36153300D01*
X55900000Y-37872500D02*
X55900000Y-37372500D01*
X55900000Y-37372500D02*
X56649999Y-36622501D01*
%TO.N,/LED1_IMON*%
X57410000Y-37872500D02*
X57150000Y-37612500D01*
X58150000Y-37872500D02*
X57410000Y-37872500D01*
X57150000Y-36153300D02*
X57150000Y-37612500D01*
%TO.N,/LED1_PG*%
X60370000Y-35872500D02*
X59945000Y-35447500D01*
X59945000Y-35447500D02*
X59355800Y-35447500D01*
X61150000Y-35872500D02*
X60370000Y-35872500D01*
%TO.N,/LED2_PG*%
X74550000Y-35447500D02*
X74725000Y-35622500D01*
X73105800Y-35447500D02*
X74550000Y-35447500D01*
%TO.N,/LED_2_EN*%
X69194200Y-36238300D02*
X69194200Y-35447500D01*
X68560000Y-36872500D02*
X69194200Y-36238300D01*
X67400000Y-36872500D02*
X68560000Y-36872500D01*
%TO.N,/LED2_ILIM*%
X69830000Y-37132500D02*
X70000000Y-37132500D01*
X70399999Y-36732501D02*
X70399999Y-36153300D01*
X70000000Y-37132500D02*
X70399999Y-36732501D01*
X69650000Y-37312500D02*
X69830000Y-37132500D01*
X69650000Y-37872500D02*
X69650000Y-37312500D01*
%TO.N,/LED2_IMON*%
X70900000Y-36153300D02*
X70900000Y-37522500D01*
X71250000Y-37872500D02*
X71900000Y-37872500D01*
X70900000Y-37522500D02*
X71250000Y-37872500D01*
%TO.N,/LED3_PG*%
X88595000Y-35687500D02*
X88305000Y-35397500D01*
X89400000Y-35687500D02*
X88595000Y-35687500D01*
X88305000Y-35397500D02*
X87605800Y-35397500D01*
%TO.N,/LED_3_EN*%
X81900000Y-36910000D02*
X83032500Y-36910000D01*
X83032500Y-36910000D02*
X83694200Y-36248300D01*
X83694200Y-36248300D02*
X83694200Y-35397500D01*
%TO.N,/LED3_ILIM*%
X84150000Y-37192500D02*
X84320000Y-37022500D01*
X84320000Y-37022500D02*
X84640000Y-37022500D01*
X84150000Y-37910000D02*
X84150000Y-37192500D01*
X84899999Y-36762501D02*
X84899999Y-36103300D01*
X84640000Y-37022500D02*
X84899999Y-36762501D01*
%TO.N,/LED3_IMON*%
X86400000Y-37192500D02*
X86200000Y-36992500D01*
X86200000Y-36992500D02*
X85590000Y-36992500D01*
X85400000Y-36802500D02*
X85400000Y-36103300D01*
X86400000Y-37910000D02*
X86400000Y-37192500D01*
X85590000Y-36992500D02*
X85400000Y-36802500D01*
%TD*%
M02*
