M48
; DRILL file {KiCad 9.0.6} date 2025-12-30T05:11:12+0530
; FORMAT={-:-/ absolute / metric / decimal}
; #@! TF.CreationDate,2025-12-30T05:11:12+05:30
; #@! TF.GenerationSoftware,Kicad,Pcbnew,9.0.6
; #@! TF.FileFunction,Plated,1,2,PTH
FMAT,2
METRIC
; #@! TA.AperFunction,Plated,PTH,ViaDrill
T1C0.300
; #@! TA.AperFunction,Plated,PTH,ComponentDrill
T2C1.020
; #@! TA.AperFunction,Plated,PTH,ComponentDrill
T3C1.300
%
G90
G05
T1
X48.285Y-47.31
X48.285Y-62.785
X48.885Y-45.56
X48.885Y-61.785
X50.405Y-39.008
X54.225Y-39.657
X61.03Y-30.5
X62.4Y-39.94
X64.975Y-36.627
X66.14Y-43.04
X71.9Y-41.727
X74.13Y-33.222
X75.89Y-39.1
X78.405Y-36.527
X82.46Y-40.235
X87.05Y-24.85
X88.91Y-40.785
X90.61Y-33.9
X93.805Y-35.727
X94.385Y-41.61
X94.435Y-54.56
X102.84Y-34.46
T2
X54.915Y-45.883
X54.915Y-71.282
X57.455Y-45.883
X57.455Y-71.282
X59.995Y-45.883
X59.995Y-71.282
X62.535Y-45.883
X62.535Y-71.282
X65.075Y-45.883
X65.075Y-71.282
X67.615Y-45.883
X67.615Y-71.282
X70.155Y-45.883
X70.155Y-71.282
X72.695Y-45.883
X72.695Y-71.282
X75.235Y-45.883
X75.235Y-71.282
X77.775Y-45.883
X77.775Y-71.282
X80.315Y-45.883
X80.315Y-71.282
X82.855Y-45.883
X82.855Y-71.282
X85.395Y-45.883
X85.395Y-71.282
X87.935Y-45.883
X87.935Y-71.282
X90.475Y-45.883
X90.475Y-71.282
T3
X40.94Y-43.56
X40.94Y-48.64
X40.94Y-53.72
X40.94Y-58.8
X40.94Y-63.88
X40.94Y-68.96
X63.175Y-23.357
X68.255Y-23.357
X73.335Y-23.357
X78.415Y-23.357
X107.16Y-41.61
X107.16Y-46.69
X107.16Y-51.77
X107.16Y-56.85
X107.16Y-61.93
X107.16Y-67.01
M30
