%TF.GenerationSoftware,KiCad,Pcbnew,9.0.6*%
%TF.CreationDate,2025-12-30T05:11:15+05:30*%
%TF.ProjectId,UPS_Switch,5550535f-5377-4697-9463-682e6b696361,rev?*%
%TF.SameCoordinates,Original*%
%TF.FileFunction,Copper,L2,Bot*%
%TF.FilePolarity,Positive*%
%FSLAX46Y46*%
G04 Gerber Fmt 4.6, Leading zero omitted, Abs format (unit mm)*
G04 Created by KiCad (PCBNEW 9.0.6) date 2025-12-30 05:11:15*
%MOMM*%
%LPD*%
G01*
G04 APERTURE LIST*
G04 Aperture macros list*
%AMRoundRect*
0 Rectangle with rounded corners*
0 $1 Rounding radius*
0 $2 $3 $4 $5 $6 $7 $8 $9 X,Y pos of 4 corners*
0 Add a 4 corners polygon primitive as box body*
4,1,4,$2,$3,$4,$5,$6,$7,$8,$9,$2,$3,0*
0 Add four circle primitives for the rounded corners*
1,1,$1+$1,$2,$3*
1,1,$1+$1,$4,$5*
1,1,$1+$1,$6,$7*
1,1,$1+$1,$8,$9*
0 Add four rect primitives between the rounded corners*
20,1,$1+$1,$2,$3,$4,$5,0*
20,1,$1+$1,$4,$5,$6,$7,0*
20,1,$1+$1,$6,$7,$8,$9,0*
20,1,$1+$1,$8,$9,$2,$3,0*%
G04 Aperture macros list end*
%TA.AperFunction,ComponentPad*%
%ADD10R,2.000000X2.000000*%
%TD*%
%TA.AperFunction,ComponentPad*%
%ADD11C,2.000000*%
%TD*%
%TA.AperFunction,ComponentPad*%
%ADD12RoundRect,0.250000X1.050000X1.050000X-1.050000X1.050000X-1.050000X-1.050000X1.050000X-1.050000X0*%
%TD*%
%TA.AperFunction,ComponentPad*%
%ADD13C,2.600000*%
%TD*%
%TA.AperFunction,ComponentPad*%
%ADD14RoundRect,0.250000X1.050000X-1.050000X1.050000X1.050000X-1.050000X1.050000X-1.050000X-1.050000X0*%
%TD*%
%TA.AperFunction,ComponentPad*%
%ADD15RoundRect,0.250000X-1.050000X1.050000X-1.050000X-1.050000X1.050000X-1.050000X1.050000X1.050000X0*%
%TD*%
%TA.AperFunction,ViaPad*%
%ADD16C,0.600000*%
%TD*%
%TA.AperFunction,Conductor*%
%ADD17C,0.300000*%
%TD*%
%TA.AperFunction,Conductor*%
%ADD18C,0.200000*%
%TD*%
G04 APERTURE END LIST*
D10*
%TO.P,U1,1,3V3*%
%TO.N,unconnected-(U1-3V3-Pad1)*%
X90475000Y-45882500D03*
D11*
%TO.P,U1,2,GND*%
%TO.N,GND*%
X87935000Y-45882500D03*
%TO.P,U1,3,D15*%
%TO.N,unconnected-(U1-D15-Pad3)*%
X85395000Y-45882500D03*
%TO.P,U1,4,D2*%
%TO.N,unconnected-(U1-D2-Pad4)*%
X82855000Y-45882500D03*
%TO.P,U1,5,D4*%
%TO.N,unconnected-(U1-D4-Pad5)*%
X80315000Y-45882500D03*
%TO.P,U1,6,RX2*%
%TO.N,unconnected-(U1-RX2-Pad6)*%
X77775000Y-45882500D03*
%TO.P,U1,7,TX2*%
%TO.N,unconnected-(U1-TX2-Pad7)*%
X75235000Y-45882500D03*
%TO.P,U1,8,D5*%
%TO.N,unconnected-(U1-D5-Pad8)*%
X72695000Y-45882500D03*
%TO.P,U1,9,D18*%
%TO.N,unconnected-(U1-D18-Pad9)*%
X70155000Y-45882500D03*
%TO.P,U1,10,D19*%
%TO.N,unconnected-(U1-D19-Pad10)*%
X67615000Y-45882500D03*
%TO.P,U1,11,D21*%
%TO.N,unconnected-(U1-D21-Pad11)*%
X65075000Y-45882500D03*
%TO.P,U1,12,RX0*%
%TO.N,unconnected-(U1-RX0-Pad12)*%
X62535000Y-45882500D03*
%TO.P,U1,13,TX0*%
%TO.N,Net-(U1-TX0)*%
X59995000Y-45882500D03*
%TO.P,U1,14,D22*%
%TO.N,unconnected-(U1-D22-Pad14)*%
X57455000Y-45882500D03*
%TO.P,U1,15,D23*%
%TO.N,unconnected-(U1-D23-Pad15)*%
X54915000Y-45882500D03*
%TO.P,U1,30,VIN*%
%TO.N,+5V*%
X90475000Y-71282500D03*
%TO.P,U1,29,GND*%
%TO.N,GND*%
X87935000Y-71282500D03*
%TO.P,U1,28,D13*%
%TO.N,unconnected-(U1-D13-Pad28)*%
X85395000Y-71282500D03*
%TO.P,U1,27,D12*%
%TO.N,unconnected-(U1-D12-Pad27)*%
X82855000Y-71282500D03*
%TO.P,U1,26,D14*%
%TO.N,unconnected-(U1-D14-Pad26)*%
X80315000Y-71282500D03*
%TO.P,U1,25,D27*%
%TO.N,/LED_3_CTRL*%
X77775000Y-71282500D03*
%TO.P,U1,24,D26*%
%TO.N,/LED_2_CTRL*%
X75235000Y-71282500D03*
%TO.P,U1,23,D25*%
%TO.N,/LED_1_CTRL*%
X72695000Y-71282500D03*
%TO.P,U1,22,D33*%
%TO.N,unconnected-(U1-D33-Pad22)*%
X70155000Y-71282500D03*
%TO.P,U1,21,D32*%
%TO.N,unconnected-(U1-D32-Pad21)*%
X67615000Y-71282500D03*
%TO.P,U1,20,D35*%
%TO.N,unconnected-(U1-D35-Pad20)*%
X65075000Y-71282500D03*
%TO.P,U1,19,D34*%
%TO.N,unconnected-(U1-D34-Pad19)*%
X62535000Y-71282500D03*
%TO.P,U1,18,VN*%
%TO.N,unconnected-(U1-VN-Pad18)*%
X59995000Y-71282500D03*
%TO.P,U1,17,VP*%
%TO.N,unconnected-(U1-VP-Pad17)*%
X57455000Y-71282500D03*
%TO.P,U1,16,EN*%
%TO.N,unconnected-(U1-EN-Pad16)*%
X54915000Y-71282500D03*
%TD*%
D12*
%TO.P,J1,1,Pin_1*%
%TO.N,GND*%
X78415000Y-23357500D03*
D13*
%TO.P,J1,2,Pin_2*%
X73335000Y-23357500D03*
%TO.P,J1,3,Pin_3*%
%TO.N,+5V*%
X68255000Y-23357500D03*
%TO.P,J1,4,Pin_4*%
X63175000Y-23357500D03*
%TD*%
D14*
%TO.P,J4,1,Pin_1*%
%TO.N,/LED_1_VOUT*%
X107160000Y-67010000D03*
D13*
%TO.P,J4,2,Pin_2*%
%TO.N,GND*%
X107160000Y-61930000D03*
%TO.P,J4,3,Pin_3*%
%TO.N,/LED_2_VOUT*%
X107160000Y-56850000D03*
%TO.P,J4,4,Pin_4*%
%TO.N,GND*%
X107160000Y-51770000D03*
%TO.P,J4,5,Pin_5*%
%TO.N,/LED_3_VOUT*%
X107160000Y-46690000D03*
%TO.P,J4,6,Pin_6*%
%TO.N,GND*%
X107160000Y-41610000D03*
%TD*%
D15*
%TO.P,J3,1,Pin_1*%
%TO.N,+5V*%
X40940000Y-43560000D03*
D13*
%TO.P,J3,2,Pin_2*%
X40940000Y-48640000D03*
%TO.P,J3,3,Pin_3*%
%TO.N,/Motor_PWM*%
X40940000Y-53720000D03*
%TO.P,J3,4,Pin_4*%
%TO.N,unconnected-(J3-Pin_4-Pad4)*%
X40940000Y-58800000D03*
%TO.P,J3,5,Pin_5*%
%TO.N,GND*%
X40940000Y-63880000D03*
%TO.P,J3,6,Pin_6*%
X40940000Y-68960000D03*
%TD*%
D16*
%TO.N,+5V*%
X90610000Y-33900000D03*
X87050000Y-24850000D03*
%TO.N,/LED_3_CTRL*%
X94435000Y-54560000D03*
X88910000Y-40785000D03*
X82460000Y-40235000D03*
X94385000Y-41610000D03*
%TO.N,/LED_2_CTRL*%
X48885000Y-61785000D03*
X48885000Y-45560000D03*
%TO.N,/LED_1_CTRL*%
X48285000Y-62785000D03*
X48285000Y-47310000D03*
%TO.N,GND*%
X64975000Y-36627500D03*
X71900000Y-41727500D03*
X93805000Y-35727500D03*
X50405000Y-39007500D03*
X78405000Y-36527500D03*
X54225000Y-39657500D03*
%TO.N,/LED_3_VOUT*%
X102840000Y-34460000D03*
%TO.N,/LED_2_VOUT*%
X75890000Y-39100000D03*
X74130000Y-33222500D03*
%TO.N,/LED_1_VOUT*%
X66140000Y-43040000D03*
X62400000Y-39940000D03*
X61030000Y-30500000D03*
%TD*%
D17*
%TO.N,+5V*%
X87050000Y-24850000D02*
X90610000Y-28410000D01*
X90610000Y-28410000D02*
X90610000Y-33900000D01*
D18*
%TO.N,/LED_3_CTRL*%
X94385000Y-41610000D02*
X94435000Y-41660000D01*
X94435000Y-41660000D02*
X94435000Y-54560000D01*
X82460000Y-40235000D02*
X83010000Y-40785000D01*
X83010000Y-40785000D02*
X88910000Y-40785000D01*
%TO.N,/LED_1_VOUT*%
X66140000Y-43040000D02*
X91565000Y-43040000D01*
X91565000Y-43040000D02*
X92885000Y-44360000D01*
X92885000Y-44360000D02*
X92885000Y-54510000D01*
X110160000Y-66060000D02*
X109210000Y-67010000D01*
X92885000Y-54510000D02*
X97710000Y-59335000D01*
X97710000Y-59335000D02*
X107910000Y-59335000D01*
X107910000Y-59335000D02*
X110160000Y-61585000D01*
X110160000Y-61585000D02*
X110160000Y-66060000D01*
X109210000Y-67010000D02*
X107160000Y-67010000D01*
D17*
%TO.N,GND*%
X87935000Y-65410000D02*
X83535000Y-65410000D01*
X83535000Y-65410000D02*
X80210000Y-68735000D01*
X80210000Y-68735000D02*
X41165000Y-68735000D01*
X41165000Y-68735000D02*
X40940000Y-68960000D01*
D18*
%TO.N,/LED_2_CTRL*%
X48885000Y-45560000D02*
X48885000Y-61785000D01*
%TO.N,/LED_1_CTRL*%
X48285000Y-47310000D02*
X48285000Y-62785000D01*
D17*
%TO.N,GND*%
X87935000Y-65410000D02*
X87935000Y-45882500D01*
X91790000Y-65410000D02*
X87935000Y-65410000D01*
X87935000Y-71282500D02*
X87935000Y-65410000D01*
X107160000Y-61930000D02*
X107100000Y-61990000D01*
X107100000Y-61990000D02*
X95210000Y-61990000D01*
X95210000Y-61990000D02*
X91790000Y-65410000D01*
%TO.N,/LED_3_VOUT*%
X102840000Y-34460000D02*
X103800000Y-35420000D01*
X103800000Y-35420000D02*
X103800000Y-44925000D01*
X103800000Y-44925000D02*
X105565000Y-46690000D01*
X105565000Y-46690000D02*
X107160000Y-46690000D01*
X107100000Y-46750000D02*
X107160000Y-46690000D01*
%TO.N,GND*%
X81160000Y-40040000D02*
X81160000Y-41640000D01*
X54225000Y-40477500D02*
X55025000Y-41277500D01*
X93805000Y-26877500D02*
X90285000Y-23357500D01*
X55375000Y-41627500D02*
X61815000Y-41627500D01*
X89555000Y-41907500D02*
X93805000Y-37657500D01*
X81160000Y-41640000D02*
X81427500Y-41907500D01*
X52605000Y-39657500D02*
X54225000Y-39657500D01*
X80287500Y-39167500D02*
X81160000Y-40040000D01*
X64975000Y-30795000D02*
X67360000Y-28410000D01*
X64985000Y-36637500D02*
X64975000Y-36627500D01*
X73335000Y-26895000D02*
X73335000Y-23357500D01*
X93805000Y-37657500D02*
X93805000Y-35727500D01*
X70965000Y-41727500D02*
X71900000Y-41727500D01*
X64985000Y-40267500D02*
X66445000Y-41727500D01*
X71820000Y-28410000D02*
X73335000Y-26895000D01*
X75845000Y-41727500D02*
X78065000Y-39507500D01*
X61815000Y-41627500D02*
X63625000Y-41627500D01*
X51955000Y-39007500D02*
X52605000Y-39657500D01*
X64975000Y-36627500D02*
X64975000Y-30795000D01*
X66445000Y-41727500D02*
X70965000Y-41727500D01*
X78405000Y-39167500D02*
X80287500Y-39167500D01*
X71900000Y-41727500D02*
X75845000Y-41727500D01*
X78065000Y-39507500D02*
X78405000Y-39167500D01*
X55025000Y-41277500D02*
X55375000Y-41627500D01*
X50405000Y-39007500D02*
X51955000Y-39007500D01*
X63625000Y-41627500D02*
X64985000Y-40267500D01*
X54225000Y-39657500D02*
X54225000Y-40477500D01*
X93805000Y-26877500D02*
X93805000Y-35727500D01*
X78405000Y-36527500D02*
X78415000Y-36517500D01*
X67360000Y-28410000D02*
X71820000Y-28410000D01*
X64985000Y-40267500D02*
X64985000Y-36637500D01*
X90285000Y-23357500D02*
X78415000Y-23357500D01*
X78405000Y-39167500D02*
X78405000Y-36527500D01*
X81427500Y-41907500D02*
X89555000Y-41907500D01*
%TO.N,/LED_2_VOUT*%
X75890000Y-38640000D02*
X75890000Y-39100000D01*
X75402500Y-33222500D02*
X75680000Y-33500000D01*
X74942500Y-33222500D02*
X75402500Y-33222500D01*
X75890000Y-33710000D02*
X75890000Y-38640000D01*
X75680000Y-33500000D02*
X75890000Y-33710000D01*
X74130000Y-33222500D02*
X74942500Y-33222500D01*
D18*
%TO.N,/LED_1_VOUT*%
X61030000Y-30500000D02*
X61920000Y-30500000D01*
X62400000Y-30980000D02*
X62400000Y-39940000D01*
X61920000Y-30500000D02*
X62400000Y-30980000D01*
D17*
%TO.N,GND*%
X78415000Y-36517500D02*
X78415000Y-23357500D01*
%TD*%
M02*
