%TF.GenerationSoftware,KiCad,Pcbnew,9.0.6*%
%TF.CreationDate,2025-12-30T05:11:15+05:30*%
%TF.ProjectId,UPS_Switch,5550535f-5377-4697-9463-682e6b696361,rev?*%
%TF.SameCoordinates,Original*%
%TF.FileFunction,Soldermask,Bot*%
%TF.FilePolarity,Negative*%
%FSLAX46Y46*%
G04 Gerber Fmt 4.6, Leading zero omitted, Abs format (unit mm)*
G04 Created by KiCad (PCBNEW 9.0.6) date 2025-12-30 05:11:15*
%MOMM*%
%LPD*%
G01*
G04 APERTURE LIST*
G04 Aperture macros list*
%AMRoundRect*
0 Rectangle with rounded corners*
0 $1 Rounding radius*
0 $2 $3 $4 $5 $6 $7 $8 $9 X,Y pos of 4 corners*
0 Add a 4 corners polygon primitive as box body*
4,1,4,$2,$3,$4,$5,$6,$7,$8,$9,$2,$3,0*
0 Add four circle primitives for the rounded corners*
1,1,$1+$1,$2,$3*
1,1,$1+$1,$4,$5*
1,1,$1+$1,$6,$7*
1,1,$1+$1,$8,$9*
0 Add four rect primitives between the rounded corners*
20,1,$1+$1,$2,$3,$4,$5,0*
20,1,$1+$1,$4,$5,$6,$7,0*
20,1,$1+$1,$6,$7,$8,$9,0*
20,1,$1+$1,$8,$9,$2,$3,0*%
G04 Aperture macros list end*
%ADD10RoundRect,0.102000X-1.000000X1.000000X-1.000000X-1.000000X1.000000X-1.000000X1.000000X1.000000X0*%
%ADD11C,2.204000*%
%ADD12C,3.000000*%
%ADD13RoundRect,0.250000X1.050000X1.050000X-1.050000X1.050000X-1.050000X-1.050000X1.050000X-1.050000X0*%
%ADD14C,2.600000*%
%ADD15RoundRect,0.250000X1.050000X-1.050000X1.050000X1.050000X-1.050000X1.050000X-1.050000X-1.050000X0*%
%ADD16RoundRect,0.250000X-1.050000X1.050000X-1.050000X-1.050000X1.050000X-1.050000X1.050000X1.050000X0*%
G04 APERTURE END LIST*
D10*
%TO.C,U1*%
X90475000Y-45882500D03*
D11*
X87935000Y-45882500D03*
X85395000Y-45882500D03*
X82855000Y-45882500D03*
X80315000Y-45882500D03*
X77775000Y-45882500D03*
X75235000Y-45882500D03*
X72695000Y-45882500D03*
X70155000Y-45882500D03*
X67615000Y-45882500D03*
X65075000Y-45882500D03*
X62535000Y-45882500D03*
X59995000Y-45882500D03*
X57455000Y-45882500D03*
X54915000Y-45882500D03*
X90475000Y-71282500D03*
X87935000Y-71282500D03*
X85395000Y-71282500D03*
X82855000Y-71282500D03*
X80315000Y-71282500D03*
X77775000Y-71282500D03*
X75235000Y-71282500D03*
X72695000Y-71282500D03*
X70155000Y-71282500D03*
X67615000Y-71282500D03*
X65075000Y-71282500D03*
X62535000Y-71282500D03*
X59995000Y-71282500D03*
X57455000Y-71282500D03*
X54915000Y-71282500D03*
D12*
X51485000Y-46302500D03*
X51485000Y-70812500D03*
X98435000Y-70812500D03*
X98435000Y-46302500D03*
%TD*%
D13*
%TO.C,J1*%
X78415000Y-23357500D03*
D14*
X73335000Y-23357500D03*
X68255000Y-23357500D03*
X63175000Y-23357500D03*
%TD*%
D15*
%TO.C,J4*%
X107160000Y-67010000D03*
D14*
X107160000Y-61930000D03*
X107160000Y-56850000D03*
X107160000Y-51770000D03*
X107160000Y-46690000D03*
X107160000Y-41610000D03*
%TD*%
D16*
%TO.C,J3*%
X40940000Y-43560000D03*
D14*
X40940000Y-48640000D03*
X40940000Y-53720000D03*
X40940000Y-58800000D03*
X40940000Y-63880000D03*
X40940000Y-68960000D03*
%TD*%
M02*
