<?xml version="1.0" standalone="no"?>
 <!DOCTYPE svg PUBLIC "-//W3C//DTD SVG 1.1//EN" 
 "http://www.w3.org/Graphics/SVG/1.1/DTD/svg11.dtd"> 
<svg
  xmlns:svg="http://www.w3.org/2000/svg"
  xmlns="http://www.w3.org/2000/svg"
  xmlns:xlink="http://www.w3.org/1999/xlink"
  version="1.1"
  width="83.240000mm" height="60.910000mm" viewBox="32.075000 15.125000 83.240000 60.910000">
<title>SVG Image created as PC_and_Light_Controller-B_Mask.svg date 2026/01/18 07:07:18 </title>
  <desc>Image generated by PCBNEW </desc>
<g style="fill:#000000; fill-opacity:1.0000;stroke:#000000; stroke-opacity:1.0000;
stroke-linecap:round; stroke-linejoin:round;"
 transform="translate(0 0) scale(1 1)">
<path style="fill:#000000; fill-opacity:1.0000; stroke:none;fill-rule:evenodd;"
d="M 79.7150,24.4075
79.6960,24.5032
79.6418,24.5843
79.5607,24.6385
79.4650,24.6575
77.3650,24.6575
77.2693,24.6385
77.1882,24.5843
77.1340,24.5032
77.1150,24.4075
77.1150,22.3075
77.1340,22.2118
77.1882,22.1307
77.2693,22.0765
77.3650,22.0575
79.4650,22.0575
79.5607,22.0765
79.6418,22.1307
79.6960,22.2118
79.7150,22.3075
Z" /> 
</g>
<g style="fill:#000000; fill-opacity:1.0000; stroke:none;">
<circle cx="73.3350" cy="23.3575" r="1.3000" /> 
</g>
<g style="fill:#000000; fill-opacity:1.0000; stroke:none;">
<circle cx="68.2550" cy="23.3575" r="1.3000" /> 
</g>
<g style="fill:#000000; fill-opacity:1.0000; stroke:none;">
<circle cx="63.1750" cy="23.3575" r="1.3000" /> 
<path style="fill:#000000; fill-opacity:1.0000; stroke:none;fill-rule:evenodd;"
d="M 106.1100,68.3100
106.0143,68.2910
105.9332,68.2368
105.8790,68.1557
105.8600,68.0600
105.8600,65.9600
105.8790,65.8643
105.9332,65.7832
106.0143,65.7290
106.1100,65.7100
108.2100,65.7100
108.3057,65.7290
108.3868,65.7832
108.4410,65.8643
108.4600,65.9600
108.4600,68.0600
108.4410,68.1557
108.3868,68.2368
108.3057,68.2910
108.2100,68.3100
Z" /> 
</g>
<g style="fill:#000000; fill-opacity:1.0000; stroke:none;">
<circle cx="107.1600" cy="61.9300" r="1.3000" /> 
</g>
<g style="fill:#000000; fill-opacity:1.0000; stroke:none;">
<circle cx="107.1600" cy="56.8500" r="1.3000" /> 
</g>
<g style="fill:#000000; fill-opacity:1.0000; stroke:none;">
<circle cx="107.1600" cy="51.7700" r="1.3000" /> 
</g>
<g style="fill:#000000; fill-opacity:1.0000; stroke:none;">
<circle cx="107.1600" cy="46.6900" r="1.3000" /> 
</g>
<g style="fill:#000000; fill-opacity:1.0000; stroke:none;">
<circle cx="107.1600" cy="41.6100" r="1.3000" /> 
</g>
<g style="fill:#000000; fill-opacity:1.0000; stroke:none;">
<circle cx="98.4350" cy="46.3025" r="1.5000" /> 
</g>
<g style="fill:#000000; fill-opacity:1.0000; stroke:none;">
<circle cx="51.4850" cy="46.3025" r="1.5000" /> 
</g>
<g style="fill:#000000; fill-opacity:1.0000; stroke:none;">
<circle cx="98.4350" cy="70.8125" r="1.5000" /> 
</g>
<g style="fill:#000000; fill-opacity:1.0000; stroke:none;">
<circle cx="51.4850" cy="70.8125" r="1.5000" /> 
<path style="fill:#000000; fill-opacity:1.0000; stroke:none;fill-rule:evenodd;"
d="M 91.4750,44.7805
91.5140,44.7883
91.5471,44.8104
91.5692,44.8435
91.5770,44.8825
91.5770,46.8825
91.5692,46.9215
91.5471,46.9546
91.5140,46.9767
91.4750,46.9845
89.4750,46.9845
89.4360,46.9767
89.4029,46.9546
89.3808,46.9215
89.3730,46.8825
89.3730,44.8825
89.3808,44.8435
89.4029,44.8104
89.4360,44.7883
89.4750,44.7805
Z" /> 
</g>
<g style="fill:#000000; fill-opacity:1.0000; stroke:none;">
<circle cx="87.9350" cy="45.8825" r="1.1020" /> 
</g>
<g style="fill:#000000; fill-opacity:1.0000; stroke:none;">
<circle cx="85.3950" cy="45.8825" r="1.1020" /> 
</g>
<g style="fill:#000000; fill-opacity:1.0000; stroke:none;">
<circle cx="82.8550" cy="45.8825" r="1.1020" /> 
</g>
<g style="fill:#000000; fill-opacity:1.0000; stroke:none;">
<circle cx="80.3150" cy="45.8825" r="1.1020" /> 
</g>
<g style="fill:#000000; fill-opacity:1.0000; stroke:none;">
<circle cx="77.7750" cy="45.8825" r="1.1020" /> 
</g>
<g style="fill:#000000; fill-opacity:1.0000; stroke:none;">
<circle cx="75.2350" cy="45.8825" r="1.1020" /> 
</g>
<g style="fill:#000000; fill-opacity:1.0000; stroke:none;">
<circle cx="72.6950" cy="45.8825" r="1.1020" /> 
</g>
<g style="fill:#000000; fill-opacity:1.0000; stroke:none;">
<circle cx="70.1550" cy="45.8825" r="1.1020" /> 
</g>
<g style="fill:#000000; fill-opacity:1.0000; stroke:none;">
<circle cx="67.6150" cy="45.8825" r="1.1020" /> 
</g>
<g style="fill:#000000; fill-opacity:1.0000; stroke:none;">
<circle cx="65.0750" cy="45.8825" r="1.1020" /> 
</g>
<g style="fill:#000000; fill-opacity:1.0000; stroke:none;">
<circle cx="62.5350" cy="45.8825" r="1.1020" /> 
</g>
<g style="fill:#000000; fill-opacity:1.0000; stroke:none;">
<circle cx="59.9950" cy="45.8825" r="1.1020" /> 
</g>
<g style="fill:#000000; fill-opacity:1.0000; stroke:none;">
<circle cx="57.4550" cy="45.8825" r="1.1020" /> 
</g>
<g style="fill:#000000; fill-opacity:1.0000; stroke:none;">
<circle cx="54.9150" cy="45.8825" r="1.1020" /> 
</g>
<g style="fill:#000000; fill-opacity:1.0000; stroke:none;">
<circle cx="54.9150" cy="71.2825" r="1.1020" /> 
</g>
<g style="fill:#000000; fill-opacity:1.0000; stroke:none;">
<circle cx="57.4550" cy="71.2825" r="1.1020" /> 
</g>
<g style="fill:#000000; fill-opacity:1.0000; stroke:none;">
<circle cx="59.9950" cy="71.2825" r="1.1020" /> 
</g>
<g style="fill:#000000; fill-opacity:1.0000; stroke:none;">
<circle cx="62.5350" cy="71.2825" r="1.1020" /> 
</g>
<g style="fill:#000000; fill-opacity:1.0000; stroke:none;">
<circle cx="65.0750" cy="71.2825" r="1.1020" /> 
</g>
<g style="fill:#000000; fill-opacity:1.0000; stroke:none;">
<circle cx="67.6150" cy="71.2825" r="1.1020" /> 
</g>
<g style="fill:#000000; fill-opacity:1.0000; stroke:none;">
<circle cx="70.1550" cy="71.2825" r="1.1020" /> 
</g>
<g style="fill:#000000; fill-opacity:1.0000; stroke:none;">
<circle cx="72.6950" cy="71.2825" r="1.1020" /> 
</g>
<g style="fill:#000000; fill-opacity:1.0000; stroke:none;">
<circle cx="75.2350" cy="71.2825" r="1.1020" /> 
</g>
<g style="fill:#000000; fill-opacity:1.0000; stroke:none;">
<circle cx="77.7750" cy="71.2825" r="1.1020" /> 
</g>
<g style="fill:#000000; fill-opacity:1.0000; stroke:none;">
<circle cx="80.3150" cy="71.2825" r="1.1020" /> 
</g>
<g style="fill:#000000; fill-opacity:1.0000; stroke:none;">
<circle cx="82.8550" cy="71.2825" r="1.1020" /> 
</g>
<g style="fill:#000000; fill-opacity:1.0000; stroke:none;">
<circle cx="85.3950" cy="71.2825" r="1.1020" /> 
</g>
<g style="fill:#000000; fill-opacity:1.0000; stroke:none;">
<circle cx="87.9350" cy="71.2825" r="1.1020" /> 
</g>
<g style="fill:#000000; fill-opacity:1.0000; stroke:none;">
<circle cx="90.4750" cy="71.2825" r="1.1020" /> 
<path style="fill:#000000; fill-opacity:1.0000; stroke:none;fill-rule:evenodd;"
d="M 41.9900,42.2600
42.0857,42.2790
42.1668,42.3332
42.2210,42.4143
42.2400,42.5100
42.2400,44.6100
42.2210,44.7057
42.1668,44.7868
42.0857,44.8410
41.9900,44.8600
39.8900,44.8600
39.7943,44.8410
39.7132,44.7868
39.6590,44.7057
39.6400,44.6100
39.6400,42.5100
39.6590,42.4143
39.7132,42.3332
39.7943,42.2790
39.8900,42.2600
Z" /> 
</g>
<g style="fill:#000000; fill-opacity:1.0000; stroke:none;">
<circle cx="40.9400" cy="48.6400" r="1.3000" /> 
</g>
<g style="fill:#000000; fill-opacity:1.0000; stroke:none;">
<circle cx="40.9400" cy="53.7200" r="1.3000" /> 
</g>
<g style="fill:#000000; fill-opacity:1.0000; stroke:none;">
<circle cx="40.9400" cy="58.8000" r="1.3000" /> 
</g>
<g style="fill:#000000; fill-opacity:1.0000; stroke:none;">
<circle cx="40.9400" cy="63.8800" r="1.3000" /> 
</g>
<g style="fill:#000000; fill-opacity:1.0000; stroke:none;">
<circle cx="40.9400" cy="68.9600" r="1.3000" /> 
</g> 
</svg>
